<svg xmlns="http://www.w3.org/2000/svg" width="3187" height="1129" style="shape-rendering:geometricPrecision;text-rendering:geometricPrecision;image-rendering:optimizeQuality;fill-rule:evenodd;clip-rule:evenodd"><path style="opacity:.998" fill="#fefefe" d="M523.5 50.5a652 652 0 0 1 16.5 24 401 401 0 0 1 6.5 30.5 298 298 0 0 0-4 20.5 473 473 0 0 1 33 5 483 483 0 0 1 47 11.5 239 239 0 0 0 17 12 905 905 0 0 1 15.5 18.5q64.826-25.766 134.5-24.5a404.7 404.7 0 0 1 75 16q21.68 9.082 40 23.5 33.289-34.005 77-53.5a433.7 433.7 0 0 1 94-20q55.635-2.176 108 17 15.3 6.024 28.5 15.5c6.19-6.185 13.03-11.685 20.5-16.5a338 338 0 0 1 21.5-5.5c7.94-10.601 17.77-19.101 29.5-25.5 9.83-2.5 19.66-5 29.5-7.5 9.15 2.245 18.31 4.412 27.5 6.5 13.87 6.533 24.53 16.533 32 30 10.12 6.468 19.29 13.968 27.5 22.5 6.13.996 12.3 1.662 18.5 2 40.33-5.034 79.99-1.867 119 9.5a244 244 0 0 1 37.5 11.5q44.265-6.17 88.5.5a478 478 0 0 1 75 20q45.6 21.413 79.5 58.5 34.785-40.524 85.5-57.5c14.3-3.491 28.63-6.824 43-10q31.5-4.97 63 0a505.6 505.6 0 0 1 81.5 21.5c2.67-10.667 5.33-21.333 8-32a195 195 0 0 1 18-27 347 347 0 0 1 25.5-18.5 449 449 0 0 1 35-9c24.67-.667 49.33-.667 74 0a449 449 0 0 1 35 9 230 230 0 0 1 28 21.5 281 281 0 0 1 13-15.5 239 239 0 0 0 17-12q17.85-5.07 36-9c29.66.31 59.33.31 89 0q25.455-42.951 72-61a347.5 347.5 0 0 1 52.5-10.5 289.4 289.4 0 0 1 65.5 15.5q24.465 13.852 43.5 34.5a6599 6599 0 0 0 10.5 15c5.47 7.942 9.64 16.609 12.5 26a293.4 293.4 0 0 1 8.5 43 258.4 258.4 0 0 1-9 45.5c.33.5.67 1 1 1.5 11.96-7.646 24.62-13.646 38-18a410 410 0 0 1 68-14c.57-4.268-.1-8.434-2-12.5.05-6.021.22-12.521.5-19.5a446 446 0 0 1 9-35 182 182 0 0 1 16-20l3-12c3.33-4.667 6.67-9.333 10-14a524 524 0 0 1 36.5-26.5c8.3-2.157 16.63-4.157 25-6q6.03-.914 12 .5c10.3-2.46 20.64-4.794 31-7 41.5 4.23 73.17 23.897 95 59a207 207 0 0 0 10.5 16 277 277 0 0 1 8 17c1.83 8.167 3.67 16.333 5.5 24.5-1.61 7.528-3.28 15.028-5 22.5q-3.99 9.459-10.5 18a729 729 0 0 0-20.5 18 451 451 0 0 1 24 15.5c3.81 4.478 7.47 8.978 11 13.5q3.6 4.607 6 10 2.835 15.257 6 30.5a307 307 0 0 1-3 21.5 310 310 0 0 0-4 26c-2.67 11.384-4.34 23.05-5 35-1.43 7.887-2.09 15.887-2 24q-1.98 12.763 0 26 10.53 6.536 18 16 3.735 5.457 7.5 11a154 154 0 0 1 7 34 310 310 0 0 1-3.5 17c-.83 2.872-1.66 5.872-2.5 9a337 337 0 0 0-10.5 21c-1.92 1.165-2.75 2.832-2.5 5a389 389 0 0 1 15.5 10.5 896 896 0 0 1 16 19.5 6.93 6.93 0 0 0 1 4 361 361 0 0 0 5.5 26 42 42 0 0 0 4.5 6c4.72 10.529 8.05 21.529 10 33 .03 11.369-.31 22.702-1 34-.83 2.632-1.66 5.298-2.5 8-.5 8.994-.67 17.994-.5 27a233 233 0 0 0-.5 15 109 109 0 0 0-4.5 20q-5.535 11.541-13.5 22a395 395 0 0 0-16.5 12c-22.17 6.249-44.83 8.916-68 8a143 143 0 0 0 8.5 21 284 284 0 0 1 23.5 15c10.83 7.495 19.16 17.162 25 29q2.91 14.75 6 29.5a1432 1432 0 0 0-5.5 25.5c-1.81 6.278-4.64 11.945-8.5 17a1004 1004 0 0 1-35 41 514 514 0 0 0-18 19.5c-6.67 4.667-13.33 9.333-20 14a310 310 0 0 1-39.5 9.5q-39-4.791-76.5-16.5c-10.71-4.435-20.54-10.268-29.5-17.5a109.3 109.3 0 0 0-5 20 247 247 0 0 1-9.5 15q-10.455 11.505-24 19.5a5817 5817 0 0 1-132 28q-6 1.005-12 0c-8.26-2.32-16.59-4.32-25-6-1.58-1.09-3.24-1.93-5-2.5-11.69-7.03-21.03-16.36-28-28v-1a3373 3373 0 0 0-13.5-55c-5.33 7.333-10.67 14.667-16 22a147.3 147.3 0 0 1-25.5 16.5c-9.67 2.333-19.33 4.667-29 7-2.69.43-5.36.263-8-.5a1490 1490 0 0 0-37-9.5 305 305 0 0 1-39.5-18.5c-33.47 10.062-67.3 11.562-101.5 4.5-13.7-3.175-27.37-6.509-41-10a269 269 0 0 1-35-15 731 731 0 0 1-43-29.5c-5.72-5.389-11.39-10.722-17-16-8.67-11.672-17.34-23.339-26-35a28 28 0 0 1-5 1.5q-4.5 18.729-12 36.5a322.3 322.3 0 0 1-26 47 97 97 0 0 1-10 12.5 353 353 0 0 1-21 14 1341 1341 0 0 1-35 9q-36.63.672-72-9c-26-4.665-50.33-13.665-73-27a1088 1088 0 0 0-34-23.5c-7.67-7-15-14.333-22-22v-1a378 378 0 0 1-26-37c-10.66 12.328-21.33 24.661-32 37a479 479 0 0 0-24 28c-12.64 13.641-25.31 27.307-38 41-12.33 13.333-24.67 26.67-37 40-11 10.33-21.67 21-32 32-12.65 15.15-27.31 27.98-44 38.5a250 250 0 0 1-38.5 9.5 286 286 0 0 1-34.5-7.5c-29.6-12.03-58.93-24.53-88-37.5l-10-7a71.6 71.6 0 0 1-11-12c-2-3.98-4.5-7.65-7.5-11-1.3-5.51-2.96-10.84-5-16l-20.5 14.5c-9.63 2.49-19.29 4.82-29 7-13.27-.49-26.27-2.82-39-7-22.43-12.97-44.93-25.8-67.5-38.5a566 566 0 0 0-16.5 19.5c-4.67 3.33-9.33 6.67-14 10a356 356 0 0 1-36 9c-36.97 2.37-73.97 3.7-111 4a577 577 0 0 1-23-5 31.1 31.1 0 0 1-9-4.5c-4.43-2.58-8.77-5.42-13-8.5a613 613 0 0 1-14.5-18.5 74.2 74.2 0 0 1-5.5-20 430 430 0 0 1-5.5-49q-28.455 19.352-61.5 29.5a726 726 0 0 1-57 13q-34.172 3.816-68-2-37.8-5.948-72-23a1303 1303 0 0 1-35-23.5l-4-3q-.5-1.5-2-2a146.3 146.3 0 0 1-24.5-29q-1.434-2.091-4-2a1080 1080 0 0 1-49.5 13 123.5 123.5 0 0 1-11 18 75617 75617 0 0 0-21 28 620 620 0 0 0-20 21.5 139 139 0 0 1-23 15 545 545 0 0 0-16 4.5l-21 4q-59.96-8.231-110.5-41a177367 177367 0 0 0-59.5 43.5q-22.209 8.803-46 10-40.716-6.07-76-27a239.5 239.5 0 0 1-34.5-27.5 92 92 0 0 1-3 9l-10 14a257 257 0 0 1-21.5 16.5l-30 7q-57 1-114 0l-28-7a16.6 16.6 0 0 1-4-2.5 153 153 0 0 1-13-8.5A229 229 0 0 1 10 945.5a352 352 0 0 1-8-31 41412 41412 0 0 1 0-407l7-29A257 257 0 0 1 25.5 457l18-12q23.946-7.614 49-8-16.78-11.344-25.5-29.5A1797 1797 0 0 1 46.5 298a289 289 0 0 1 8.5-34.5l10-14a78.7 78.7 0 0 1 16-13q3.3-31.497 12-62 16.438-43.619 50.5-75.5a368.5 368.5 0 0 1 54-36 429.7 429.7 0 0 1 88-24q32.723-5.14 64 5.5a36.3 36.3 0 0 1 8-9.5 191 191 0 0 0 15-11q6.45-2.19 13-4l15-11L430 1.5A681 681 0 0 0 493.5 17 611 611 0 0 1 512 31.5q6.795 9.006 11.5 19m768 362a3418 3418 0 0 1-6 60.5c.05 2.557.39 5.057 1 7.5-3.41 4.494-6.58 9.16-9.5 14a703 703 0 0 0-20.5-14.5 229 229 0 0 1-21-5.5q4.74-16.431 9-33c7.23-1.953 13.9-4.953 20-9a209 209 0 0 0 27-20m-349 82a175 175 0 0 0 19 17.5 1083 1083 0 0 0 34 23.5q-44.42-7.072-88 4l5-14q6.948-14.838 11-31a321 321 0 0 1 4.5-17 118.6 118.6 0 0 0 14.5 17m-344 5a71 71 0 0 0 11 9q9.897 16.672 25 29.5a404 404 0 0 0 34 24.5q21.145 14.318 46 21.5a605 605 0 0 0 62 13.5q-14.403 11.65-26.5 26-40.605-40.009-96.5-53.5a1605 1605 0 0 0-49-11 333 333 0 0 0-40-3.5 290 290 0 0 1 15.5-12 351 351 0 0 1 12.5-18 302 302 0 0 0 6-26m1517 65a53.7 53.7 0 0 0 5 7.5c-3.33.172-6.66.005-10-.5a26.7 26.7 0 0 1 5-7m-186 48c-.81 1.337-1.98 2.337-3.5 3a1393 1393 0 0 0-40.5-22 51 51 0 0 1 6.5-5 197.2 197.2 0 0 0 37.5 24m-397 203a1523 1523 0 0 1 17 41c-1.62 3.571-3.95 6.571-7 9a183 183 0 0 0-17-15c-2.33-3.333-4.67-6.667-7-10q4.92-7.68 10.5-15c1.18-3.442 2.35-6.775 3.5-10"/><path style="opacity:1" fill="#343a40" d="M428.5 64.5q2.835-.306 4.5 2l11 18q10.232-7.234 21.5-11.5 1.87 2.241 0 4.5l-17 10.5 30 8q8.383 3.675 5.5 12.5a1032 1032 0 0 1-14 53 6.98 6.98 0 0 1-3.5 2.5 25.2 25.2 0 0 1-10 0l-64-16q-9.972-3.86-7.5-14.5a746 746 0 0 1 14-52 6.98 6.98 0 0 1 3.5-2.5q17.266.25 33.5 6.5l1.5-1a243 243 0 0 0-9.5-16q-.868-2.142.5-4"/><path style="opacity:1" fill="#54aaec" d="M412.5 91.5q22.788-.953 44 7.5 16.547 4.554 13.5 21.5a180 180 0 0 1-5 18q-3.869 12.06-16.5 11a157 157 0 0 1-37-8.5q-12.501-3.989-12-17a71.1 71.1 0 0 1 5.5-23.5q2.463-5.7 7.5-9"/><path style="opacity:1" fill="#d065ef" d="M300.5 99.5q10.013-.25 20 .5 8.911 3.021 10.5 12.5a1120 1120 0 0 1 4 61q-2.009 6.505-7.5 10.5a162 162 0 0 0-30 11q-34.107 18.971-26.5 57.5 1.011 1.617 3 2a812 812 0 0 1 43-8q8.486-.757 12 7a3798 3798 0 0 0 14 79q2.195 9.36-6.5 13.5a1018 1018 0 0 0-39 9A4841 4841 0 0 0 347 503.5q3.448 10.854-6.5 15.5a8881 8881 0 0 1-101 32q-14.736 1.285-17.5-13.5a3968 3968 0 0 1-47.5-157 1254 1254 0 0 1-40 7q-6.687.531-10.5-5a3603 3603 0 0 1-14-77q-1-6 0-12a11.5 11.5 0 0 1 3.5-4.5 510 510 0 0 1 35-9q-23.488-112.019 79-162 35.325-14.705 73-18.5"/><path style="opacity:1" fill="#687780" d="M2969.5 102.5c13.56.522 25.23 5.522 35 15 11.25 11.196 19.42 24.196 24.5 39-18.89-7.441-25.06-1.607-18.5 17.5-4.59-.543-9.26-.543-14 0-4.17 1.5-7 4.333-8.5 8.5a84 84 0 0 1-5.5 15.5q-3.405 2.328-7.5 2.5a61.7 61.7 0 0 0-17.5-.5 25.5 25.5 0 0 0-6.5 5.5 167 167 0 0 1-4.5 10c-4.38-4.693-9.71-6.86-16-6.5-2.88 1.251-4.71 3.417-5.5 6.5a132 132 0 0 0-2 12c-14.32-13.971-23.99-30.638-29-50a99.8 99.8 0 0 1 0-20 14.4 14.4 0 0 1 2.5-5.5c1.44-.781 2.78-.614 4 .5q8.79 18.804 27 8.5c4.43-2.261 8.1-5.428 11-9.5q-4.755-1.1-9-3.5c-3.78-3.779-7.61-7.613-11.5-11.5-3.06-4.855-4.23-10.189-3.5-16 5.03-.101 9.37 1.566 13 5a48.4 48.4 0 0 0 7-4.5c-2.76-4.753-2.59-9.253.5-13.5 7.96 2.628 13.29 7.961 16 16a49.3 49.3 0 0 0 3 9c.77 2.599.6 5.099-.5 7.5 10.68-1.333 17.85-7.167 21.5-17.5q1.245-9.523-6-16c-.58-1.428-.41-2.762.5-4"/><path style="opacity:1" fill="#c238ea" d="M2582.5 105.5c40.65-3.272 69.48 13.394 86.5 50 9.19 43.784-6.97 73.951-48.5 90.5-39.41 11.031-71.24.198-95.5-32.5q-28.26-59.206 25.5-96.5c10.12-5.759 20.79-9.592 32-11.5"/><path style="opacity:1" fill="#98a9b4" d="M2975.5 107.5q.36-.895 1.5-1 10.545 2.512 19.5 8.5c10.74 9.57 19.4 20.737 26 33.5-11.9-1.086-18.24 4.248-19 16a66 66 0 0 1-10.5-13 291 291 0 0 1-10-32q-2.91-6.629-7.5-12"/><path style="opacity:.98" fill="#c147ea" d="M523.5 50.5q22.227 11.478 30.5 35a104.6 104.6 0 0 1 15 19 185 185 0 0 1 6.5 26 473 473 0 0 0-33-5 298 298 0 0 1 4-20.5 401 401 0 0 0-6.5-30.5 652 652 0 0 0-16.5-24"/><path style="opacity:1" fill="#97a8b3" d="M2978.5 120.5c2.11.86 3.28 2.527 3.5 5q2.49 24.97 19.5 43c-9.39 1.553-15.56 6.886-18.5 16q-7.17-14.858-7.5-31.5 1.8-16.244 3-32.5"/><path style="opacity:1" fill="#2c3236" d="M2942.5 128.5c4.51-.973 6.67.694 6.5 5q-4.785 4.367-7.5-1.5c.49-1.138.82-2.305 1-3.5"/><path style="opacity:1" fill="#63717b" d="M391.5 134.5q8.982.246 4 7.5-9.145.22-4-7.5"/><path style="opacity:1" fill="#2b3135" d="M2930.5 136.5c5.16-.393 6.83 1.773 5 6.5-5.76 1.139-7.43-1.028-5-6.5"/><path style="opacity:.975" fill="#bf4eeb" d="M2713.5 107.5c5.6 3.73 10.76 8.064 15.5 13 6.33 8.667 12.67 17.333 19 26 5.83 10.31 9.66 21.31 11.5 33h-24c.24-1.291-.1-2.291-1-3a293.4 293.4 0 0 0-8.5-43c-2.86-9.391-7.03-18.058-12.5-26"/><path style="opacity:.978" fill="#bf4eeb" d="M3068.5 98.5c6.53 4.018 12.36 9.018 17.5 15a346 346 0 0 1 30 47 130 130 0 0 1 4.5 19q-16.77.492-33-1c1.72-7.472 3.39-14.972 5-22.5-1.83-8.167-3.67-16.333-5.5-24.5a277 277 0 0 0-8-17 207 207 0 0 1-10.5-16"/><path style="opacity:1" fill="#617079" d="M461.5 151.5q7.144.888 4 7.5-10.995.729-4-7.5"/><path style="opacity:1" fill="#f48bcb" d="M1317.5 175.5q-7.83-.47-15 2 1.35-.986 3-2c-1.04-2.268-1.21-4.601-.5-7a23.2 23.2 0 0 0 4.5-6.5q-2.085-1.951-1.5-4.5 1.5-2 3 0c.48-.948.65-1.948.5-3h4a30.5 30.5 0 0 0-.5 5q2.04-1.32 4.5-1c-2.19 3.99-3.86 8.323-5 13a14.4 14.4 0 0 0 3 4"/><path style="opacity:1" fill="#98a9b4" d="M2897.5 157.5c7.19 11.021 16.52 19.854 28 26.5 6.91 6.235 12.24 13.568 16 22-2.84-.049-5.68-.549-8.5-1.5-7.36 1.697-11.69 6.364-13 14a123.3 123.3 0 0 1-20-32c-3.33-9.464-4.16-19.131-2.5-29"/><path style="opacity:1" fill="#97a8b3" d="M2909.5 166.5a625 625 0 0 0 34 10.5q13.605 6.81 24 18c-10-1.237-17.17 2.596-21.5 11.5-7.03-15.697-18.2-27.53-33.5-35.5q-2.46-1.693-3-4.5"/><path style="opacity:1" fill="#fe69c4" d="M1317.5 175.5c22.2.047 35.54 10.881 40 32.5q-3.555 17.068-18 27c-8.06 3.389-14.22 8.889-18.5 16.5q-4.41 12.169 7.5 17-6.27.753-10.5-5c-3.25-9.01-1.09-16.51 6.5-22.5 9.19-6.489 17.35-13.989 24.5-22.5 4.44-11.349 1.61-20.516-8.5-27.5q-25.62-15.201-51 1c-16.83 11.672-31.5 25.505-44 41.5-1.9-8.28-1.07-16.28 2.5-24a38 38 0 0 1 4.5-4.5c4.3-1.106 8.64-2.106 13-3a25.4 25.4 0 0 0 4-4.5q2.865-3.385 6-7a290 290 0 0 1 20-11.5 53 53 0 0 1 7-1.5q7.17-2.47 15-2"/><path style="opacity:1" fill="#c237ea" d="M1065.5 176.5c28.88-2.232 57.22.601 85 8.5 44.14 16.818 69.97 48.652 77.5 95.5 2.31 13.098 1.98 26.098-1 39-5.87 14.203-16.04 24.037-30.5 29.5-34.77 11.305-70.44 16.638-107 16a17.9 17.9 0 0 1-5.5-4.5 432 432 0 0 1-17.5-54.5c.49-4.163 2.82-6.829 7-8a149 149 0 0 0 33-9c2.63-3.887 2.46-7.72-.5-11.5-14.97-15.353-32.14-18.186-51.5-8.5-20.95 14.51-28.79 34.343-23.5 59.5 8.54 28.87 27.37 47.37 56.5 55.5a243.4 243.4 0 0 0 56 5c8.13 2.788 10.96 8.288 8.5 16.5a565 565 0 0 1-21 51q-6.48 11.481-19.5 13.5c-44.57 3.248-86.23-6.086-125-28q-86.901-58.598-64.5-161.5 20.842-60.846 79.5-87.5c20.76-8.245 42.1-13.745 64-16.5"/><path style="opacity:1" fill="#d065ef" d="M2377.5 176.5c35.34.238 70.67.738 106 1.5 5.24.865 9.41 3.365 12.5 7.5-5.41 72.633-10.75 145.3-16 218q-4.155 40.259 3 80c4.1 18.772 15.27 31.272 33.5 37.5 1.35 1.574 2.01 3.407 2 5.5a1484 1484 0 0 1-34.5 73q-5.58 5.662-13.5 6c-28.37-3.392-53.54-14.059-75.5-32-53.05 26.46-107.21 28.96-162.5 7.5q-56.49-23.986-82.5-79.5c-18.76-58.52-6.6-109.687 36.5-153.5 24.17-21.621 52.5-33.954 85-37 29.02-2.631 57.36.535 85 9.5 2.31-44.72 5.47-89.387 9.5-134 2.57-4.855 6.4-8.189 11.5-10"/><path style="opacity:.985" fill="#be57eb" d="M2734.5 176.5c.9.709 1.24 1.709 1 3h24c2.3 8.545 3.97 17.212 5 26-13.38 4.354-26.04 10.354-38 18-.33-.5-.67-1-1-1.5a258.4 258.4 0 0 0 9-45.5"/><path style="opacity:1" fill="#15181b" d="M2275.5 218.5q-3.885 20.139-24 25.5c-.87 5.671-3.53 10.171-8 13.5-13.12 6.606-22.78 3.273-29-10-6.41 12.688-16.08 16.021-29 10q-6.3-5.05-9-13c-12.3-4.289-19.96-12.623-23-25-1.79-19.248 6.54-31.748 25-37.5q34.5-1 69 0c19.81 4.107 29.14 16.273 28 36.5"/><path style="opacity:1" fill="#f488ca" d="M1328.5 268.5c.54.06.88.393 1 1q-14.475 2.251-15-12.5.15-7.94 4.5-14.5a164.3 164.3 0 0 1 22-20c6.25-11.363 3.42-19.863-8.5-25.5a200 200 0 0 1-9.5-2.5c-3.25 1.032-4.09 3.032-2.5 6 4.32 2.5 8.49 5.167 12.5 8 .45 1.909-.39 3.076-2.5 3.5.84 1.011 1.17 2.178 1 3.5-2.77-.735-5.44-.901-8-.5q-.87-2.862 0-5a45 45 0 0 0-11-3l-1.5-1.5c-.5-3.652-.67-7.318-.5-11-8.44.724-15.78 3.891-22 9.5q3.99 6.029 0 12c1.54 1.11 2.2 2.61 2 4.5-2.64.071-4.81 1.071-6.5 3a46.6 46.6 0 0 0-5.5-6c1.17-1.717 2.84-2.384 5-2 .31-2.424-.03-4.757-1-7a39 39 0 0 0-5.5 5 121 121 0 0 1-4 15q-9.135 7.17-21 7c-2.54.164-4.71-.503-6.5-2 12.5-15.995 27.17-29.828 44-41.5q25.38-16.201 51-1c10.11 6.984 12.94 16.151 8.5 27.5-7.15 8.511-15.31 16.011-24.5 22.5-7.59 5.99-9.75 13.49-6.5 22.5q4.23 5.753 10.5 5"/><path style="opacity:1" fill="#f590cd" d="M1275.5 190.5q-3.135 3.615-6 7 2.175-4.35-3-4c.35 2.135-.48 3.468-2.5 4a14.7 14.7 0 0 0-5-4q.915-3.8 1.5-8c3.45 1.428 7.11 2.261 11 2.5 1.82.2 3.15 1.034 4 2.5"/><path style="opacity:1" fill="#c237ea" d="M501.5 186.5a332.3 332.3 0 0 1 76 6.5q9.745 2.31 19 6 4.449 3.397 4 9a1821 1821 0 0 1-21.5 75.5q-5.474 12.008-18.5 8.5-24.744-9.557-51-5.5a23792 23792 0 0 1-2.5 177q-4.914 9.326-15.5 7-52.494-1.392-105-2.5-4.624-1.179-6.5-5.5-.079-131.004 2-262 1.658-5.156 6.5-7.5 34.491.563 69 0a780 780 0 0 1 44-6.5"/><path style="opacity:1" fill="#f0c14a" d="M2241.5 190.5q8.445.692 7.5 9c-2.56 2.849-5.73 3.683-9.5 2.5-3.14-4.656-2.48-8.489 2-11.5"/><path style="opacity:1" fill="#81929e" d="M2179.5 192.5c3.28-.284 6.44.049 9.5 1q2.625 8.39-4.5 13a25.4 25.4 0 0 1-4.5-4c-.5-3.317-.67-6.65-.5-10"/><path style="opacity:1" fill="#4d9fdd" d="M2227.5 203.5c6.83-1.326 9.99 1.34 9.5 8-2.82 3.071-6.16 3.738-10 2-2.13-3.525-1.96-6.858.5-10"/><path style="opacity:1" fill="#d52d42" d="M2251.5 203.5c6.83-1.326 9.99 1.34 9.5 8-2.82 3.071-6.16 3.738-10 2-2.01-3.45-1.84-6.783.5-10"/><path style="opacity:1" fill="#80909d" d="M2168.5 203.5c5.98-1.331 10.65.502 14 5.5q-6.045 6.296-15 4.5c-.25-3.439.09-6.772 1-10"/><path style="opacity:1" fill="#81919e" d="M2190.5 203.5a41 41 0 0 1 9 .5c.95 3.057 1.28 6.223 1 9.5-3.35.165-6.68-.002-10-.5a25.6 25.6 0 0 1-4-4.5 893 893 0 0 0 4-5"/><path style="opacity:.984" fill="#bd59eb" d="M3087.5 178.5q16.23 1.492 33 1 1.38 4.775 3 9.5-3.93 14.157-7.5 28.5c-3.33 4.667-6.67 9.333-10 14a233 233 0 0 1-14.5 12 413 413 0 0 0-11-13.5 451 451 0 0 0-24-15.5 729 729 0 0 1 20.5-18q6.51-8.541 10.5-18"/><path style="opacity:1" fill="#d065ef" d="M751.5 210.5q45.156-3.737 88 10.5 63.387 28.933 72.5 98.5 7.728 44.815-33.5 62.5-51.658 16.943-106 17l-4.5-4.5a524 524 0 0 1-18.5-54.5q.112-5.125 5-7a1203 1203 0 0 0 33-9q7.166-5.36 1.5-12.5-27.6-26.03-58.5-3.5-23.2 22.033-16.5 53.5 11.549 43.05 54.5 55.5a166 166 0 0 0 23 4l35 1q12.579 2.931 10.5 15.5a511 511 0 0 1-23 56q-7.338 8.545-18.5 10.5-53.36 3.425-103-16-92.89-41.499-92.5-143.5 9.795-83.327 86.5-117.5 31.67-12.293 65-16.5"/><path style="opacity:1" fill="#262e31" d="M1249.5 210.5q5.49-.225 3 4.5a8.4 8.4 0 0 1-4 .5c-.13-1.792.2-3.458 1-5"/><path style="opacity:1" fill="#80909d" d="M2182.5 211.5c6.65 1.819 8.81 6.152 6.5 13-3.06.951-6.22 1.284-9.5 1-.17-3.682 0-7.348.5-11 1.04-.873 1.88-1.873 2.5-3"/><path style="opacity:1" fill="#d065ef" d="M1382.5 211.5a992 992 0 0 1 36 4c51.1-7.27 99.93.064 146.5 22q74.61-14.3 145.5 12.5c53.19 22.181 84.35 61.681 93.5 118.5.51 18.337.34 36.67-.5 55q-2.37 38.17 25.5 64c4.3 5.11 4.47 10.276.5 15.5a2190 2190 0 0 0-53 34q-11.355 6.804-24 3c-48.3-21.717-72.63-59.217-73-112.5a686 686 0 0 0 3-39c.7-14.323-2.46-27.656-9.5-40q-9.03-10.782-22.5-15a123 123 0 0 0-3.5 20 6385 6385 0 0 1-18 158c-2.76 3.589-6.42 5.256-11 5l-99.5-11.5c-5.55-2.263-8.22-6.43-8-12.5 4.5-36.623 8.66-73.29 12.5-110a205 205 0 0 0-1-37c-4.12-19.308-15.95-30.308-35.5-33a18873 18873 0 0 1-17.5 169 30 30 0 0 1-3 12c-2.4 3.116-5.57 4.449-9.5 4a7867 7867 0 0 1-101-11.5c-5.25-1.994-7.92-5.828-8-11.5q14.52-127.965 28.5-256c1.69-2.858 3.86-5.191 6.5-7"/><path style="opacity:1" fill="#73ac52" d="M2239.5 215.5c6.83-1.326 9.99 1.34 9.5 8-2.82 3.071-6.16 3.738-10 2-2.01-3.45-1.84-6.783.5-10"/><path style="opacity:1" fill="#33393f" d="M2153.5 219.5c3.04 12.377 10.7 20.711 23 25q2.7 7.95 9 13a19.1 19.1 0 0 0-5 2.5 287 287 0 0 1-17 15c-10.38 1.958-15.71-2.375-16-13q2.94-21.277 6-42.5"/><path style="opacity:1" fill="#33393e" d="M2275.5 218.5a886 886 0 0 1 5 41.5q2.31 17.697-15 15a524 524 0 0 0-22-17.5c4.47-3.329 7.13-7.829 8-13.5q20.115-5.361 24-25.5"/><path style="opacity:1" fill="#303237" d="M1264.5 224.5q5.775.301 3 5.5-5.94.177-3-5.5"/><path style="opacity:1" fill="#65737c" d="M2191.5 231.5q20.43-.847 13.5 18c-7.5 6.072-13.84 5.072-19-3-1.91-6.53-.08-11.53 5.5-15m36 0c11.99-1.843 17.16 3.157 15.5 15-5.29 7.898-11.62 8.898-19 3-4.07-7.039-2.9-13.039 3.5-18"/><path style="opacity:1" fill="#c237ea" d="M1954.5 245.5c48.73-3.361 94.4 6.806 137 30.5 45.92 30.369 64.09 72.869 54.5 127.5q-3.045 17.132-12 32c-6.83 8.668-15.67 14.168-26.5 16.5-39.59 3.15-78.26-1.517-116-14-2.88-1.251-4.71-3.417-5.5-6.5a448 448 0 0 1-1-59q3.705-5.474 10.5-5c7.63 1.079 15.3 1.746 23 2 12.22 2.284 16.39-2.382 12.5-14-5.38-11.274-14.21-18.108-26.5-20.5-29.17-3.859-48.34 8.308-57.5 36.5-6.35 32.294 3.49 58.46 29.5 78.5a177.3 177.3 0 0 0 27 15c9.63 3.489 19.3 6.823 29 10 7.63 5.459 8.79 11.959 3.5 19.5a522 522 0 0 1-35.5 41.5q-11.955 9.237-27 6-65.34-17.773-109.5-68.5c-37.3-50.447-41.97-103.78-14-160 24.39-38.617 59.22-61.283 104.5-68"/><path style="opacity:1" fill="#d065ef" d="M2824.5 254.5c30.61-1.712 60.27 2.621 89 13q8.28-4.82 18-4 48.03 3.418 96 7.5 17.37 2.379 13.5 19.5a1200 1200 0 0 0-13 87c-2.55 20.128-1.88 40.128 2 60 3.13 15.131 11.96 25.298 26.5 30.5 4.98 4.802 5.15 9.969.5 15.5l-33 59c-4.99 7.328-11.82 10.161-20.5 8.5-23.86-5.097-45.19-15.264-64-30.5q-78.78 35.925-159 3.5c-40.89-17.887-69.06-47.72-84.5-89.5-12.94-55.843 1.22-103.677 42.5-143.5 24.83-21.221 53.5-33.388 86-36.5"/><path style="opacity:1" fill="#c237ea" d="M2669.5 516.5c-6.34-.166-12.68 0-19 .5q-1.86.348-3 1.5-42.03 1.365-84 4c-7.12 1.357-11.96-1.309-14.5-8-4.89-81.656-9.22-163.322-13-245 1.67-3.665 4.5-5.832 8.5-6.5 37.66-1.788 75.33-3.121 113-4 2.83 1.5 5 3.667 6.5 6.5q6 120.819 13.5 241.5c-.47 5.142-3.13 8.309-8 9.5"/><path style="opacity:.978" fill="#ba67ec" d="M3097.5 253.5c19.75 11.768 31.09 29.101 34 52h-31a307 307 0 0 0 3-21.5 1480 1480 0 0 1-6-30.5"/><path style="opacity:.985" fill="#b76dec" d="M3100.5 305.5h31a96 96 0 0 1 3 12 251 251 0 0 0-3 18h-35v-4c.97-8.742 2.3-17.408 4-26"/><path style="opacity:.985" fill="#b674ec" d="M3096.5 331.5v4h35a587 587 0 0 0-5 31h-35c.66-11.95 2.33-23.616 5-35"/><path style="opacity:1" fill="#fefefe" d="M2858.5 344.5c13.92-.854 26.59 2.646 38 10.5a17.8 17.8 0 0 1 4.5 5.5q-.735 33.483 0 67c1.22 5.552 1.39 11.052.5 16.5q-24.9 10.14-51 4c-28.65-10.68-40.49-31.18-35.5-61.5q9.405-34.164 43.5-42"/><path style="opacity:1" fill="#b579ec" d="M1294.5 395.5a367.6 367.6 0 0 1-54 0q11.55-8.43 22.5-18l15-21a47 47 0 0 0 5-12q3.165-11.49 6-23c3.45 3.331 7.62 4.998 12.5 5-1.97 23.04-4.3 46.04-7 69"/><path style="opacity:.984" fill="#b47aec" d="M3091.5 366.5h35a324 324 0 0 0-4 30h-33v-6c-.09-8.113.57-16.113 2-24"/><path style="opacity:.994" fill="#b180ec" d="M1240.5 395.5q26.85 1.986 54 0a702 702 0 0 1-2 16c-.67 0-1 .333-1 1a209 209 0 0 1-27 20c-19.03.654-37.7-.013-56-2 1.66-7.326 3.33-14.66 5-22q14.175-5.335 27-13"/><path style="opacity:.978" fill="#b280ec" d="M3089.5 390.5v6h33a281 281 0 0 0-3 36h-12q-7.47-9.464-18-16-1.98-13.237 0-26"/><path style="opacity:1" fill="#fefefe" d="M2306.5 400.5c14.7-1.484 28.04 2.016 40 10.5a18.8 18.8 0 0 1 4.5 5.5 595 595 0 0 0 6.5 81 182 182 0 0 1-31 8.5c-24.88 3.06-44.05-5.774-57.5-26.5-10.88-25.101-6.71-47.268 12.5-66.5 7.61-5.805 15.94-9.972 25-12.5"/><path style="opacity:.987" fill="#ae88ed" d="M1208.5 430.5c18.3 1.987 36.97 2.654 56 2-6.1 4.047-12.77 7.047-20 9a1172 1172 0 0 1-9 33c-14.47-1.049-29.13-1.049-44 0 5.71-14.733 11.37-29.4 17-44"/><path style="opacity:.985" fill="#ac8ded" d="M952.5 493.5q-4.687 1.469-10 1a118.6 118.6 0 0 1-14.5-17 321 321 0 0 0-4.5 17q-21.062.973-41-2a380 380 0 0 0 15.5-49q11.584 16.092 26.5 29.5a921 921 0 0 1 28 20.5"/><path style="opacity:.977" fill="#ac8ced" d="M3107.5 432.5h12c-.17 5.676 0 11.343.5 17 16.65 10.628 26.81 25.628 30.5 45h-32a310 310 0 0 0 3.5-17 154 154 0 0 0-7-34q-3.765-5.543-7.5-11"/><path style="opacity:1" fill="#02ebec" d="M386.5 747.5a3662 3662 0 0 1-43-3.5 4080 4080 0 0 0-141-25 502 502 0 0 0-37-8 389 389 0 0 0-61-16q-19.975-7.246-40-14.5v-172q1.025-5.28 6-7.5 58-1 116 0 4.321 1.876 5.5 6.5.75 64.998.5 130 67.914-5.268 128 26.5 49.507 28.751 66 83.5"/><path style="opacity:.99" fill="#a893ed" d="M598.5 499.5a302 302 0 0 1-6 26 961 961 0 0 1-62-1 200 200 0 0 1 16-11.5 611 611 0 0 0 14.5-18.5 283 283 0 0 0 8.5-32 402 402 0 0 0 29 37"/><path style="opacity:.986" fill="#a893ed" d="M882.5 492.5q19.938 2.973 41 2-4.052 16.162-11 31a507 507 0 0 1-45-1 348 348 0 0 0 15-32"/><path style="opacity:.988" fill="#a893ed" d="M3118.5 494.5h32a98 98 0 0 0 3 13.5 134 134 0 0 0-4 17.5c-14.84.329-29.51-.004-44-1a337 337 0 0 1 10.5-21c.84-3.128 1.67-6.128 2.5-9"/><path style="opacity:1" fill="#5eadec" d="M1353.5 515.5c2.95-.277 5.78.056 8.5 1q1.005 8.5 0 17l-1.5 1.5c-5.39.977-10.72 2.144-16 3.5-.53 21.389-1.37 42.722-2.5 64-8.66 8.79-18.49 10.29-29.5 4.5-9.08-9.776-7.75-17.776 4-24 5.28-1.828 10.61-1.995 16-.5-.17-20.336 0-40.669.5-61l1.5-1.5c6.51-1.33 12.84-2.83 19-4.5"/><path style="opacity:1" fill="#6a2b7d" d="M2669.5 516.5c-7.17.858-14.5 1.524-22 2q1.14-1.152 3-1.5c6.32-.5 12.66-.666 19-.5"/><path style="opacity:.993" fill="#a599ed" d="M530.5 524.5a961 961 0 0 0 62 1 351 351 0 0 0-12.5 18 290 290 0 0 0-15.5 12 406 406 0 0 0-28 3.5 916 916 0 0 1-41 9 1760 1760 0 0 0-20-34.5 188.8 188.8 0 0 0 55-9"/><path style="opacity:.977" fill="#a59aed" d="M609.5 508.5q33.705 28.61 76 42.5a1635 1635 0 0 0 45 10.5 961 961 0 0 1-62 1 404 404 0 0 1-34-24.5q-15.103-12.828-25-29.5"/><path style="opacity:.993" fill="#a699ed" d="M867.5 524.5a507 507 0 0 0 45 1l-5 14a444 444 0 0 0-76 23q-9.285.485-18-1a72.8 72.8 0 0 0 22-6.5 172 172 0 0 1 18-13 684 684 0 0 0 14-17.5"/><path style="opacity:.987" fill="#a797ed" d="M952.5 493.5a341 341 0 0 0 38 19.5 830 830 0 0 0 60 15.5 222 222 0 0 0-6 23 65.8 65.8 0 0 0-13-6.5 371 371 0 0 1-34-8.5q-.513-1.257-2-1a1083 1083 0 0 1-34-23.5 175 175 0 0 1-19-17.5q5.313.469 10-1"/><path style="opacity:1" fill="#a59ced" d="M2115.5 564.5a26.7 26.7 0 0 0-5 7 407 407 0 0 0-57-1.5 837 837 0 0 0 38-47.5q9.705 22.41 24 42"/><path style="opacity:.976" fill="#a698ed" d="M3105.5 524.5c14.49.996 29.16 1.329 44 1a188 188 0 0 0-3.5 13c-3.85 7.027-7.68 14.027-11.5 21a896 896 0 0 0-16-19.5 389 389 0 0 0-15.5-10.5c-.25-2.168.58-3.835 2.5-5"/><path style="opacity:1" fill="#60aeec" d="M1432.5 530.5h8c.17 6.009 0 12.009-.5 18l-1.5 1.5c-5.33 1.233-10.67 2.4-16 3.5q-1.245 30.988-1.5 62c-6.69 9.249-15.52 12.083-26.5 8.5-11.4-6.405-12.73-14.405-4-24q9.255-5.287 19.5-2.5c.33-20.333.67-40.667 1-61l1.5-1.5a975 975 0 0 0 20-4.5"/><path style="opacity:1" fill="#08ebec" d="M1243.5 686.5v13c-4.32.749-8.65.915-13 .5a1249 1249 0 0 0-73-16 717 717 0 0 1-25-7 126 126 0 0 0-19-9.5q-3.195-54.734-6-109.5-3.63-13.444 9-18a2427 2427 0 0 1 113-4c3.24 1.981 5.41 4.814 6.5 8.5q4.245 70.98 7.5 142"/><path style="opacity:1" fill="#4dad57" d="M406.5 539.5h-34q17.06-13.992 34 0"/><path style="opacity:1" fill="#7fc254" d="M372.5 539.5h34a21.6 21.6 0 0 1 4 5q-6.303-.475-12 1-9.931-6.434-19 1-8.715-1.485-18-1 4.767-4.137 11-6"/><path style="opacity:1" fill="#fefefe" d="M398.5 545.5a34.3 34.3 0 0 1 6 8q2.766 6.546 7 12 .915 2.901 3 5a36 36 0 0 0 4 7l4 8a36.2 36.2 0 0 1 4 7q3.216 3.933 4 9a52 52 0 0 1-1 7q-3.5 4.5-8 8a72.2 72.2 0 0 0-14 8l-20 11-10 6q-10.965 5.189-19-4a6875 6875 0 0 0-7-12l-2-4a19 19 0 0 0-3-5 49.7 49.7 0 0 0-6-10 108 108 0 0 0-9-15q-.444-2.855-2-5v-7a25.4 25.4 0 0 1 5-7l8-5a36.2 36.2 0 0 0 7-4q6.053-3.523 12-7l11-6a36.2 36.2 0 0 1 7-4q9.069-7.434 19-1"/><path style="opacity:1" fill="#b8db4b" d="M361.5 545.5q9.285-.485 18 1a36.2 36.2 0 0 0-7 4q-8.715-1.485-18-1a36 36 0 0 1 7-4"/><path style="opacity:1" fill="#c8e147" d="M410.5 544.5a22.6 22.6 0 0 1 4 8q-5.313-.469-10 1a34.3 34.3 0 0 0-6-8q5.697-1.475 12-1"/><path style="opacity:1" fill="#62afec" d="M1389.5 552.5h6c.17 6.342 0 12.675-.5 19a75.2 75.2 0 0 1-17.5 4c.17 20.003 0 40.003-.5 60q-3.045 10.035-13.5 11.5-14.94 3.37-22.5-9.5c-.75-12.09 5.08-18.423 17.5-19q3.09.108 6 1 1.245-29.988 1.5-60c.83-.833 1.67-1.667 2.5-2.5a331 331 0 0 0 21-4.5"/><path style="opacity:1" fill="#08ebec" d="M2968.5 738.5c-23.35.318-46.69-.182-70-1.5a2203 2203 0 0 1-53-12.5 439 439 0 0 1-48-7.5 679 679 0 0 0-56-4.5c-22.23-1.859-42.56 3.307-61 15.5a262 262 0 0 1-36 11.5 16640 16640 0 0 0-33-158q.87-6.489 6-10.5 52.35-11.57 105-22 12.87-3.189 16.5 9.5c8.36 40.642 16.53 81.308 24.5 122a300.4 300.4 0 0 1 68-9q55.575-.61 102 29.5c14.66 9.824 26.33 22.324 35 37.5"/><path style="opacity:1" fill="#eaea3a" d="M354.5 549.5q9.285-.485 18 1l-11 6h-19a53.6 53.6 0 0 1 12-7"/><path style="opacity:1" fill="#fcde2e" d="M414.5 552.5q5.107 5.692 8 13h-11q-4.234-5.454-7-12 4.687-1.469 10-1"/><path style="opacity:1" fill="#ffde2c" d="M342.5 556.5h19a6875 6875 0 0 1-12 7q-8.213-1.483-17-1a37.8 37.8 0 0 1 10-6"/><path style="opacity:.983" fill="#a19fed" d="M730.5 561.5q32.11 6.771 65 4.5a178 178 0 0 1 18-4.5q8.715 1.485 18 1a346.4 346.4 0 0 0-51 33.5 10.1 10.1 0 0 1-4 1.5 605 605 0 0 1-62-13.5q-24.855-7.182-46-21.5a961 961 0 0 0 62-1"/><path style="opacity:1" fill="#a5a2ed" d="M1498.5 562.5a414 414 0 0 0 28 5.5 470 470 0 0 1-17 4 379 379 0 0 0-19 13.5c-.33-.333-.67-.667-1-1q8.01-9.495 9-22"/><path style="opacity:.992" fill="#a1a1ed" d="M1929.5 612.5a197.2 197.2 0 0 1-37.5-24 51 51 0 0 0-6.5 5 725 725 0 0 1-32-16.5 181 181 0 0 0-18-5c7.84-4.751 15.5-9.751 23-15 1.54-1.187 3.21-1.52 5-1 26.41 20.252 55.74 34.585 88 43a420 420 0 0 1-22 13.5"/><path style="opacity:.956" fill="#a0a0ed" d="M3135.5 563.5a318 318 0 0 1 17.5 13 191 191 0 0 0 11 15c.49 1.293.66 2.627.5 4h-19a42 42 0 0 1-4.5-6 361 361 0 0 1-5.5-26"/><path style="opacity:1" fill="#ffbf24" d="M332.5 562.5q8.787-.483 17 1a36.2 36.2 0 0 1-7 4q-7.71-1.482-16-1 2.47-2.74 6-4"/><path style="opacity:1" fill="#ffa521" d="M411.5 565.5h11q1.76 1.52 2 4-5.313-.469-10 1-2.085-2.099-3-5"/><path style="opacity:1" fill="#ff9724" d="M326.5 566.5q8.29-.482 16 1l-8 5q-5.697-1.475-12-1a803 803 0 0 0 4-5"/><path style="opacity:1" fill="#f86826" d="M424.5 569.5q3.23 3.44 5 8h-11a36 36 0 0 1-4-7q4.687-1.469 10-1"/><path style="opacity:1" fill="#f55d2f" d="M322.5 571.5q6.303-.475 12 1a25.4 25.4 0 0 0-5 7q-4.18-1.465-9-1 .356 1.937-1 3 .297-5.389 3-10"/><path style="opacity:1" fill="#ee2c39" d="M418.5 577.5h11a36.2 36.2 0 0 1 4 7q-5.193 1.473-11 1z"/><path style="opacity:1" fill="#ee213c" d="M329.5 579.5v7q-5.218 2.235-10-1v-4q1.356-1.063 1-3 4.82-.465 9 1"/><path style="opacity:1" fill="#27689b" d="M2982.5 585.5c-6.28 5.039-8.95 11.705-8 20-.43 7.72 1.91 14.387 7 20-.99-.172-1.66.162-2 1h-2c-5.45.392-9.28-1.942-11.5-7-3.62-10.17-3.28-20.17 1-30 1.17-1.167 2.33-2.333 3.5-3.5q5.985-.749 12-.5"/><path style="opacity:1" fill="#57aced" d="M2982.5 585.5c31.67-.167 63.34 0 95 .5 1.52 2.552 1.19 4.718-1 6.5-29.67-.167-59.34 0-89 .5-1.82 1.8-2.98 3.966-3.5 6.5-.81 4.189-.65 8.189.5 12q.075 3.899 3 6.5c29.66.5 59.33.667 89 .5 2.02 1.919 2.36 4.086 1 6.5q-48 .75-96 .5c-5.09-5.613-7.43-12.28-7-20-.95-8.295 1.72-14.961 8-20"/><path style="opacity:1" fill="#f31258" d="M319.5 585.5q4.782 3.235 10 1 1.556 2.145 2 5-4.687 1.469-10 1a21.2 21.2 0 0 1-2-7"/><path style="opacity:1" fill="#f21056" d="M433.5 584.5a35.7 35.7 0 0 1 4 7q-5.193 1.473-11 1a36.2 36.2 0 0 0-4-7q5.807.473 11-1"/><path style="opacity:1" fill="#9bacb7" d="M3076.5 592.5a18.25 18.25 0 0 1 2 8c-30.34-.167-60.67 0-91 .5q-3.9 4.476-3 10.5c-1.15-3.811-1.31-7.811-.5-12 .52-2.534 1.68-4.7 3.5-6.5 29.66-.5 59.33-.667 89-.5"/><path style="opacity:1" fill="#05ebec" d="M892.5 741.5a6466 6466 0 0 1-129 9q3.056-63.861 52-104.5 86.246-66.686 193-44c4.95 1.72 9.11 4.554 12.5 8.5q1.005 5 0 10a2246 2246 0 0 1-12 61c-2.2 6.87-6.87 10.87-14 12q-34.822-12.23-69.5.5-31.533 13.318-33 47.5"/><path style="opacity:1" fill="#9ea6ed" d="M1704.5 584.5c5.69 4.517 12.03 8.017 19 10.5a1052 1052 0 0 1 31 8c-8.87 11.53-17.71 23.03-26.5 34.5a2945 2945 0 0 0-18-45 55.4 55.4 0 0 1-5.5-8"/><path style="opacity:1" fill="#a0a7ed" d="M2808.5 595.5q46.305 11.48 93 1a97 97 0 0 0 2 24 2773 2773 0 0 0-42-8.5 803 803 0 0 0-50-2 64.8 64.8 0 0 1-3-14.5"/><path style="opacity:1" fill="#ef1471" d="M437.5 591.5q2.147 1.92 2 5v5h-9q-.784-5.067-4-9 5.807.473 11-1"/><path style="opacity:1" fill="#cbd5dd" d="M3078.5 600.5c.4 6.171-.27 12.171-2 18-29.67.167-59.34 0-89-.5q-2.925-2.601-3-6.5-.9-6.024 3-10.5c30.33-.5 60.66-.667 91-.5"/><path style="opacity:1" fill="#eb1d7f" d="M331.5 591.5q5.085 7.1 9 15-4.256 2.853-10 2a94 94 0 0 1-9-16q5.313.469 10-1"/><path style="opacity:1" fill="#e4238a" d="M439.5 596.5q1.866 6.803 0 14-5.744.853-10-2a52 52 0 0 0 1-7h9z"/><path style="opacity:1" fill="#07ebec" d="M1697.5 725.5c-45.25 1.88-90.58.88-136-3a4050 4050 0 0 1-32.5-78c-2.27-10.41 1.89-16.576 12.5-18.5a7635 7635 0 0 1 93-19.5c7.97.731 14.14 4.397 18.5 11a7481 7481 0 0 1 44.5 108"/><path style="opacity:.97" fill="#9ca6ed" d="M3145.5 595.5h19c2.38 8.69 4.72 17.523 7 26.5a64 64 0 0 0 4 6.5h-20c-1.95-11.471-5.28-22.471-10-33"/><path style="opacity:1" fill="#ac3491" d="M340.5 606.5a49.7 49.7 0 0 1 6 10h-11q-3.23-3.44-5-8 5.744.853 10-2"/><path style="opacity:1" fill="#a33691" d="M429.5 608.5q4.256 2.853 10 2a36.2 36.2 0 0 1-4 7q-7.295.479-14-1 4.5-3.5 8-8"/><path style="opacity:1" fill="#04ebec" d="M738.5 752.5a10874 10874 0 0 1-163 5v-11q1.28-4.527 6-5.5 17.495.6 35 1 6.018-1.274 6-7.5-7.82-24.71-34-27.5-34.886-.612-48.5 31.5a60.4 60.4 0 0 0-4.5 18 195.3 195.3 0 0 1-53-6.5 460 460 0 0 0-16.5-1.5 575 575 0 0 1-43.5 1q4.935-73.15 67-111.5 52.986-27.642 112-17 51.061 6.803 93 36 45.692 36.643 44 95.5"/><path style="opacity:1" fill="#78358f" d="M335.5 616.5h11a19 19 0 0 1 3 5h-11q-2.085-2.099-3-5"/><path style="opacity:1" fill="#66378f" d="M421.5 616.5q6.705 1.479 14 1a44.4 44.4 0 0 1-10 8q-8.715-1.485-18-1 6.5-4.754 14-8"/><path style="opacity:1" fill="#4b328e" d="M338.5 621.5h11l2 4q-4.256 2.853-10 2-2.287-2.574-3-6"/><path style="opacity:1" fill="#f4900e" d="M2977.5 626.5h34c-4.87 3.908-7.2 9.075-7 15.5-.61 7.142 1.73 12.975 7 17.5h-33q-10.395-9.027-7.5-23c1.43-3.874 3.6-7.207 6.5-10"/><path style="opacity:1" fill="#feac33" d="M3011.5 626.5q40.5-.25 81 .5c1.36 2.414 1.02 4.581-1 6.5q-37.5-.25-75 .5-3.975 4.991-3 11.5c.5 2.655 1.83 4.822 4 6.5 24.66.5 49.33.667 74 .5 3.2 4.516 1.87 6.849-4 7h-76c-5.27-4.525-7.61-10.358-7-17.5-.2-6.425 2.13-11.592 7-15.5"/><path style="opacity:.981" fill="#98abed" d="M3155.5 628.5h20q3.375 3.224 4.5 8c2.15 8.613 3.99 17.28 5.5 26h-31a535 535 0 0 0 1-34"/><path style="opacity:1" fill="#343c95" d="M407.5 624.5q9.285-.485 18 1l-20 11q-9.285.485-18-1z"/><path style="opacity:1" fill="#04ebec" d="M2580.5 758.5a813 813 0 0 1-50 12.5 692 692 0 0 1-78 2.5v-9q.915-13.027 1.5-26c-7-8.923-16.16-14.423-27.5-16.5-34.09-1.945-54.42 13.889-61 47.5a765 765 0 0 1-84-8.5 616 616 0 0 0-38-2.5v-6q18.69-96.443 114-120.5c39.78-6.489 78.11-1.656 115 14.5 5.85-3.522 12.19-4.689 19-3.5l94 13c11.05 2.056 15.22 8.556 12.5 19.5a5606 5606 0 0 0-17.5 83"/><path style="opacity:1" fill="#06ebec" d="M1895.5 730.5c-53.17-.554-105.83-2.554-158-6q35.805-45.841 72-91.5c5.13-2.973 10.47-3.306 16-1 27.33 14.667 54.67 29.333 82 44 5.45 2.444 9.11 6.444 11 12-6 15.174-13.67 29.341-23 42.5"/><path style="opacity:1" fill="#05ebec" d="M2222.5 747.5v11c-27.34.167-54.67 0-82-.5a2209 2209 0 0 0-51-6c-1.82-.2-3.15-1.034-4-2.5 4.73-.849 9.39-2.015 14-3.5 3.94-4.827 3.78-9.66-.5-14.5-13.72-13.144-29.56-16.311-47.5-9.5-9.43 4.93-17.09 11.764-23 20.5a495 495 0 0 1-54-7.5 466 466 0 0 1-54-3.5c-1.83-.085-3.17-.752-4-2 10.97-32.475 31.31-57.308 61-74.5 44.97-22.833 92.3-29.5 142-20 62.04 12.209 96.38 49.709 103 112.5"/><path style="opacity:1" fill="#29459c" d="M351.5 625.5q3.477 5.947 7 12-5.193 1.473-11 1l-6-11q5.744.853 10-2"/><path style="opacity:1" fill="#9cacb6" d="M3091.5 633.5c1.55 2.413 2.22 5.079 2 8-25.67-.167-51.34 0-77 .5a29.5 29.5 0 0 0-3 3.5q-.975-6.509 3-11.5 37.5-.75 75-.5"/><path style="opacity:1" fill="#1869b5" d="M387.5 635.5q8.715 1.485 18 1-4.767 4.137-11 6-8.787.483-17-1z"/><path style="opacity:1" fill="#cdd5d9" d="M3093.5 641.5c.26 3.872-.41 7.539-2 11-24.67.167-49.34 0-74-.5-2.17-1.678-3.5-3.845-4-6.5a29.5 29.5 0 0 1 3-3.5c25.66-.5 51.33-.667 77-.5"/><path style="opacity:1" fill="#147bc1" d="M358.5 637.5q8.035 9.189 19 4 8.213 1.483 17 1-.71 2.11-3 2h-40l-4-6q5.807.473 11-1"/><path style="opacity:1" fill="#1496d3" d="M351.5 644.5h40q-12.97 11.742-30 7.5-5.908-2.687-10-7.5"/><path style="opacity:1" fill="#563889" d="M2978.5 659.5h2q5.715 1.236 12 1.5c-5.19 6.906-7.52 14.739-7 23.5a56.3 56.3 0 0 0 2.5 18c.84 3.657 2.67 6.657 5.5 9q-9.015.249-18-.5c-2.88-1.251-4.71-3.417-5.5-6.5-2.47-10.517-3.14-21.183-2-32q1.26-9.99 10.5-13"/><path style="opacity:1" fill="#9367c9" d="M2980.5 659.5h107q3.825 3.693 0 7c-29.34-.167-58.67 0-88 .5q-4.275 4.299-4.5 10.5-1.41 10.875 1.5 21-.165 3.604 3 5.5c29.33.5 58.66.667 88 .5 2.19 1.782 2.52 3.948 1 6.5-31.66.5-63.33.667-95 .5-2.83-2.343-4.66-5.343-5.5-9a56.3 56.3 0 0 1-2.5-18c-.52-8.761 1.81-16.594 7-23.5q-6.285-.264-12-1.5"/><path style="opacity:1" fill="#9ab5ee" d="M1468.5 654.5c4.94 16.595 11.11 32.928 18.5 49q1.005 1.5 0 3c-9.17-13.667-18.33-27.333-27.5-41a71.2 71.2 0 0 0 9-11"/><path style="opacity:.986" fill="#92b2ed" d="M3154.5 662.5h32v1q-1.995 5.5 0 11v3q-2.91 5.746 0 11v1q-1.935 4.713-3 10c-11.05.643-21.72-.024-32-2-.17-9.006 0-18.006.5-27 .84-2.702 1.67-5.368 2.5-8"/><path style="opacity:1" fill="#9aa8b7" d="M3087.5 666.5c.33 1.333.67 2.667 1 4v4c-29.34-.333-58.67 0-88 1-1.85 2.702-3.01 5.702-3.5 9a98 98 0 0 0-.5 14q-2.91-10.125-1.5-21 .225-6.201 4.5-10.5c29.33-.5 58.66-.667 88-.5"/><path style="opacity:1" fill="#4dfdfd" d="M1113.5 667.5a126 126 0 0 1 19 9.5 717 717 0 0 0 25 7c24.54 4.615 48.87 9.948 73 16 4.35.415 8.68.249 13-.5v-13q2.4 32.755 4.5 66a859 859 0 0 1 51.5-34q1.065 1.356 3 1c-.17 1.322.16 2.489 1 3.5 6.46 3.46 13.13 6.46 20 9q10.455 1.372 21 1.5c19.6-2.15 39.27-3.65 59-4.5a133.5 133.5 0 0 0 18-4c1.26-.417 1.92-1.25 2-2.5a371 371 0 0 1 20.5 31c1.87 6.511.04 11.678-5.5 15.5a2125 2125 0 0 0-78 39c34.46 13.22 65.79 31.554 94 55q11.43 9.921 19.5 22.5c1.31 5.704-.02 10.704-4 15a2588 2588 0 0 0-41 55c-6.56 9.305-14.73 11.138-24.5 5.5a5150 5150 0 0 0-118-68c-5.85-2.517-9.52-6.851-11-13a18.1 18.1 0 0 1 2.5-6.5q20.085-21.264 37.5-43a1257 1257 0 0 1-60 30c-.33 2.667-.67 5.333-1 8 1.98 26.978 3.15 53.978 3.5 81a36 36 0 0 1-3.5 4.5 52.8 52.8 0 0 1-13 2 9044 9044 0 0 1-104 5q-5.16-1.658-7.5-6.5z"/><path style="opacity:1" fill="#0aebec" d="M1423.5 722.5c-.08 1.25-.74 2.083-2 2.5a133.5 133.5 0 0 1-18 4c-19.73.85-39.4 2.35-59 4.5q-10.545-.128-21-1.5c-6.87-2.54-13.54-5.54-20-9-.84-1.011-1.17-2.178-1-3.5q-1.935.356-3-1 31.185-21.86 66-38.5c6.96-3.549 14.3-5.216 22-5a28.4 28.4 0 0 1 7.5 4.5 1785 1785 0 0 1 28.5 43"/><path style="opacity:1" fill="#cbd5dc" d="M3088.5 670.5c.67 4.655 1 9.488 1 14.5a72 72 0 0 1-2 19.5c-29.34.167-58.67 0-88-.5q-3.165-1.896-3-5.5a98 98 0 0 1 .5-14c.49-3.298 1.65-6.298 3.5-9 29.33-1 58.66-1.333 88-1z"/><path style="opacity:1" fill="#4efdfd" d="M64.5 508.5v172q20.025 7.254 40 14.5a389 389 0 0 1 61 16 502 502 0 0 1 37 8 4080 4080 0 0 1 141 25 3662 3662 0 0 0 43 3.5 120.3 120.3 0 0 1 5.5 26q-1.371 31.403 9 61 11.214 21.218 31 35 7.797 9.972-2.5 17.5a2080 2080 0 0 0-49 37q-7.15 5.324-16 6.5-107.24-25.522-102.5-136-8.323-60.571-69.5-61 .738 92.125-1.5 184a15.8 15.8 0 0 1-5.5 3.5q-57.5 1-115 0-4.842-2.344-6.5-7.5-1.25-202.75.5-405"/><path style="opacity:.982" fill="#8db8ed" d="M3151.5 697.5c10.28 1.976 20.95 2.643 32 2-2.12 6.377-2.46 12.877-1 19.5.01 5.63-.65 11.13-2 16.5h-34v-3q1.305-10.196 4.5-20a233 233 0 0 1 .5-15"/><path style="opacity:1" fill="#4dfdfd" d="M2968.5 738.5c6.69 8.714 11.86 18.381 15.5 29a241 241 0 0 1 9 33c7.19 28.516 24.35 48.349 51.5 59.5 5.58 4.739 6.42 10.239 2.5 16.5a1759 1759 0 0 1-47.5 52.5q-11.13 6.355-24 4c-39.53-3.331-70.36-21.165-92.5-53.5-2.67-5.333-5.33-10.667-8-16a1913 1913 0 0 1-14-48c-14.4-34.787-40.23-48.454-77.5-41a21765 21765 0 0 0 33.5 165c5.58 13.346 1.41 21.179-12.5 23.5-29.34 6-58.67 12-88 18a82 82 0 0 1-16 2q-5.115-1.616-7.5-6.5a22324 22324 0 0 1-48.5-237 262 262 0 0 0 36-11.5c18.44-12.193 38.77-17.359 61-15.5 18.69.724 37.35 2.224 56 4.5q23.7 5.065 48 7.5c17.58 4.377 35.25 8.544 53 12.5a999 999 0 0 0 70 1.5"/><path style="opacity:1" fill="#fefefe" d="M2452.5 764.5c-2.13 17.989-2.46 36.156-1 54.5-.65 2.504-2.32 3.837-5 4-22.91 7.209-44.25 4.209-64-9-13.04-11.949-18.71-26.782-17-44.5 6.58-33.611 26.91-49.445 61-47.5 11.34 2.077 20.5 7.577 27.5 16.5q-.585 12.973-1.5 26"/><path style="opacity:1" fill="#4dfdfd" d="M1561.5 722.5c45.42 3.88 90.75 4.88 136 3 4.65 10.266 9.32 20.599 14 31a584 584 0 0 0 26-32c52.17 3.446 104.83 5.446 158 6a1154 1154 0 0 1-88.5 117 3577 3577 0 0 1-168.5 180.5c-7.13 4.68-14.8 5.68-23 3a6228 6228 0 0 1-82-35c-7.68-6.52-7.85-13.353-.5-20.5 29.71-36.259 59.55-72.425 89.5-108.5a5530 5530 0 0 1-61-144.5"/><path style="opacity:1" fill="#4efdfd" d="M1916.5 729.5c.83 1.248 2.17 1.915 4 2a466 466 0 0 0 54 3.5 495 495 0 0 0 54 7.5c-13.22 41.404-.55 72.238 38 92.5 20.88 8.153 42.55 12.153 65 12 6.92 2.551 10.08 7.384 9.5 14.5a502 502 0 0 1-26 54c-3.9 5.368-9.07 8.868-15.5 10.5q-60.57 2.607-114-26-88.665-53.599-73.5-156.5 1.35-7.464 4.5-14"/><path style="opacity:.989" fill="#86beed" d="M3146.5 732.5v3h34c.88 1.637 1.55 3.47 2 5.5a506 506 0 0 0-6 26.5q-30.255.495-60-1a395 395 0 0 1 16.5-12q7.965-10.459 13.5-22"/><path style="opacity:1" fill="#4dfdfd" d="M892.5 741.5q4.409 58.666 63 56.5 29.204-3.607 52-22a205.6 205.6 0 0 0 29-30c7.76-4.139 14.6-2.972 20.5 3.5a743 743 0 0 0 31 34c5.52 6.527 6.86 13.861 4 22-29.38 43.014-69.21 71.847-119.5 86.5q-80.311 22.526-151-21-60.062-44.885-58-120.5 64.545-3.855 129-9m-357 15q-1.88 37.981 27 62.5 25.974 19.482 58 26 13.268 4.791 10.5 18.5a350 350 0 0 1-40.5 48.5q-11.803 7.026-25 3-63.463-15.836-107.5-63.5-37.258-44.019-35.5-102a575 575 0 0 0 43.5-1 460 460 0 0 1 16.5 1.5 195.3 195.3 0 0 0 53 6.5m1687-9q4.83 25.6-10.5 47c-11.95 11.224-26.12 18.057-42.5 20.5a444.3 444.3 0 0 1-89 6 17.9 17.9 0 0 1-5.5-4.5q-10.605-28.813-15-59c1.17-1.167 2.33-2.333 3.5-3.5a126.3 126.3 0 0 1 22-4.5c.85 1.466 2.18 2.3 4 2.5q25.53 2.703 51 6c27.33.5 54.66.667 82 .5z"/><path style="opacity:1" fill="#4efdfd" d="M575.5 746.5v11a10874 10874 0 0 0 163-5 158 158 0 0 1-4.5 35q-8.723 30.224-39.5 36.5-57.085 3.19-112-13-6.684-5.031-6.5-13.5-2.17-25.733-.5-51"/><path style="opacity:1" fill="#4dfdfd" d="M2243.5 752.5v6c12.69.441 25.35 1.275 38 2.5q41.7 6.562 84 8.5c-1.71 17.718 3.96 32.551 17 44.5 19.75 13.209 41.09 16.209 64 9 2.68-.163 4.35-1.496 5-4-1.46-18.344-1.13-36.511 1-54.5v9q39.105.949 78-2.5a813 813 0 0 0 50-12.5 292 292 0 0 0-2.5 58c1.31 18.163 10.15 30.997 26.5 38.5q2.7 2.391 3 6a1031 1031 0 0 1-40.5 66.5c-3.76 4.632-8.6 7.298-14.5 8-26.11-5.472-48.95-17.138-68.5-35-58.67 23.37-115.51 19.536-170.5-11.5-35.96-22.091-59.13-53.591-69.5-94.5-3.04-14.117-3.21-28.117-.5-42"/><path style="opacity:1" fill="#82c4ed" d="M1527.5 802.5q-18 2-36 0a69.6 69.6 0 0 0 8.5-15q6.27-18.61 6-38c7.66 17.49 14.83 35.157 21.5 53"/><path style="opacity:.991" fill="#80c3ed" d="M3116.5 766.5q29.745 1.495 60 1a262 262 0 0 1-11.5 18 613 613 0 0 1-18.5 14.5c-21.82 6.647-44.15 9.481-67 8.5.36.683.7 1.35 1 2a284 284 0 0 0-23.5-15 143 143 0 0 1-8.5-21c23.17.916 45.83-1.751 68-8"/><path style="opacity:.979" fill="#7ac8ed" d="M1491.5 802.5q18 2 36 0c2.46 3.944 4.13 8.277 5 13a863 863 0 0 0-3.5 10q-5.58 7.32-10.5 15-13.515-17.265-31.5-30 .57-4.845 4.5-8"/><path style="opacity:.976" fill="#75d0ed" d="M1525.5 850.5a183 183 0 0 1 17 15c-2.2 4.38-5.03 8.38-8.5 12-1.15-9.614-3.98-18.614-8.5-27"/><path style="opacity:1" fill="#69d3ed" d="M765.5 905.5h-89a123.5 123.5 0 0 0 11-18 1080 1080 0 0 0 49.5-13q2.566-.091 4 2a146.3 146.3 0 0 0 24.5 29"/><path style="opacity:1" fill="#6ad3ed" d="M1896.5 905.5h-58c10.67-12.339 21.34-24.672 32-37a378 378 0 0 0 26 37"/><path style="opacity:.997" fill="#6bd3ed" d="M2232.5 902.5c-1.41.473-2.07 1.473-2 3h-41q7.5-17.771 12-36.5c1.72-.346 3.38-.846 5-1.5 8.66 11.661 17.33 23.328 26 35"/><path style="opacity:.985" fill="#6ad2ed" d="M3105.5 839.5c6.25 4.073 12.08 8.74 17.5 14a236 236 0 0 0 12 17q3.63 15.782 7.5 31.5a80 80 0 0 0-2 9.5h-43c3.86-5.055 6.69-10.722 8.5-17a1432 1432 0 0 1 5.5-25.5q-3.09-14.75-6-29.5"/><path style="opacity:.981" fill="#62d6ed" d="M676.5 905.5h89q1.5.5 2 2a317 317 0 0 1-48 12.5 282 282 0 0 0-9 13.5h-55q10.505-14.013 21-28"/><path style="opacity:.991" fill="#61d6ed" d="M1838.5 905.5h58v1l-24 27h-58a479 479 0 0 1 24-28"/><path style="opacity:.988" fill="#5ed8ed" d="M2189.5 905.5h41c-3.13 16.589-8.8 32.256-17 47h-50a322.3 322.3 0 0 0 26-47"/><path style="opacity:.989" fill="#5dd8ed" d="M3097.5 911.5h43a428 428 0 0 0-5.5 22 414 414 0 0 1-13.5 19h-59a1004 1004 0 0 0 35-41"/><path style="opacity:.991" fill="#57dbed" d="M655.5 933.5h55a325 325 0 0 1-33 41h-81a545 545 0 0 1 16-4.5 139 139 0 0 0 23-15 620 620 0 0 1 20-21.5"/><path style="opacity:.992" fill="#59dbed" d="M771.5 910.5a1303 1303 0 0 0 35 23.5q34.2 17.052 72 23 33.828 5.816 68 2a726 726 0 0 0 57-13q33.045-10.148 61.5-29.5c.9 16.465 2.73 32.798 5.5 49a161 161 0 0 1-23 9h-195q-39.912-17.64-70.5-49a95.4 95.4 0 0 1-10.5-15"/><path style="opacity:.992" fill="#57dbed" d="M1814.5 933.5h58a523 523 0 0 1-36 41h-60c12.69-13.693 25.36-27.359 38-41"/><path style="opacity:.988" fill="#51deed" d="M596.5 974.5h81a170 170 0 0 1-10 12.5 168.5 168.5 0 0 1-25 17c-10 2.33-20 4.67-30 7-42.598-3.48-81.932-16.644-118-39.5a1001 1001 0 0 0-35 25h-147a319 319 0 0 1-33-25 42.6 42.6 0 0 1-3.5 8 352 352 0 0 1-13.5 17h-208q-10.387-9.88-16-23a16.6 16.6 0 0 0 4 2.5l28 7q57 1 114 0l30-7a257 257 0 0 0 21.5-16.5l10-14a92 92 0 0 0 3-9 239.5 239.5 0 0 0 34.5 27.5q35.284 20.93 76 27 23.791-1.197 46-10 29.766-21.771 59.5-43.5 50.54 32.769 110.5 41z"/><path style="opacity:.959" fill="#4edded" d="M852.5 974.5h195q-8.475 4.244-18 6.5a549 549 0 0 1-64 13q-29.807 2.256-59-4a1059 1059 0 0 1-44-11q-5.341-1.848-10-4.5"/><path style="opacity:.99" fill="#51dded" d="M1918.5 928.5a1088 1088 0 0 1 34 23.5c22.67 13.335 47 22.335 73 27q35.37 9.672 72 9c11.71-2.844 23.38-5.844 35-9a353 353 0 0 0 21-14 97 97 0 0 0 10-12.5h50c-7.2 16.417-16.86 31.084-29 44h-180a91.5 91.5 0 0 1-20-9.5q-30.345-18.827-55.5-44.5a220 220 0 0 0-10.5-14"/><path style="opacity:.993" fill="#51deed" d="M2249.5 918.5a731 731 0 0 0 43 29.5 269 269 0 0 0 35 15c13.63 3.491 27.3 6.825 41 10 34.2 7.062 68.03 5.562 101.5-4.5a305 305 0 0 0 39.5 18.5 1490 1490 0 0 1 37 9.5h-187q-31.155-8.456-57-27.5c-20.8-13.637-38.47-30.471-53-50.5"/><path style="opacity:.995" fill="#51deed" d="M3062.5 952.5h59q-19.545 22.038-39 44h-171q-1.95-.924-3 0h-44c3.31-4.831 6.48-9.831 9.5-15a109.3 109.3 0 0 1 5-20c8.96 7.232 18.79 13.065 29.5 17.5q37.5 11.709 76.5 16.5a310 310 0 0 0 39.5-9.5c6.67-4.667 13.33-9.333 20-14a514 514 0 0 1 18-19.5"/><path style="opacity:.986" fill="#47e0ec" d="M2004.5 996.5h180a135.7 135.7 0 0 1-22 16.5c-14.85 4.67-30.02 7.51-45.5 8.5-13.96-.28-27.8-1.78-41.5-4.5-15.41-3.35-30.74-7.02-46-11-8.71-2.51-17.04-5.67-25-9.5"/><path style="opacity:.986" fill="#4bdfec" d="M2638.5 1006.5h-129a36.4 36.4 0 0 1-8.5-5c-30.98 9.64-62.48 11.81-94.5 6.5-15.9-3.39-31.57-7.23-47-11.5h187c2.64.763 5.31.93 8 .5 9.67-2.333 19.33-4.667 29-7a147.3 147.3 0 0 0 25.5-16.5c5.33-7.333 10.67-14.667 16-22q6.96 27.358 13.5 55"/><path style="opacity:.979" fill="#46e0ec" d="M54.5 996.5h208a145 145 0 0 1-19 13.5c-9.667 2.33-19.333 4.67-29 7-18.5.17-37 .33-55.5.5q-30.311.21-60.5-1.5a826 826 0 0 0-25-6 145 145 0 0 1-19-13.5"/><path style="opacity:.977" fill="#46e0ec" d="M312.5 996.5h147a216 216 0 0 1-28 20.5 494 494 0 0 1-37 8.5c-22.448-3.53-44.114-9.69-65-18.5a108 108 0 0 1-17-10.5"/><path style="opacity:.994" fill="#4adfec" d="M1776.5 974.5h60a1013 1013 0 0 1-36 40h-61c12.33-13.33 24.67-26.667 37-40"/><path style="opacity:.987" fill="#47e2ec" d="M1481.5 1030.5h-107q-15.795-8.775-31.5-18a397 397 0 0 1-14.5 18h-213q-7.485-7.95-12-18 4.08 2.955 9 4.5a577 577 0 0 0 23 5c37.03-.3 74.03-1.63 111-4q18.27-3.57 36-9c4.67-3.33 9.33-6.67 14-10a566 566 0 0 1 16.5-19.5c22.57 12.7 45.07 25.53 67.5 38.5 12.73 4.18 25.73 6.51 39 7 9.71-2.18 19.37-4.51 29-7l20.5-14.5c2.04 5.16 3.7 10.49 5 16 3 3.35 5.5 7.02 7.5 11"/><path style="opacity:.948" fill="#43e1ec" d="M2509.5 1006.5h129v1c-7.13 5.4-14.46 10.57-22 15.5a342 342 0 0 1-34 7.5 303.7 303.7 0 0 1-55-14.5c-6.39-2.59-12.39-5.76-18-9.5"/><path style="opacity:.944" fill="#45e1ec" d="M2911.5 996.5h171c-8.73 10.05-19.06 18.22-31 24.5a186 186 0 0 1-38.5 7.5c-20.51-1.9-40.68-5.74-60.5-11.5-15.39-3.72-29.06-10.55-41-20.5"/><path style="opacity:.99" fill="#3ae3ec" d="M1115.5 1030.5h213c-5.91 4.97-12.25 9.47-19 13.5-9.63 2.49-19.29 4.82-29 7-37.98 2.53-75.98 4.2-114 5-9.7-2.18-19.37-4.51-29-7-5.49-4.25-11.16-8.25-17-12-2.29-1.78-3.96-3.94-5-6.5"/><path style="opacity:.987" fill="#3ae4ec" d="M1374.5 1030.5h107a71.6 71.6 0 0 0 11 12c-4.94 3.15-9.94 6.31-15 9.5a396 396 0 0 1-33 7.5c-12.15-2.2-24.15-5.04-36-8.5-11.5-6.7-22.84-13.53-34-20.5"/><path style="opacity:.99" fill="#3fe3ec" d="M1739.5 1014.5h61c-10.34 10.71-20.68 21.38-31 32h-62c10.33-11 21-21.67 32-32"/><path style="opacity:.992" fill="#40e3ec" d="M2864.5 996.5h44c-1.15 9.26-3.98 17.93-8.5 26a381 381 0 0 1-11.5 14.5c-4.55 3.39-9.21 6.55-14 9.5h-201c-3.08-3.15-5.41-6.82-7-11 1.76.57 3.42 1.41 5 2.5 8.41 1.68 16.74 3.68 25 6q6 1.005 12 0a5817 5817 0 0 0 132-28q13.545-7.995 24-19.5"/><path style="opacity:.984" fill="#33e5ec" d="M2673.5 1046.5h201c-1.25 1.64-2.92 2.8-5 3.5a3315 3315 0 0 1-136 28.5 267 267 0 0 1-35-8.5c-10.45-5.61-18.78-13.45-25-23.5"/><path style="opacity:.988" fill="#2ce7ec" d="M1707.5 1046.5h62a869 869 0 0 1-49 50h-157q-31.515-8.37-52.5-33c-3.48-4.31-6.32-8.97-8.5-14 29.07 12.97 58.4 25.47 88 37.5q17.01 4.815 34.5 7.5c13.11-2.15 25.94-5.32 38.5-9.5 16.69-10.52 31.35-23.35 44-38.5"/><path style="opacity:.972" fill="#14e9ec" d="M1563.5 1096.5h157a124.6 124.6 0 0 1-27 22.5c-11.36 3.5-22.69 6.66-34 9.5h-8c-10.84-2.96-21.84-5.79-33-8.5a1795 1795 0 0 1-55-23.5"/></svg>
