<svg xmlns="http://www.w3.org/2000/svg" width="32" height="32" viewBox="0 0 24 24"><!-- Icon from Majesticons by Gerrit Halfmann - https://github.com/halfmage/majesticons/blob/main/LICENSE --><path fill="currentColor" fill-rule="evenodd" d="M5 2a3 3 0 0 0-3 3v14a3 3 0 0 0 3 3h9v-5a3 3 0 0 1 3-3h5V5a3 3 0 0 0-3-3zm12.293 19.121a3 3 0 0 1-1.293.762V17a1 1 0 0 1 1-1h4.883a3 3 0 0 1-.762 1.293zM7 6a1 1 0 0 0 0 2h10a1 1 0 1 0 0-2zm0 4a1 1 0 1 0 0 2h10a1 1 0 1 0 0-2zm0 4a1 1 0 1 0 0 2h4a1 1 0 1 0 0-2z" clip-rule="evenodd"/></svg>