<?xml version="1.0" encoding="UTF-8"?>
<svg id="Layer_1" xmlns="http://www.w3.org/2000/svg" version="1.1" viewBox="0 0 20.53 18">
  <!-- Generator: Adobe Illustrator 30.1.0, SVG Export Plug-In . SVG Version: 2.1.1 Build 136)  -->
  <path d="M.99,18c-.18,0-.35-.05-.5-.14-.15-.09-.27-.21-.35-.36C.06,17.35.01,17.19,0,17.01,0,16.84.04,16.66.14,16.5L9.39.5c.1-.17.23-.29.39-.38S10.1,0,10.27,0s.33.04.49.12.29.21.39.38l9.25,16c.1.17.15.34.14.51s-.05.34-.14.49-.2.27-.35.36-.32.14-.5.14H.99ZM10.27,15c.3,0,.55-.11.75-.31s.31-.45.31-.75-.11-.55-.31-.75-.45-.31-.75-.31-.55.11-.75.31-.31.45-.31.75.11.55.31.75.45.31.75.31M10.27,11.83c.3,0,.55-.13.75-.37.2-.24.31-.55.31-.91v-3.81c0-.36-.11-.67-.31-.91s-.45-.37-.75-.37-.55.12-.75.37c-.2.24-.31.55-.31.91v3.81c0,.36.11.67.31.91s.45.37.75.36"/>
</svg>