<?xml version="1.0" encoding="UTF-8"?>
<svg id="Layer_1" xmlns="http://www.w3.org/2000/svg" version="1.1" viewBox="0 0 20.53 18">
  <!-- Generator: Adobe Illustrator 29.5.1, SVG Export Plug-In . SVG Version: 2.1.0 Build 141)  -->
  <path d="M.99,18c-.18,0-.35-.05-.5-.14-.15-.09-.27-.21-.35-.36-.08-.15-.13-.31-.14-.49,0-.17.04-.35.14-.51L9.39.5c.1-.17.23-.29.39-.38s.32-.12.49-.12.33.04.49.12.29.21.39.38l9.25,16c.1.17.15.34.14.51s-.05.34-.14.49-.2.27-.35.36c-.15.09-.32.14-.5.14H.99ZM10.26,15c.28,0,.52-.1.71-.29.19-.19.29-.43.29-.71s-.1-.52-.29-.71c-.19-.19-.43-.29-.71-.29s-.52.1-.71.29c-.19.19-.29.43-.29.71s.1.52.29.71c.19.19.43.29.71.29M10.26,12c.28,0,.52-.12.71-.35.19-.23.29-.52.29-.86v-3.61c0-.34-.1-.63-.29-.86-.19-.23-.43-.35-.71-.35s-.52.11-.71.35c-.19.23-.29.52-.29.86v3.61c0,.34.1.63.29.86.19.23.43.35.71.34"/>
</svg>