<?xml version="1.0" encoding="UTF-8"?>
<!DOCTYPE svg PUBLIC "-//W3C//DTD SVG 1.1//EN" "http://www.w3.org/Graphics/SVG/1.1/DTD/svg11.dtd">
<svg xmlns="http://www.w3.org/2000/svg" version="1.1" width="3187px" height="1129px" style="shape-rendering:geometricPrecision; text-rendering:geometricPrecision; image-rendering:optimizeQuality; fill-rule:evenodd; clip-rule:evenodd" xmlns:xlink="http://www.w3.org/1999/xlink">
<g><path style="opacity:0.998" fill="#fefefe" d="M 523.5,50.5 C 529.144,58.3267 534.644,66.3267 540,74.5C 542.561,84.5786 544.728,94.7452 546.5,105C 544.925,111.797 543.592,118.63 542.5,125.5C 553.558,126.778 564.558,128.445 575.5,130.5C 591.346,133.545 607.012,137.378 622.5,142C 627.991,146.246 633.658,150.246 639.5,154C 644.811,160.172 649.978,166.339 655,172.5C 698.217,155.323 743.051,147.156 789.5,148C 814.996,150.957 839.996,156.29 864.5,164C 878.953,170.055 892.286,177.888 904.5,187.5C 926.693,164.83 952.359,146.997 981.5,134C 1012.11,123.848 1043.44,117.181 1075.5,114C 1112.59,112.549 1148.59,118.216 1183.5,131C 1193.7,135.016 1203.2,140.183 1212,146.5C 1218.19,140.315 1225.03,134.815 1232.5,130C 1239.61,127.931 1246.77,126.098 1254,124.5C 1261.94,113.899 1271.77,105.399 1283.5,99C 1293.33,96.5004 1303.16,94.0004 1313,91.5C 1322.15,93.7448 1331.31,95.9115 1340.5,98C 1354.37,104.533 1365.03,114.533 1372.5,128C 1382.62,134.468 1391.79,141.968 1400,150.5C 1406.13,151.496 1412.3,152.162 1418.5,152.5C 1458.83,147.466 1498.49,150.633 1537.5,162C 1550.31,164.828 1562.81,168.661 1575,173.5C 1604.51,169.387 1634.01,169.553 1663.5,174C 1689.06,178.639 1714.06,185.306 1738.5,194C 1768.9,208.275 1795.4,227.775 1818,252.5C 1841.19,225.484 1869.69,206.317 1903.5,195C 1917.8,191.509 1932.13,188.176 1946.5,185C 1967.5,181.687 1988.5,181.687 2009.5,185C 2037.31,189.909 2064.47,197.076 2091,206.5C 2093.67,195.833 2096.33,185.167 2099,174.5C 2104.26,164.984 2110.26,155.984 2117,147.5C 2125.22,140.946 2133.72,134.78 2142.5,129C 2154.04,125.531 2165.71,122.531 2177.5,120C 2202.17,119.333 2226.83,119.333 2251.5,120C 2263.29,122.531 2274.96,125.531 2286.5,129C 2296.37,135.44 2305.71,142.607 2314.5,150.5C 2318.62,145.212 2322.95,140.045 2327.5,135C 2333.34,131.246 2339.01,127.246 2344.5,123C 2356.4,119.62 2368.4,116.62 2380.5,114C 2410.16,114.31 2439.83,114.31 2469.5,114C 2486.47,85.3657 2510.47,65.0324 2541.5,53C 2558.75,48.1457 2576.25,44.6457 2594,42.5C 2616.45,45.1221 2638.28,50.2888 2659.5,58C 2675.81,67.2351 2690.31,78.7351 2703,92.5C 2706.51,97.5291 2710.01,102.529 2713.5,107.5C 2718.97,115.442 2723.14,124.109 2726,133.5C 2729.91,147.661 2732.75,161.994 2734.5,176.5C 2732.87,191.906 2729.87,207.072 2725.5,222C 2725.83,222.5 2726.17,223 2726.5,223.5C 2738.46,215.854 2751.12,209.854 2764.5,205.5C 2786.76,198.914 2809.43,194.247 2832.5,191.5C 2833.07,187.232 2832.4,183.066 2830.5,179C 2830.55,172.979 2830.72,166.479 2831,159.5C 2833.53,147.699 2836.53,136.032 2840,124.5C 2844.85,117.468 2850.19,110.802 2856,104.5C 2857,100.5 2858,96.5 2859,92.5C 2862.33,87.8333 2865.67,83.1667 2869,78.5C 2880.81,69.1281 2892.97,60.2947 2905.5,52C 2913.8,49.8425 2922.13,47.8425 2930.5,46C 2934.52,45.3909 2938.52,45.5576 2942.5,46.5C 2952.8,44.0391 2963.14,41.7058 2973.5,39.5C 3015,43.7305 3046.67,63.3972 3068.5,98.5C 3071.74,103.976 3075.24,109.309 3079,114.5C 3081.86,120.081 3084.53,125.748 3087,131.5C 3088.83,139.667 3090.67,147.833 3092.5,156C 3090.89,163.528 3089.22,171.028 3087.5,178.5C 3084.84,184.806 3081.34,190.806 3077,196.5C 3070.03,202.392 3063.2,208.392 3056.5,214.5C 3064.67,219.417 3072.67,224.584 3080.5,230C 3084.31,234.478 3087.97,238.978 3091.5,243.5C 3093.9,246.571 3095.9,249.905 3097.5,253.5C 3099.39,263.671 3101.39,273.838 3103.5,284C 3102.75,291.229 3101.75,298.396 3100.5,305.5C 3098.8,314.092 3097.47,322.758 3096.5,331.5C 3093.83,342.884 3092.16,354.55 3091.5,366.5C 3090.07,374.387 3089.41,382.387 3089.5,390.5C 3088.18,399.009 3088.18,407.675 3089.5,416.5C 3096.52,420.857 3102.52,426.191 3107.5,432.5C 3109.99,436.138 3112.49,439.805 3115,443.5C 3118.63,454.631 3120.96,465.964 3122,477.5C 3120.99,483.218 3119.82,488.885 3118.5,494.5C 3117.67,497.372 3116.84,500.372 3116,503.5C 3112.24,510.411 3108.74,517.411 3105.5,524.5C 3103.58,525.665 3102.75,527.332 3103,529.5C 3108.25,532.876 3113.42,536.376 3118.5,540C 3123.97,546.478 3129.3,552.978 3134.5,559.5C 3134.43,560.959 3134.77,562.292 3135.5,563.5C 3137.01,572.206 3138.84,580.873 3141,589.5C 3142.36,591.684 3143.86,593.684 3145.5,595.5C 3150.22,606.029 3153.55,617.029 3155.5,628.5C 3155.53,639.869 3155.19,651.202 3154.5,662.5C 3153.67,665.132 3152.84,667.798 3152,670.5C 3151.5,679.494 3151.33,688.494 3151.5,697.5C 3151.18,702.316 3151.01,707.316 3151,712.5C 3148.87,719.036 3147.37,725.703 3146.5,732.5C 3142.81,740.194 3138.31,747.528 3133,754.5C 3127.34,758.399 3121.84,762.399 3116.5,766.5C 3094.33,772.749 3071.67,775.416 3048.5,774.5C 3050.77,781.717 3053.61,788.717 3057,795.5C 3065.11,800.134 3072.94,805.134 3080.5,810.5C 3091.33,817.995 3099.66,827.662 3105.5,839.5C 3107.44,849.334 3109.44,859.167 3111.5,869C 3109.59,877.472 3107.76,885.972 3106,894.5C 3104.19,900.778 3101.36,906.445 3097.5,911.5C 3086.24,925.436 3074.57,939.102 3062.5,952.5C 3056.37,958.804 3050.37,965.304 3044.5,972C 3037.83,976.667 3031.17,981.333 3024.5,986C 3011.52,990.037 2998.35,993.204 2985,995.5C 2959,992.306 2933.5,986.806 2908.5,979C 2897.79,974.565 2887.96,968.732 2879,961.5C 2876.72,967.949 2875.05,974.616 2874,981.5C 2870.98,986.669 2867.81,991.669 2864.5,996.5C 2857.53,1004.17 2849.53,1010.67 2840.5,1016C 2796.61,1025.84 2752.61,1035.18 2708.5,1044C 2704.5,1044.67 2700.5,1044.67 2696.5,1044C 2688.24,1041.68 2679.91,1039.68 2671.5,1038C 2669.92,1036.91 2668.26,1036.07 2666.5,1035.5C 2654.81,1028.47 2645.47,1019.14 2638.5,1007.5C 2638.5,1007.17 2638.5,1006.83 2638.5,1006.5C 2634.14,988.072 2629.64,969.739 2625,951.5C 2619.67,958.833 2614.33,966.167 2609,973.5C 2601.06,979.884 2592.56,985.384 2583.5,990C 2573.83,992.333 2564.17,994.667 2554.5,997C 2551.81,997.43 2549.14,997.263 2546.5,996.5C 2534.33,993.206 2521.99,990.039 2509.5,987C 2495.84,981.75 2482.67,975.584 2470,968.5C 2436.53,978.562 2402.7,980.062 2368.5,973C 2354.8,969.825 2341.13,966.491 2327.5,963C 2315.52,958.844 2303.85,953.844 2292.5,948C 2277.76,938.641 2263.43,928.808 2249.5,918.5C 2243.78,913.111 2238.11,907.778 2232.5,902.5C 2223.83,890.828 2215.16,879.161 2206.5,867.5C 2204.88,868.154 2203.22,868.654 2201.5,869C 2198.5,881.486 2194.5,893.652 2189.5,905.5C 2182.13,921.904 2173.47,937.571 2163.5,952.5C 2160.54,956.91 2157.2,961.077 2153.5,965C 2146.67,969.915 2139.67,974.581 2132.5,979C 2120.88,982.156 2109.21,985.156 2097.5,988C 2073.08,988.448 2049.08,985.448 2025.5,979C 1999.5,974.335 1975.17,965.335 1952.5,952C 1941.27,943.921 1929.94,936.088 1918.5,928.5C 1910.83,921.5 1903.5,914.167 1896.5,906.5C 1896.5,906.167 1896.5,905.833 1896.5,905.5C 1887.09,893.684 1878.43,881.35 1870.5,868.5C 1859.84,880.828 1849.17,893.161 1838.5,905.5C 1830.15,914.514 1822.15,923.847 1814.5,933.5C 1801.86,947.141 1789.19,960.807 1776.5,974.5C 1764.17,987.833 1751.83,1001.17 1739.5,1014.5C 1728.5,1024.83 1717.83,1035.5 1707.5,1046.5C 1694.85,1061.65 1680.19,1074.48 1663.5,1085C 1650.94,1089.18 1638.11,1092.35 1625,1094.5C 1613.34,1092.71 1601.84,1090.21 1590.5,1087C 1560.9,1074.97 1531.57,1062.47 1502.5,1049.5C 1499.17,1047.17 1495.83,1044.83 1492.5,1042.5C 1488.38,1038.92 1484.71,1034.92 1481.5,1030.5C 1479.5,1026.52 1477,1022.85 1474,1019.5C 1472.7,1013.99 1471.04,1008.66 1469,1003.5C 1462.17,1008.33 1455.33,1013.17 1448.5,1018C 1438.87,1020.49 1429.21,1022.82 1419.5,1025C 1406.23,1024.51 1393.23,1022.18 1380.5,1018C 1358.07,1005.03 1335.57,992.2 1313,979.5C 1307.41,985.809 1301.91,992.309 1296.5,999C 1291.83,1002.33 1287.17,1005.67 1282.5,1009C 1270.68,1012.62 1258.68,1015.62 1246.5,1018C 1209.53,1020.37 1172.53,1021.7 1135.5,1022C 1127.79,1020.49 1120.13,1018.82 1112.5,1017C 1109.22,1015.97 1106.22,1014.47 1103.5,1012.5C 1099.07,1009.92 1094.73,1007.08 1090.5,1004C 1085.55,997.924 1080.71,991.757 1076,985.5C 1073.23,979.095 1071.4,972.428 1070.5,965.5C 1067.73,949.298 1065.9,932.965 1065,916.5C 1046.03,929.401 1025.53,939.235 1003.5,946C 984.676,951.098 965.676,955.432 946.5,959C 923.719,961.544 901.052,960.877 878.5,957C 853.3,953.034 829.3,945.368 806.5,934C 794.679,926.337 783.013,918.504 771.5,910.5C 770.167,909.5 768.833,908.5 767.5,907.5C 767.167,906.5 766.5,905.833 765.5,905.5C 756.101,896.929 747.934,887.263 741,876.5C 740.044,875.106 738.711,874.439 737,874.5C 720.605,879.224 704.105,883.557 687.5,887.5C 684.337,893.829 680.671,899.829 676.5,905.5C 669.503,914.825 662.503,924.158 655.5,933.5C 648.7,940.47 642.033,947.636 635.5,955C 628.346,960.747 620.679,965.747 612.5,970C 607.025,971.452 601.692,972.952 596.5,974.5C 589.476,975.838 582.476,977.172 575.5,978.5C 535.526,973.012 498.693,959.346 465,937.5C 445.177,951.986 425.344,966.486 405.5,981C 390.694,986.869 375.361,990.202 359.5,991C 332.356,986.953 307.022,977.953 283.5,964C 271.18,955.915 259.68,946.749 249,936.5C 248.152,939.56 247.152,942.56 246,945.5C 242.667,950.167 239.333,954.833 236,959.5C 229.118,965.383 221.952,970.883 214.5,976C 204.5,978.333 194.5,980.667 184.5,983C 146.5,983.667 108.5,983.667 70.5,983C 61.1667,980.667 51.8333,978.333 42.5,976C 41.0161,975.338 39.6828,974.504 38.5,973.5C 34.0669,970.916 29.7336,968.082 25.5,965C 19.9724,958.773 14.8058,952.273 10,945.5C 6.86693,935.301 4.20026,924.968 2,914.5C 1.33333,778.833 1.33333,643.167 2,507.5C 4.33333,497.833 6.66667,488.167 9,478.5C 14.1169,471.048 19.6169,463.882 25.5,457C 31.5,453 37.5,449 43.5,445C 59.4638,439.924 75.7972,437.257 92.5,437C 81.3126,429.438 72.8126,419.604 67,407.5C 59.0364,371.219 52.2031,334.719 46.5,298C 48.6295,286.315 51.4628,274.815 55,263.5C 58.3333,258.833 61.6667,254.167 65,249.5C 69.7833,244.448 75.1166,240.115 81,236.5C 83.1996,215.502 87.1996,194.835 93,174.5C 103.958,145.421 120.792,120.254 143.5,99C 160.412,85.431 178.412,73.431 197.5,63C 225.945,51.888 255.278,43.888 285.5,39C 307.315,35.5726 328.649,37.4059 349.5,44.5C 351.603,40.894 354.269,37.7273 357.5,35C 362.678,31.5776 367.678,27.911 372.5,24C 376.8,22.5406 381.133,21.2072 385.5,20C 390.5,16.3333 395.5,12.6667 400.5,9C 410.331,6.50037 420.164,4.00037 430,1.5C 450.902,7.67938 472.069,12.846 493.5,17C 499.757,21.7127 505.924,26.546 512,31.5C 516.53,37.5039 520.364,43.8372 523.5,50.5 Z M 1291.5,412.5 C 1289.68,432.678 1287.68,452.845 1285.5,473C 1285.55,475.557 1285.89,478.057 1286.5,480.5C 1283.09,484.994 1279.92,489.66 1277,494.5C 1270.25,489.544 1263.42,484.71 1256.5,480C 1249.29,478.466 1242.29,476.633 1235.5,474.5C 1238.66,463.546 1241.66,452.546 1244.5,441.5C 1251.73,439.547 1258.4,436.547 1264.5,432.5C 1274.03,426.565 1283.03,419.898 1291.5,412.5 Z M 942.5,494.5 C 948.38,500.782 954.713,506.616 961.5,512C 972.737,520.086 984.07,527.92 995.5,535.5C 965.887,530.785 936.553,532.119 907.5,539.5C 909.167,534.833 910.833,530.167 912.5,525.5C 917.132,515.608 920.799,505.275 923.5,494.5C 924.835,488.829 926.335,483.163 928,477.5C 932.323,483.652 937.157,489.319 942.5,494.5 Z M 598.5,499.5 C 601.876,502.878 605.543,505.878 609.5,508.5C 616.098,519.615 624.431,529.448 634.5,538C 645.433,546.773 656.766,554.939 668.5,562.5C 682.597,572.045 697.93,579.212 714.5,584C 734.949,589.589 755.615,594.089 776.5,597.5C 766.898,605.267 758.065,613.934 750,623.5C 722.93,596.828 690.763,578.994 653.5,570C 637.224,566.078 620.891,562.411 604.5,559C 591.235,557.029 577.902,555.862 564.5,555.5C 569.481,551.364 574.648,547.364 580,543.5C 583.997,537.344 588.164,531.344 592.5,525.5C 594.878,516.945 596.878,508.278 598.5,499.5 Z M 2115.5,564.5 C 2116.94,567.118 2118.61,569.618 2120.5,572C 2117.17,572.172 2113.84,572.005 2110.5,571.5C 2111.81,568.865 2113.48,566.531 2115.5,564.5 Z M 1929.5,612.5 C 1928.69,613.837 1927.52,614.837 1926,615.5C 1912.61,607.937 1899.11,600.604 1885.5,593.5C 1887.48,591.697 1889.65,590.03 1892,588.5C 1903.58,597.907 1916.08,605.907 1929.5,612.5 Z M 1532.5,815.5 C 1538.36,829.062 1544.02,842.729 1549.5,856.5C 1547.88,860.071 1545.55,863.071 1542.5,865.5C 1537.16,860.163 1531.49,855.163 1525.5,850.5C 1523.17,847.167 1520.83,843.833 1518.5,840.5C 1521.78,835.38 1525.28,830.38 1529,825.5C 1530.18,822.058 1531.35,818.725 1532.5,815.5 Z"/></g>
<g><path style="opacity:1" fill="#343a40" d="M 428.5,64.5 C 430.39,64.2965 431.89,64.9632 433,66.5C 436.667,72.5 440.333,78.5 444,84.5C 450.822,79.6773 457.988,75.844 465.5,73C 466.747,74.4936 466.747,75.9936 465.5,77.5C 459.833,81 454.167,84.5 448.5,88C 458.5,90.6667 468.5,93.3333 478.5,96C 484.089,98.4507 485.922,102.617 484,108.5C 479.798,126.308 475.132,143.974 470,161.5C 469.097,162.701 467.931,163.535 466.5,164C 463.167,164.667 459.833,164.667 456.5,164C 435.162,158.665 413.828,153.332 392.5,148C 385.852,145.426 383.352,140.593 385,133.5C 389.051,115.96 393.718,98.6264 399,81.5C 399.903,80.2986 401.069,79.4652 402.5,79C 414.011,79.167 425.177,81.3337 436,85.5C 436.5,85.1667 437,84.8333 437.5,84.5C 434.532,79.0361 431.366,73.7028 428,68.5C 427.421,67.0715 427.588,65.7382 428.5,64.5 Z"/></g>
<g><path style="opacity:1" fill="#54aaec" d="M 412.5,91.5 C 427.692,90.8654 442.359,93.3654 456.5,99C 467.531,102.036 472.031,109.203 470,120.5C 468.645,126.589 466.978,132.589 465,138.5C 462.421,146.54 456.921,150.207 448.5,149.5C 435.837,148.166 423.504,145.333 411.5,141C 403.166,138.341 399.166,132.674 399.5,124C 399.997,115.844 401.83,108.011 405,100.5C 406.642,96.6997 409.142,93.6997 412.5,91.5 Z"/></g>
<g><path style="opacity:1" fill="#d065ef" d="M 300.5,99.5 C 307.175,99.3337 313.842,99.5004 320.5,100C 326.441,102.014 329.941,106.181 331,112.5C 332.89,132.825 334.224,153.158 335,173.5C 333.661,177.837 331.161,181.337 327.5,184C 317.154,186.671 307.154,190.338 297.5,195C 274.762,207.648 265.929,226.814 271,252.5C 271.674,253.578 272.674,254.245 274,254.5C 288.269,251.446 302.603,248.779 317,246.5C 322.657,245.995 326.657,248.329 329,253.5C 333.388,279.881 338.055,306.214 343,332.5C 344.463,338.74 342.297,343.24 336.5,346C 323.421,348.749 310.421,351.749 297.5,355C 313.189,404.735 329.689,454.235 347,503.5C 349.299,510.736 347.132,515.903 340.5,519C 306.895,529.868 273.228,540.535 239.5,551C 229.676,551.857 223.843,547.357 222,537.5C 205.076,485.466 189.243,433.132 174.5,380.5C 161.212,383.048 147.879,385.381 134.5,387.5C 130.042,387.854 126.542,386.188 124,382.5C 119.055,356.888 114.389,331.222 110,305.5C 109.333,301.5 109.333,297.5 110,293.5C 110.785,291.714 111.951,290.214 113.5,289C 125.092,285.578 136.759,282.578 148.5,280C 132.841,205.321 159.175,151.321 227.5,118C 251.05,108.196 275.383,102.03 300.5,99.5 Z"/></g>
<g><path style="opacity:1" fill="#687780" d="M 2969.5,102.5 C 2983.06,103.022 2994.73,108.022 3004.5,117.5C 3015.75,128.696 3023.92,141.696 3029,156.5C 3010.11,149.059 3003.94,154.893 3010.5,174C 3005.91,173.457 3001.24,173.457 2996.5,174C 2992.33,175.5 2989.5,178.333 2988,182.5C 2986.66,187.883 2984.83,193.049 2982.5,198C 2980.23,199.552 2977.73,200.385 2975,200.5C 2969.19,199.501 2963.35,199.335 2957.5,200C 2955.04,201.458 2952.87,203.291 2951,205.5C 2949.56,208.993 2948.06,212.327 2946.5,215.5C 2942.12,210.807 2936.79,208.64 2930.5,209C 2927.62,210.251 2925.79,212.417 2925,215.5C 2924.15,219.469 2923.48,223.469 2923,227.5C 2908.68,213.529 2899.01,196.862 2894,177.5C 2893.33,170.833 2893.33,164.167 2894,157.5C 2894.45,155.481 2895.28,153.648 2896.5,152C 2897.94,151.219 2899.28,151.386 2900.5,152.5C 2906.36,165.036 2915.36,167.869 2927.5,161C 2931.93,158.739 2935.6,155.572 2938.5,151.5C 2935.33,150.766 2932.33,149.6 2929.5,148C 2925.72,144.221 2921.89,140.387 2918,136.5C 2914.94,131.645 2913.77,126.311 2914.5,120.5C 2919.53,120.399 2923.87,122.066 2927.5,125.5C 2929.97,124.197 2932.3,122.697 2934.5,121C 2931.74,116.247 2931.91,111.747 2935,107.5C 2942.96,110.128 2948.29,115.461 2951,123.5C 2951.71,126.595 2952.71,129.595 2954,132.5C 2954.77,135.099 2954.6,137.599 2953.5,140C 2964.18,138.667 2971.35,132.833 2975,122.5C 2975.83,116.151 2973.83,110.818 2969,106.5C 2968.42,105.072 2968.59,103.738 2969.5,102.5 Z"/></g>
<g><path style="opacity:1" fill="#c238ea" d="M 2582.5,105.5 C 2623.15,102.228 2651.98,118.894 2669,155.5C 2678.19,199.284 2662.03,229.451 2620.5,246C 2581.09,257.031 2549.26,246.198 2525,213.5C 2506.16,174.029 2514.66,141.863 2550.5,117C 2560.62,111.241 2571.29,107.408 2582.5,105.5 Z"/></g>
<g><path style="opacity:1" fill="#98a9b4" d="M 2975.5,107.5 C 2975.74,106.903 2976.24,106.57 2977,106.5C 2984.03,108.175 2990.53,111.008 2996.5,115C 3007.24,124.57 3015.9,135.737 3022.5,148.5C 3010.6,147.414 3004.26,152.748 3003.5,164.5C 2999.46,160.625 2995.96,156.292 2993,151.5C 2989.05,141.027 2985.72,130.36 2983,119.5C 2981.06,115.081 2978.56,111.081 2975.5,107.5 Z"/></g>
<g><path style="opacity:0.98" fill="#c147ea" d="M 523.5,50.5 C 538.318,58.1522 548.485,69.8189 554,85.5C 559.701,91.2097 564.701,97.5431 569,104.5C 571.794,113.01 573.961,121.677 575.5,130.5C 564.558,128.445 553.558,126.778 542.5,125.5C 543.592,118.63 544.925,111.797 546.5,105C 544.728,94.7452 542.561,84.5786 540,74.5C 534.644,66.3267 529.144,58.3267 523.5,50.5 Z"/></g>
<g><path style="opacity:1" fill="#97a8b3" d="M 2978.5,120.5 C 2980.61,121.36 2981.78,123.027 2982,125.5C 2983.66,142.147 2990.16,156.48 3001.5,168.5C 2992.11,170.053 2985.94,175.386 2983,184.5C 2978.22,174.595 2975.72,164.095 2975.5,153C 2976.7,142.171 2977.7,131.337 2978.5,120.5 Z"/></g>
<g><path style="opacity:1" fill="#2c3236" d="M 2942.5,128.5 C 2947.01,127.527 2949.17,129.194 2949,133.5C 2945.81,136.411 2943.31,135.911 2941.5,132C 2941.99,130.862 2942.32,129.695 2942.5,128.5 Z"/></g>
<g><path style="opacity:1" fill="#63717b" d="M 391.5,134.5 C 397.488,134.664 398.821,137.164 395.5,142C 389.403,142.147 388.07,139.647 391.5,134.5 Z"/></g>
<g><path style="opacity:1" fill="#2b3135" d="M 2930.5,136.5 C 2935.66,136.107 2937.33,138.273 2935.5,143C 2929.74,144.139 2928.07,141.972 2930.5,136.5 Z"/></g>
<g><path style="opacity:0.975" fill="#bf4eeb" d="M 2713.5,107.5 C 2719.1,111.23 2724.26,115.564 2729,120.5C 2735.33,129.167 2741.67,137.833 2748,146.5C 2753.83,156.81 2757.66,167.81 2759.5,179.5C 2751.5,179.5 2743.5,179.5 2735.5,179.5C 2735.74,178.209 2735.4,177.209 2734.5,176.5C 2732.75,161.994 2729.91,147.661 2726,133.5C 2723.14,124.109 2718.97,115.442 2713.5,107.5 Z"/></g>
<g><path style="opacity:0.978" fill="#bf4eeb" d="M 3068.5,98.5 C 3075.03,102.518 3080.86,107.518 3086,113.5C 3097.26,128.353 3107.26,144.019 3116,160.5C 3117.98,166.733 3119.48,173.067 3120.5,179.5C 3109.32,179.828 3098.32,179.495 3087.5,178.5C 3089.22,171.028 3090.89,163.528 3092.5,156C 3090.67,147.833 3088.83,139.667 3087,131.5C 3084.53,125.748 3081.86,120.081 3079,114.5C 3075.24,109.309 3071.74,103.976 3068.5,98.5 Z"/></g>
<g><path style="opacity:1" fill="#617079" d="M 461.5,151.5 C 466.262,152.092 467.596,154.592 465.5,159C 458.17,159.486 456.837,156.986 461.5,151.5 Z"/></g>
<g><path style="opacity:1" fill="#f48bcb" d="M 1317.5,175.5 C 1312.28,175.186 1307.28,175.853 1302.5,177.5C 1303.4,176.842 1304.4,176.176 1305.5,175.5C 1304.46,173.232 1304.29,170.899 1305,168.5C 1306.88,166.578 1308.38,164.411 1309.5,162C 1308.11,160.699 1307.61,159.199 1308,157.5C 1309,156.167 1310,156.167 1311,157.5C 1311.48,156.552 1311.65,155.552 1311.5,154.5C 1312.83,154.5 1314.17,154.5 1315.5,154.5C 1315.19,156.226 1315.02,157.893 1315,159.5C 1316.36,158.62 1317.86,158.286 1319.5,158.5C 1317.31,162.49 1315.64,166.823 1314.5,171.5C 1315.29,173.041 1316.29,174.374 1317.5,175.5 Z"/></g>
<g><path style="opacity:1" fill="#98a9b4" d="M 2897.5,157.5 C 2904.69,168.521 2914.02,177.354 2925.5,184C 2932.41,190.235 2937.74,197.568 2941.5,206C 2938.66,205.951 2935.82,205.451 2933,204.5C 2925.64,206.197 2921.31,210.864 2920,218.5C 2911.69,208.856 2905.02,198.189 2900,186.5C 2896.67,177.036 2895.84,167.369 2897.5,157.5 Z"/></g>
<g><path style="opacity:1" fill="#97a8b3" d="M 2909.5,166.5 C 2920.69,170.31 2932.03,173.81 2943.5,177C 2952.57,181.54 2960.57,187.54 2967.5,195C 2957.5,193.763 2950.33,197.596 2946,206.5C 2938.97,190.803 2927.8,178.97 2912.5,171C 2910.86,169.871 2909.86,168.371 2909.5,166.5 Z"/></g>
<g><path style="opacity:1" fill="#fe69c4" d="M 1317.5,175.5 C 1339.7,175.547 1353.04,186.381 1357.5,208C 1355.13,219.379 1349.13,228.379 1339.5,235C 1331.44,238.389 1325.28,243.889 1321,251.5C 1318.06,259.613 1320.56,265.279 1328.5,268.5C 1324.32,269.002 1320.82,267.335 1318,263.5C 1314.75,254.49 1316.91,246.99 1324.5,241C 1333.69,234.511 1341.85,227.011 1349,218.5C 1353.44,207.151 1350.61,197.984 1340.5,191C 1323.42,180.866 1306.42,181.199 1289.5,192C 1272.67,203.672 1258,217.505 1245.5,233.5C 1243.6,225.22 1244.43,217.22 1248,209.5C 1249.39,207.86 1250.89,206.36 1252.5,205C 1256.8,203.894 1261.14,202.894 1265.5,202C 1267.04,200.629 1268.37,199.129 1269.5,197.5C 1271.41,195.243 1273.41,192.91 1275.5,190.5C 1281.95,186.437 1288.62,182.604 1295.5,179C 1297.81,178.338 1300.15,177.838 1302.5,177.5C 1307.28,175.853 1312.28,175.186 1317.5,175.5 Z"/></g>
<g><path style="opacity:1" fill="#c237ea" d="M 1065.5,176.5 C 1094.38,174.268 1122.72,177.101 1150.5,185C 1194.64,201.818 1220.47,233.652 1228,280.5C 1230.31,293.598 1229.98,306.598 1227,319.5C 1221.13,333.703 1210.96,343.537 1196.5,349C 1161.73,360.305 1126.06,365.638 1089.5,365C 1087.38,363.878 1085.54,362.378 1084,360.5C 1076.96,342.704 1071.12,324.538 1066.5,306C 1066.99,301.837 1069.32,299.171 1073.5,298C 1084.86,296.262 1095.86,293.262 1106.5,289C 1109.13,285.113 1108.96,281.28 1106,277.5C 1091.03,262.147 1073.86,259.314 1054.5,269C 1033.55,283.51 1025.71,303.343 1031,328.5C 1039.54,357.37 1058.37,375.87 1087.5,384C 1105.95,387.828 1124.62,389.494 1143.5,389C 1151.63,391.788 1154.46,397.288 1152,405.5C 1145.83,422.842 1138.83,439.842 1131,456.5C 1126.68,464.154 1120.18,468.654 1111.5,470C 1066.93,473.248 1025.27,463.914 986.5,442C 928.566,402.935 907.066,349.101 922,280.5C 935.895,239.936 962.395,210.769 1001.5,193C 1022.26,184.755 1043.6,179.255 1065.5,176.5 Z"/></g>
<g><path style="opacity:1" fill="#d065ef" d="M 2377.5,176.5 C 2412.84,176.738 2448.17,177.238 2483.5,178C 2488.74,178.865 2492.91,181.365 2496,185.5C 2490.59,258.133 2485.25,330.8 2480,403.5C 2477.23,430.339 2478.23,457.006 2483,483.5C 2487.1,502.272 2498.27,514.772 2516.5,521C 2517.85,522.574 2518.51,524.407 2518.5,526.5C 2507.68,551.109 2496.18,575.442 2484,599.5C 2480.28,603.275 2475.78,605.275 2470.5,605.5C 2442.13,602.108 2416.96,591.441 2395,573.5C 2341.95,599.96 2287.79,602.46 2232.5,581C 2194.84,565.009 2167.34,538.509 2150,501.5C 2131.24,442.98 2143.4,391.813 2186.5,348C 2210.67,326.379 2239,314.046 2271.5,311C 2300.52,308.369 2328.86,311.535 2356.5,320.5C 2358.81,275.78 2361.97,231.113 2366,186.5C 2368.57,181.645 2372.4,178.311 2377.5,176.5 Z"/></g>
<g><path style="opacity:0.985" fill="#be57eb" d="M 2734.5,176.5 C 2735.4,177.209 2735.74,178.209 2735.5,179.5C 2743.5,179.5 2751.5,179.5 2759.5,179.5C 2761.8,188.045 2763.47,196.712 2764.5,205.5C 2751.12,209.854 2738.46,215.854 2726.5,223.5C 2726.17,223 2725.83,222.5 2725.5,222C 2729.87,207.072 2732.87,191.906 2734.5,176.5 Z"/></g>
<g><path style="opacity:1" fill="#15181b" d="M 2275.5,218.5 C 2272.91,231.926 2264.91,240.426 2251.5,244C 2250.63,249.671 2247.97,254.171 2243.5,257.5C 2230.38,264.106 2220.72,260.773 2214.5,247.5C 2208.09,260.188 2198.42,263.521 2185.5,257.5C 2181.3,254.134 2178.3,249.8 2176.5,244.5C 2164.2,240.211 2156.54,231.877 2153.5,219.5C 2151.71,200.252 2160.04,187.752 2178.5,182C 2201.5,181.333 2224.5,181.333 2247.5,182C 2267.31,186.107 2276.64,198.273 2275.5,218.5 Z"/></g>
<g><path style="opacity:1" fill="#f488ca" d="M 1328.5,268.5 C 1329.04,268.56 1329.38,268.893 1329.5,269.5C 1319.85,271.001 1314.85,266.834 1314.5,257C 1314.6,251.706 1316.1,246.873 1319,242.5C 1325.77,235.133 1333.1,228.466 1341,222.5C 1347.25,211.137 1344.42,202.637 1332.5,197C 1329.31,196.245 1326.15,195.411 1323,194.5C 1319.75,195.532 1318.91,197.532 1320.5,200.5C 1324.82,203 1328.99,205.667 1333,208.5C 1333.45,210.409 1332.61,211.576 1330.5,212C 1331.34,213.011 1331.67,214.178 1331.5,215.5C 1328.73,214.765 1326.06,214.599 1323.5,215C 1322.92,213.092 1322.92,211.425 1323.5,210C 1319.97,208.534 1316.3,207.534 1312.5,207C 1312,206.5 1311.5,206 1311,205.5C 1310.5,201.848 1310.33,198.182 1310.5,194.5C 1302.06,195.224 1294.72,198.391 1288.5,204C 1291.16,208.019 1291.16,212.019 1288.5,216C 1290.04,217.11 1290.7,218.61 1290.5,220.5C 1287.86,220.571 1285.69,221.571 1284,223.5C 1282.35,221.345 1280.51,219.345 1278.5,217.5C 1279.67,215.783 1281.34,215.116 1283.5,215.5C 1283.81,213.076 1283.47,210.743 1282.5,208.5C 1280.52,209.982 1278.68,211.649 1277,213.5C 1275.99,218.594 1274.65,223.594 1273,228.5C 1266.91,233.28 1259.91,235.613 1252,235.5C 1249.46,235.664 1247.29,234.997 1245.5,233.5C 1258,217.505 1272.67,203.672 1289.5,192C 1306.42,181.199 1323.42,180.866 1340.5,191C 1350.61,197.984 1353.44,207.151 1349,218.5C 1341.85,227.011 1333.69,234.511 1324.5,241C 1316.91,246.99 1314.75,254.49 1318,263.5C 1320.82,267.335 1324.32,269.002 1328.5,268.5 Z"/></g>
<g><path style="opacity:1" fill="#f590cd" d="M 1275.5,190.5 C 1273.41,192.91 1271.41,195.243 1269.5,197.5C 1270.95,194.6 1269.95,193.267 1266.5,193.5C 1266.85,195.635 1266.02,196.968 1264,197.5C 1262.64,195.811 1260.98,194.478 1259,193.5C 1259.61,190.967 1260.11,188.3 1260.5,185.5C 1263.95,186.928 1267.61,187.761 1271.5,188C 1273.32,188.2 1274.65,189.034 1275.5,190.5 Z"/></g>
<g><path style="opacity:1" fill="#c237ea" d="M 501.5,186.5 C 527.088,185.75 552.421,187.917 577.5,193C 583.997,194.54 590.33,196.54 596.5,199C 599.466,201.265 600.799,204.265 600.5,208C 593.884,233.291 586.718,258.458 579,283.5C 575.351,291.505 569.184,294.339 560.5,292C 544.004,285.629 527.004,283.795 509.5,286.5C 508.886,345.502 508.053,404.502 507,463.5C 503.724,469.717 498.557,472.051 491.5,470.5C 456.504,469.572 421.504,468.739 386.5,468C 383.417,467.214 381.251,465.381 380,462.5C 379.948,375.164 380.614,287.83 382,200.5C 383.105,197.063 385.272,194.563 388.5,193C 411.494,193.375 434.494,193.375 457.5,193C 472.251,190.393 486.918,188.227 501.5,186.5 Z"/></g>
<g><path style="opacity:1" fill="#f0c14a" d="M 2241.5,190.5 C 2247.13,190.961 2249.63,193.961 2249,199.5C 2246.44,202.349 2243.27,203.183 2239.5,202C 2236.36,197.344 2237.02,193.511 2241.5,190.5 Z"/></g>
<g><path style="opacity:1" fill="#81929e" d="M 2179.5,192.5 C 2182.78,192.216 2185.94,192.549 2189,193.5C 2190.75,199.094 2189.25,203.427 2184.5,206.5C 2182.85,205.352 2181.35,204.019 2180,202.5C 2179.5,199.183 2179.33,195.85 2179.5,192.5 Z"/></g>
<g><path style="opacity:1" fill="#4d9fdd" d="M 2227.5,203.5 C 2234.33,202.174 2237.49,204.84 2237,211.5C 2234.18,214.571 2230.84,215.238 2227,213.5C 2224.87,209.975 2225.04,206.642 2227.5,203.5 Z"/></g>
<g><path style="opacity:1" fill="#d52d42" d="M 2251.5,203.5 C 2258.33,202.174 2261.49,204.84 2261,211.5C 2258.18,214.571 2254.84,215.238 2251,213.5C 2248.99,210.05 2249.16,206.717 2251.5,203.5 Z"/></g>
<g><path style="opacity:1" fill="#80909d" d="M 2168.5,203.5 C 2174.48,202.169 2179.15,204.002 2182.5,209C 2178.47,213.197 2173.47,214.697 2167.5,213.5C 2167.25,210.061 2167.59,206.728 2168.5,203.5 Z"/></g>
<g><path style="opacity:1" fill="#81919e" d="M 2190.5,203.5 C 2193.52,203.335 2196.52,203.502 2199.5,204C 2200.45,207.057 2200.78,210.223 2200.5,213.5C 2197.15,213.665 2193.82,213.498 2190.5,213C 2188.98,211.649 2187.65,210.149 2186.5,208.5C 2187.86,206.814 2189.19,205.148 2190.5,203.5 Z"/></g>
<g><path style="opacity:0.984" fill="#bd59eb" d="M 3087.5,178.5 C 3098.32,179.495 3109.32,179.828 3120.5,179.5C 3121.42,182.684 3122.42,185.85 3123.5,189C 3120.88,198.438 3118.38,207.938 3116,217.5C 3112.67,222.167 3109.33,226.833 3106,231.5C 3101.27,235.742 3096.44,239.742 3091.5,243.5C 3087.97,238.978 3084.31,234.478 3080.5,230C 3072.67,224.584 3064.67,219.417 3056.5,214.5C 3063.2,208.392 3070.03,202.392 3077,196.5C 3081.34,190.806 3084.84,184.806 3087.5,178.5 Z"/></g>
<g><path style="opacity:1" fill="#d065ef" d="M 751.5,210.5 C 781.604,208.009 810.937,211.509 839.5,221C 881.758,240.289 905.925,273.122 912,319.5C 917.152,349.377 905.985,370.21 878.5,382C 844.062,393.295 808.728,398.962 772.5,399C 771,397.5 769.5,396 768,394.5C 760.835,376.673 754.668,358.506 749.5,340C 749.575,336.583 751.241,334.25 754.5,333C 765.544,330.156 776.544,327.156 787.5,324C 792.277,320.427 792.777,316.26 789,311.5C 770.6,294.147 751.1,292.98 730.5,308C 715.033,322.689 709.533,340.522 714,361.5C 721.699,390.2 739.866,408.7 768.5,417C 776.072,418.873 783.738,420.206 791.5,421C 803.167,421.333 814.833,421.667 826.5,422C 834.886,423.954 838.386,429.121 837,437.5C 830.445,456.613 822.778,475.279 814,493.5C 809.108,499.197 802.941,502.697 795.5,504C 759.927,506.283 725.594,500.95 692.5,488C 630.573,460.334 599.74,412.501 600,344.5C 606.53,288.948 635.364,249.782 686.5,227C 707.614,218.805 729.28,213.305 751.5,210.5 Z"/></g>
<g><path style="opacity:1" fill="#262e31" d="M 1249.5,210.5 C 1253.16,210.35 1254.16,211.85 1252.5,215C 1251.21,215.49 1249.87,215.657 1248.5,215.5C 1248.37,213.708 1248.7,212.042 1249.5,210.5 Z"/></g>
<g><path style="opacity:1" fill="#80909d" d="M 2182.5,211.5 C 2189.15,213.319 2191.31,217.652 2189,224.5C 2185.94,225.451 2182.78,225.784 2179.5,225.5C 2179.33,221.818 2179.5,218.152 2180,214.5C 2181.04,213.627 2181.88,212.627 2182.5,211.5 Z"/></g>
<g><path style="opacity:1" fill="#d065ef" d="M 1382.5,211.5 C 1394.52,212.614 1406.52,213.947 1418.5,215.5C 1469.6,208.23 1518.43,215.564 1565,237.5C 1614.74,227.967 1663.24,232.133 1710.5,250C 1763.69,272.181 1794.85,311.681 1804,368.5C 1804.51,386.837 1804.34,405.17 1803.5,423.5C 1801.92,448.946 1810.42,470.28 1829,487.5C 1833.3,492.61 1833.47,497.776 1829.5,503C 1811.66,514.084 1794,525.417 1776.5,537C 1768.93,541.536 1760.93,542.536 1752.5,540C 1704.2,518.283 1679.87,480.783 1679.5,427.5C 1680.87,414.539 1681.87,401.539 1682.5,388.5C 1683.2,374.177 1680.04,360.844 1673,348.5C 1666.98,341.312 1659.48,336.312 1650.5,333.5C 1648.79,340.037 1647.62,346.704 1647,353.5C 1641.65,406.293 1635.65,458.959 1629,511.5C 1626.24,515.089 1622.58,516.756 1618,516.5C 1584.84,512.667 1551.67,508.834 1518.5,505C 1512.95,502.737 1510.28,498.57 1510.5,492.5C 1515,455.877 1519.16,419.21 1523,382.5C 1523.78,370.135 1523.45,357.802 1522,345.5C 1517.88,326.192 1506.05,315.192 1486.5,312.5C 1480.92,368.846 1475.09,425.179 1469,481.5C 1468.83,485.719 1467.83,489.719 1466,493.5C 1463.6,496.616 1460.43,497.949 1456.5,497.5C 1422.81,493.884 1389.14,490.051 1355.5,486C 1350.25,484.006 1347.58,480.172 1347.5,474.5C 1357.18,389.19 1366.68,303.857 1376,218.5C 1377.69,215.642 1379.86,213.309 1382.5,211.5 Z"/></g>
<g><path style="opacity:1" fill="#73ac52" d="M 2239.5,215.5 C 2246.33,214.174 2249.49,216.84 2249,223.5C 2246.18,226.571 2242.84,227.238 2239,225.5C 2236.99,222.05 2237.16,218.717 2239.5,215.5 Z"/></g>
<g><path style="opacity:1" fill="#33393f" d="M 2153.5,219.5 C 2156.54,231.877 2164.2,240.211 2176.5,244.5C 2178.3,249.8 2181.3,254.134 2185.5,257.5C 2183.74,258.072 2182.08,258.906 2180.5,260C 2175.02,265.235 2169.35,270.235 2163.5,275C 2153.12,276.958 2147.79,272.625 2147.5,262C 2149.46,247.815 2151.46,233.649 2153.5,219.5 Z"/></g>
<g><path style="opacity:1" fill="#33393e" d="M 2275.5,218.5 C 2277.49,232.283 2279.16,246.117 2280.5,260C 2282.04,271.798 2277.04,276.798 2265.5,275C 2258.27,268.929 2250.94,263.096 2243.5,257.5C 2247.97,254.171 2250.63,249.671 2251.5,244C 2264.91,240.426 2272.91,231.926 2275.5,218.5 Z"/></g>
<g><path style="opacity:1" fill="#303237" d="M 1264.5,224.5 C 1268.35,224.701 1269.35,226.534 1267.5,230C 1263.54,230.118 1262.54,228.284 1264.5,224.5 Z"/></g>
<g><path style="opacity:1" fill="#65737c" d="M 2191.5,231.5 C 2205.12,230.935 2209.62,236.935 2205,249.5C 2197.5,255.572 2191.16,254.572 2186,246.5C 2184.09,239.97 2185.92,234.97 2191.5,231.5 Z"/></g>
<g><path style="opacity:1" fill="#65737c" d="M 2227.5,231.5 C 2239.49,229.657 2244.66,234.657 2243,246.5C 2237.71,254.398 2231.38,255.398 2224,249.5C 2219.93,242.461 2221.1,236.461 2227.5,231.5 Z"/></g>
<g><path style="opacity:1" fill="#c237ea" d="M 1954.5,245.5 C 2003.23,242.139 2048.9,252.306 2091.5,276C 2137.42,306.369 2155.59,348.869 2146,403.5C 2143.97,414.921 2139.97,425.588 2134,435.5C 2127.17,444.168 2118.33,449.668 2107.5,452C 2067.91,455.15 2029.24,450.483 1991.5,438C 1988.62,436.749 1986.79,434.583 1986,431.5C 1984.37,411.898 1984.04,392.232 1985,372.5C 1987.47,368.85 1990.97,367.184 1995.5,367.5C 2003.13,368.579 2010.8,369.246 2018.5,369.5C 2030.72,371.784 2034.89,367.118 2031,355.5C 2025.62,344.226 2016.79,337.392 2004.5,335C 1975.33,331.141 1956.16,343.308 1947,371.5C 1940.65,403.794 1950.49,429.96 1976.5,450C 1985.02,455.761 1994.02,460.761 2003.5,465C 2013.13,468.489 2022.8,471.823 2032.5,475C 2040.13,480.459 2041.29,486.959 2036,494.5C 2024.92,508.922 2013.08,522.755 2000.5,536C 1992.53,542.158 1983.53,544.158 1973.5,542C 1929.94,530.151 1893.44,507.318 1864,473.5C 1826.7,423.053 1822.03,369.72 1850,313.5C 1874.39,274.883 1909.22,252.217 1954.5,245.5 Z"/></g>
<g><path style="opacity:1" fill="#d065ef" d="M 2824.5,254.5 C 2855.11,252.788 2884.77,257.121 2913.5,267.5C 2919.02,264.287 2925.02,262.954 2931.5,263.5C 2963.52,265.779 2995.52,268.279 3027.5,271C 3039.08,272.586 3043.58,279.086 3041,290.5C 3035.6,319.351 3031.27,348.351 3028,377.5C 3025.45,397.628 3026.12,417.628 3030,437.5C 3033.13,452.631 3041.96,462.798 3056.5,468C 3061.48,472.802 3061.65,477.969 3057,483.5C 3046,503.167 3035,522.833 3024,542.5C 3019.01,549.828 3012.18,552.661 3003.5,551C 2979.64,545.903 2958.31,535.736 2939.5,520.5C 2886.98,544.45 2833.98,545.616 2780.5,524C 2739.61,506.113 2711.44,476.28 2696,434.5C 2683.06,378.657 2697.22,330.823 2738.5,291C 2763.33,269.779 2792,257.612 2824.5,254.5 Z"/></g>
<g><path style="opacity:1" fill="#c237ea" d="M 2669.5,516.5 C 2663.16,516.334 2656.82,516.5 2650.5,517C 2649.26,517.232 2648.26,517.732 2647.5,518.5C 2619.48,519.41 2591.48,520.743 2563.5,522.5C 2556.38,523.857 2551.54,521.191 2549,514.5C 2544.11,432.844 2539.78,351.178 2536,269.5C 2537.67,265.835 2540.5,263.668 2544.5,263C 2582.16,261.212 2619.83,259.879 2657.5,259C 2660.33,260.5 2662.5,262.667 2664,265.5C 2668,346.046 2672.5,426.546 2677.5,507C 2677.03,512.142 2674.37,515.309 2669.5,516.5 Z"/></g>
<g><path style="opacity:0.978" fill="#ba67ec" d="M 3097.5,253.5 C 3117.25,265.268 3128.59,282.601 3131.5,305.5C 3121.17,305.5 3110.83,305.5 3100.5,305.5C 3101.75,298.396 3102.75,291.229 3103.5,284C 3101.39,273.838 3099.39,263.671 3097.5,253.5 Z"/></g>
<g><path style="opacity:0.985" fill="#b76dec" d="M 3100.5,305.5 C 3110.83,305.5 3121.17,305.5 3131.5,305.5C 3132.75,309.399 3133.75,313.399 3134.5,317.5C 3133.28,323.473 3132.28,329.473 3131.5,335.5C 3119.83,335.5 3108.17,335.5 3096.5,335.5C 3096.5,334.167 3096.5,332.833 3096.5,331.5C 3097.47,322.758 3098.8,314.092 3100.5,305.5 Z"/></g>
<g><path style="opacity:0.985" fill="#b674ec" d="M 3096.5,331.5 C 3096.5,332.833 3096.5,334.167 3096.5,335.5C 3108.17,335.5 3119.83,335.5 3131.5,335.5C 3129.56,345.778 3127.89,356.112 3126.5,366.5C 3114.83,366.5 3103.17,366.5 3091.5,366.5C 3092.16,354.55 3093.83,342.884 3096.5,331.5 Z"/></g>
<g><path style="opacity:1" fill="#fefefe" d="M 2858.5,344.5 C 2872.42,343.646 2885.09,347.146 2896.5,355C 2898.38,356.543 2899.88,358.376 2901,360.5C 2900.51,382.822 2900.51,405.156 2901,427.5C 2902.22,433.052 2902.39,438.552 2901.5,444C 2884.9,450.76 2867.9,452.094 2850.5,448C 2821.85,437.32 2810.01,416.82 2815,386.5C 2821.27,363.724 2835.77,349.724 2858.5,344.5 Z"/></g>
<g><path style="opacity:1" fill="#b579ec" d="M 1294.5,395.5 C 1276.4,396.824 1258.4,396.824 1240.5,395.5C 1248.2,389.88 1255.7,383.88 1263,377.5C 1268,370.5 1273,363.5 1278,356.5C 1280.22,352.729 1281.89,348.729 1283,344.5C 1285.11,336.84 1287.11,329.174 1289,321.5C 1292.45,324.831 1296.62,326.498 1301.5,326.5C 1299.53,349.54 1297.2,372.54 1294.5,395.5 Z"/></g>
<g><path style="opacity:0.984" fill="#b47aec" d="M 3091.5,366.5 C 3103.17,366.5 3114.83,366.5 3126.5,366.5C 3124.7,376.424 3123.37,386.424 3122.5,396.5C 3111.5,396.5 3100.5,396.5 3089.5,396.5C 3089.5,394.5 3089.5,392.5 3089.5,390.5C 3089.41,382.387 3090.07,374.387 3091.5,366.5 Z"/></g>
<g><path style="opacity:0.994" fill="#b180ec" d="M 1240.5,395.5 C 1258.4,396.824 1276.4,396.824 1294.5,395.5C 1293.89,400.851 1293.23,406.184 1292.5,411.5C 1291.83,411.5 1291.5,411.833 1291.5,412.5C 1283.03,419.898 1274.03,426.565 1264.5,432.5C 1245.47,433.154 1226.8,432.487 1208.5,430.5C 1210.16,423.174 1211.83,415.84 1213.5,408.5C 1222.95,404.943 1231.95,400.61 1240.5,395.5 Z"/></g>
<g><path style="opacity:0.978" fill="#b280ec" d="M 3089.5,390.5 C 3089.5,392.5 3089.5,394.5 3089.5,396.5C 3100.5,396.5 3111.5,396.5 3122.5,396.5C 3120.73,408.414 3119.73,420.414 3119.5,432.5C 3115.5,432.5 3111.5,432.5 3107.5,432.5C 3102.52,426.191 3096.52,420.857 3089.5,416.5C 3088.18,407.675 3088.18,399.009 3089.5,390.5 Z"/></g>
<g><path style="opacity:1" fill="#fefefe" d="M 2306.5,400.5 C 2321.2,399.016 2334.54,402.516 2346.5,411C 2348.36,412.558 2349.86,414.391 2351,416.5C 2351.32,443.668 2353.49,470.668 2357.5,497.5C 2347.44,501.242 2337.1,504.075 2326.5,506C 2301.62,509.06 2282.45,500.226 2269,479.5C 2258.12,454.399 2262.29,432.232 2281.5,413C 2289.11,407.195 2297.44,403.028 2306.5,400.5 Z"/></g>
<g><path style="opacity:0.987" fill="#ae88ed" d="M 1208.5,430.5 C 1226.8,432.487 1245.47,433.154 1264.5,432.5C 1258.4,436.547 1251.73,439.547 1244.5,441.5C 1241.66,452.546 1238.66,463.546 1235.5,474.5C 1221.03,473.451 1206.37,473.451 1191.5,474.5C 1197.21,459.767 1202.87,445.1 1208.5,430.5 Z"/></g>
<g><path style="opacity:0.985" fill="#ac8ded" d="M 952.5,493.5 C 949.375,494.479 946.042,494.813 942.5,494.5C 937.157,489.319 932.323,483.652 928,477.5C 926.335,483.163 924.835,488.829 923.5,494.5C 909.459,495.149 895.792,494.482 882.5,492.5C 888.786,476.477 893.953,460.143 898,443.5C 905.722,454.228 914.556,464.061 924.5,473C 934.016,479.697 943.349,486.53 952.5,493.5 Z"/></g>
<g><path style="opacity:0.977" fill="#ac8ced" d="M 3107.5,432.5 C 3111.5,432.5 3115.5,432.5 3119.5,432.5C 3119.33,438.176 3119.5,443.843 3120,449.5C 3136.65,460.128 3146.81,475.128 3150.5,494.5C 3139.83,494.5 3129.17,494.5 3118.5,494.5C 3119.82,488.885 3120.99,483.218 3122,477.5C 3120.96,465.964 3118.63,454.631 3115,443.5C 3112.49,439.805 3109.99,436.138 3107.5,432.5 Z"/></g>
<g><path style="opacity:1" fill="#02ebec" d="M 386.5,747.5 C 372.185,746.42 357.852,745.253 343.5,744C 296.694,734.85 249.694,726.517 202.5,719C 190.288,715.873 177.955,713.206 165.5,711C 145.629,704.024 125.296,698.691 104.5,695C 91.1828,690.169 77.8495,685.336 64.5,680.5C 64.5,623.167 64.5,565.833 64.5,508.5C 65.1828,504.98 67.1828,502.48 70.5,501C 109.167,500.333 147.833,500.333 186.5,501C 189.381,502.251 191.214,504.417 192,507.5C 192.5,550.832 192.667,594.165 192.5,637.5C 237.776,633.988 280.442,642.821 320.5,664C 353.505,683.167 375.505,711.001 386.5,747.5 Z"/></g>
<g><path style="opacity:0.99" fill="#a893ed" d="M 598.5,499.5 C 596.878,508.278 594.878,516.945 592.5,525.5C 571.66,525.831 550.993,525.497 530.5,524.5C 535.59,520.443 540.923,516.61 546.5,513C 551.454,506.924 556.287,500.757 561,494.5C 564.458,484 567.292,473.333 569.5,462.5C 578.451,475.408 588.118,487.741 598.5,499.5 Z"/></g>
<g><path style="opacity:0.986" fill="#a893ed" d="M 882.5,492.5 C 895.792,494.482 909.459,495.149 923.5,494.5C 920.799,505.275 917.132,515.608 912.5,525.5C 897.324,525.829 882.324,525.496 867.5,524.5C 873.051,514.067 878.051,503.4 882.5,492.5 Z"/></g>
<g><path style="opacity:0.988" fill="#a893ed" d="M 3118.5,494.5 C 3129.17,494.5 3139.83,494.5 3150.5,494.5C 3151.18,499.059 3152.18,503.559 3153.5,508C 3151.77,513.756 3150.44,519.589 3149.5,525.5C 3134.66,525.829 3119.99,525.496 3105.5,524.5C 3108.74,517.411 3112.24,510.411 3116,503.5C 3116.84,500.372 3117.67,497.372 3118.5,494.5 Z"/></g>
<g><path style="opacity:1" fill="#5eadec" d="M 1353.5,515.5 C 1356.45,515.223 1359.28,515.556 1362,516.5C 1362.67,522.167 1362.67,527.833 1362,533.5C 1361.5,534 1361,534.5 1360.5,535C 1355.11,535.977 1349.78,537.144 1344.5,538.5C 1343.97,559.889 1343.13,581.222 1342,602.5C 1333.34,611.29 1323.51,612.79 1312.5,607C 1303.42,597.224 1304.75,589.224 1316.5,583C 1321.78,581.172 1327.11,581.005 1332.5,582.5C 1332.33,562.164 1332.5,541.831 1333,521.5C 1333.5,521 1334,520.5 1334.5,520C 1341.01,518.67 1347.34,517.17 1353.5,515.5 Z"/></g>
<g><path style="opacity:1" fill="#6a2b7d" d="M 2669.5,516.5 C 2662.33,517.358 2655,518.024 2647.5,518.5C 2648.26,517.732 2649.26,517.232 2650.5,517C 2656.82,516.5 2663.16,516.334 2669.5,516.5 Z"/></g>
<g><path style="opacity:0.993" fill="#a599ed" d="M 530.5,524.5 C 550.993,525.497 571.66,525.831 592.5,525.5C 588.164,531.344 583.997,537.344 580,543.5C 574.648,547.364 569.481,551.364 564.5,555.5C 555.181,556.335 545.847,557.502 536.5,559C 522.817,562.332 509.15,565.332 495.5,568C 488.96,556.418 482.293,544.918 475.5,533.5C 494.286,533.22 512.619,530.22 530.5,524.5 Z"/></g>
<g><path style="opacity:0.977" fill="#a59aed" d="M 609.5,508.5 C 631.97,527.574 657.303,541.74 685.5,551C 700.468,554.716 715.468,558.216 730.5,561.5C 710.007,562.497 689.34,562.831 668.5,562.5C 656.766,554.939 645.433,546.773 634.5,538C 624.431,529.448 616.098,519.615 609.5,508.5 Z"/></g>
<g><path style="opacity:0.993" fill="#a699ed" d="M 867.5,524.5 C 882.324,525.496 897.324,525.829 912.5,525.5C 910.833,530.167 909.167,534.833 907.5,539.5C 881.441,544.908 856.108,552.574 831.5,562.5C 825.31,562.823 819.31,562.49 813.5,561.5C 821.17,560.499 828.503,558.332 835.5,555C 841.221,550.279 847.221,545.946 853.5,542C 858.306,536.188 862.973,530.355 867.5,524.5 Z"/></g>
<g><path style="opacity:0.987" fill="#a797ed" d="M 952.5,493.5 C 964.816,500.824 977.483,507.324 990.5,513C 1010.3,518.912 1030.3,524.078 1050.5,528.5C 1048.09,536.058 1046.09,543.725 1044.5,551.5C 1040.42,548.86 1036.09,546.694 1031.5,545C 1020.02,542.699 1008.68,539.865 997.5,536.5C 997.158,535.662 996.492,535.328 995.5,535.5C 984.07,527.92 972.737,520.086 961.5,512C 954.713,506.616 948.38,500.782 942.5,494.5C 946.042,494.813 949.375,494.479 952.5,493.5 Z"/></g>
<g><path style="opacity:1" fill="#a59ced" d="M 2115.5,564.5 C 2113.48,566.531 2111.81,568.865 2110.5,571.5C 2091.51,569.667 2072.51,569.167 2053.5,570C 2066.78,554.584 2079.44,538.75 2091.5,522.5C 2097.97,537.44 2105.97,551.44 2115.5,564.5 Z"/></g>
<g><path style="opacity:0.976" fill="#a698ed" d="M 3105.5,524.5 C 3119.99,525.496 3134.66,525.829 3149.5,525.5C 3148.19,529.755 3147.02,534.088 3146,538.5C 3142.15,545.527 3138.32,552.527 3134.5,559.5C 3129.3,552.978 3123.97,546.478 3118.5,540C 3113.42,536.376 3108.25,532.876 3103,529.5C 3102.75,527.332 3103.58,525.665 3105.5,524.5 Z"/></g>
<g><path style="opacity:1" fill="#60aeec" d="M 1432.5,530.5 C 1435.17,530.5 1437.83,530.5 1440.5,530.5C 1440.67,536.509 1440.5,542.509 1440,548.5C 1439.5,549 1439,549.5 1438.5,550C 1433.17,551.233 1427.83,552.4 1422.5,553.5C 1421.67,574.159 1421.17,594.825 1421,615.5C 1414.31,624.749 1405.48,627.583 1394.5,624C 1383.1,617.595 1381.77,609.595 1390.5,600C 1396.67,596.475 1403.17,595.642 1410,597.5C 1410.33,577.167 1410.67,556.833 1411,536.5C 1411.5,536 1412,535.5 1412.5,535C 1419.31,533.541 1425.98,532.041 1432.5,530.5 Z"/></g>
<g><path style="opacity:1" fill="#08ebec" d="M 1243.5,686.5 C 1243.5,690.833 1243.5,695.167 1243.5,699.5C 1239.18,700.249 1234.85,700.415 1230.5,700C 1206.37,693.948 1182.04,688.615 1157.5,684C 1149.2,681.839 1140.87,679.506 1132.5,677C 1126.44,673.303 1120.11,670.137 1113.5,667.5C 1111.37,631.011 1109.37,594.511 1107.5,558C 1105.08,549.037 1108.08,543.037 1116.5,540C 1154.15,537.789 1191.81,536.455 1229.5,536C 1232.74,537.981 1234.91,540.814 1236,544.5C 1238.83,591.82 1241.33,639.153 1243.5,686.5 Z"/></g>
<g><path style="opacity:1" fill="#4dad57" d="M 406.5,539.5 C 395.167,539.5 383.833,539.5 372.5,539.5C 383.873,530.172 395.206,530.172 406.5,539.5 Z"/></g>
<g><path style="opacity:1" fill="#7fc254" d="M 372.5,539.5 C 383.833,539.5 395.167,539.5 406.5,539.5C 408.063,540.945 409.396,542.611 410.5,544.5C 406.298,544.183 402.298,544.517 398.5,545.5C 391.879,541.211 385.546,541.544 379.5,546.5C 373.69,545.51 367.69,545.177 361.5,545.5C 364.678,542.742 368.345,540.742 372.5,539.5 Z"/></g>
<g><path style="opacity:1" fill="#fefefe" d="M 398.5,545.5 C 400.916,547.908 402.916,550.574 404.5,553.5C 406.344,557.864 408.677,561.864 411.5,565.5C 412.11,567.434 413.11,569.101 414.5,570.5C 415.584,573.004 416.917,575.337 418.5,577.5C 419.82,580.14 421.153,582.807 422.5,585.5C 424.086,587.67 425.42,590.004 426.5,592.5C 428.644,595.122 429.977,598.122 430.5,601.5C 430.326,603.861 429.993,606.194 429.5,608.5C 427.167,611.5 424.5,614.167 421.5,616.5C 416.5,618.664 411.833,621.331 407.5,624.5C 400.833,628.167 394.167,631.833 387.5,635.5C 384.167,637.5 380.833,639.5 377.5,641.5C 370.19,644.959 363.857,643.626 358.5,637.5C 356.152,633.465 353.818,629.465 351.5,625.5C 350.833,624.167 350.167,622.833 349.5,621.5C 348.752,619.668 347.752,618.001 346.5,616.5C 344.863,612.882 342.863,609.549 340.5,606.5C 337.89,601.233 334.89,596.233 331.5,591.5C 331.204,589.597 330.537,587.93 329.5,586.5C 329.5,584.167 329.5,581.833 329.5,579.5C 330.749,576.91 332.416,574.576 334.5,572.5C 337.167,570.833 339.833,569.167 342.5,567.5C 344.996,566.42 347.33,565.086 349.5,563.5C 353.535,561.152 357.535,558.818 361.5,556.5C 365.167,554.5 368.833,552.5 372.5,550.5C 374.67,548.914 377.004,547.58 379.5,546.5C 385.546,541.544 391.879,541.211 398.5,545.5 Z"/></g>
<g><path style="opacity:1" fill="#b8db4b" d="M 361.5,545.5 C 367.69,545.177 373.69,545.51 379.5,546.5C 377.004,547.58 374.67,548.914 372.5,550.5C 366.69,549.51 360.69,549.177 354.5,549.5C 356.663,547.917 358.996,546.584 361.5,545.5 Z"/></g>
<g><path style="opacity:1" fill="#c8e147" d="M 410.5,544.5 C 412.358,546.883 413.692,549.55 414.5,552.5C 410.958,552.187 407.625,552.521 404.5,553.5C 402.916,550.574 400.916,547.908 398.5,545.5C 402.298,544.517 406.298,544.183 410.5,544.5 Z"/></g>
<g><path style="opacity:1" fill="#62afec" d="M 1389.5,552.5 C 1391.5,552.5 1393.5,552.5 1395.5,552.5C 1395.67,558.842 1395.5,565.175 1395,571.5C 1389.35,573.527 1383.52,574.86 1377.5,575.5C 1377.67,595.503 1377.5,615.503 1377,635.5C 1374.97,642.19 1370.47,646.023 1363.5,647C 1353.54,649.247 1346.04,646.08 1341,637.5C 1340.25,625.41 1346.08,619.077 1358.5,618.5C 1360.56,618.572 1362.56,618.905 1364.5,619.5C 1365.33,599.508 1365.83,579.508 1366,559.5C 1366.83,558.667 1367.67,557.833 1368.5,557C 1375.68,555.699 1382.68,554.199 1389.5,552.5 Z"/></g>
<g><path style="opacity:1" fill="#08ebec" d="M 2968.5,738.5 C 2945.15,738.818 2921.81,738.318 2898.5,737C 2880.75,733.044 2863.08,728.877 2845.5,724.5C 2829.3,722.877 2813.3,720.377 2797.5,717C 2778.85,714.724 2760.19,713.224 2741.5,712.5C 2719.27,710.641 2698.94,715.807 2680.5,728C 2668.77,732.702 2656.77,736.535 2644.5,739.5C 2633.76,686.802 2622.76,634.135 2611.5,581.5C 2612.08,577.174 2614.08,573.674 2617.5,571C 2652.4,563.286 2687.4,555.953 2722.5,549C 2731.08,546.874 2736.58,550.041 2739,558.5C 2747.36,599.142 2755.53,639.808 2763.5,680.5C 2785.81,674.905 2808.48,671.905 2831.5,671.5C 2868.55,671.093 2902.55,680.927 2933.5,701C 2948.16,710.824 2959.83,723.324 2968.5,738.5 Z"/></g>
<g><path style="opacity:1" fill="#eaea3a" d="M 354.5,549.5 C 360.69,549.177 366.69,549.51 372.5,550.5C 368.833,552.5 365.167,554.5 361.5,556.5C 355.167,556.5 348.833,556.5 342.5,556.5C 346.164,553.665 350.164,551.332 354.5,549.5 Z"/></g>
<g><path style="opacity:1" fill="#fcde2e" d="M 414.5,552.5 C 417.905,556.295 420.571,560.628 422.5,565.5C 418.833,565.5 415.167,565.5 411.5,565.5C 408.677,561.864 406.344,557.864 404.5,553.5C 407.625,552.521 410.958,552.187 414.5,552.5 Z"/></g>
<g><path style="opacity:1" fill="#ffde2c" d="M 342.5,556.5 C 348.833,556.5 355.167,556.5 361.5,556.5C 357.535,558.818 353.535,561.152 349.5,563.5C 344.025,562.511 338.358,562.178 332.5,562.5C 335.494,560 338.827,558 342.5,556.5 Z"/></g>
<g><path style="opacity:0.983" fill="#a19fed" d="M 730.5,561.5 C 751.907,566.014 773.573,567.514 795.5,566C 801.462,564.176 807.462,562.676 813.5,561.5C 819.31,562.49 825.31,562.823 831.5,562.5C 813.538,572.151 796.538,583.318 780.5,596C 779.255,596.791 777.922,597.291 776.5,597.5C 755.615,594.089 734.949,589.589 714.5,584C 697.93,579.212 682.597,572.045 668.5,562.5C 689.34,562.831 710.007,562.497 730.5,561.5 Z"/></g>
<g><path style="opacity:1" fill="#a5a2ed" d="M 1498.5,562.5 C 1507.79,564.659 1517.12,566.492 1526.5,568C 1520.85,569.441 1515.18,570.774 1509.5,572C 1503.03,576.306 1496.69,580.806 1490.5,585.5C 1490.17,585.167 1489.83,584.833 1489.5,584.5C 1494.84,578.17 1497.84,570.837 1498.5,562.5 Z"/></g>
<g><path style="opacity:0.992" fill="#a1a1ed" d="M 1929.5,612.5 C 1916.08,605.907 1903.58,597.907 1892,588.5C 1889.65,590.03 1887.48,591.697 1885.5,593.5C 1874.73,588.281 1864.06,582.781 1853.5,577C 1847.56,575.017 1841.56,573.35 1835.5,572C 1843.34,567.249 1851,562.249 1858.5,557C 1860.04,555.813 1861.71,555.48 1863.5,556C 1889.91,576.252 1919.24,590.585 1951.5,599C 1944.26,603.752 1936.93,608.252 1929.5,612.5 Z"/></g>
<g><path style="opacity:0.956" fill="#a0a0ed" d="M 3135.5,563.5 C 3141.46,567.616 3147.29,571.949 3153,576.5C 3156.42,581.678 3160.09,586.678 3164,591.5C 3164.49,592.793 3164.66,594.127 3164.5,595.5C 3158.17,595.5 3151.83,595.5 3145.5,595.5C 3143.86,593.684 3142.36,591.684 3141,589.5C 3138.84,580.873 3137.01,572.206 3135.5,563.5 Z"/></g>
<g><path style="opacity:1" fill="#ffbf24" d="M 332.5,562.5 C 338.358,562.178 344.025,562.511 349.5,563.5C 347.33,565.086 344.996,566.42 342.5,567.5C 337.36,566.512 332.026,566.179 326.5,566.5C 328.147,564.674 330.147,563.34 332.5,562.5 Z"/></g>
<g><path style="opacity:1" fill="#ffa521" d="M 411.5,565.5 C 415.167,565.5 418.833,565.5 422.5,565.5C 423.674,566.514 424.34,567.847 424.5,569.5C 420.958,569.187 417.625,569.521 414.5,570.5C 413.11,569.101 412.11,567.434 411.5,565.5 Z"/></g>
<g><path style="opacity:1" fill="#ff9724" d="M 326.5,566.5 C 332.026,566.179 337.36,566.512 342.5,567.5C 339.833,569.167 337.167,570.833 334.5,572.5C 330.702,571.517 326.702,571.183 322.5,571.5C 323.864,569.809 325.197,568.142 326.5,566.5 Z"/></g>
<g><path style="opacity:1" fill="#f86826" d="M 424.5,569.5 C 426.653,571.794 428.32,574.46 429.5,577.5C 425.833,577.5 422.167,577.5 418.5,577.5C 416.917,575.337 415.584,573.004 414.5,570.5C 417.625,569.521 420.958,569.187 424.5,569.5 Z"/></g>
<g><path style="opacity:1" fill="#f55d2f" d="M 322.5,571.5 C 326.702,571.183 330.702,571.517 334.5,572.5C 332.416,574.576 330.749,576.91 329.5,579.5C 326.713,578.523 323.713,578.19 320.5,578.5C 320.737,579.791 320.404,580.791 319.5,581.5C 319.698,577.908 320.698,574.574 322.5,571.5 Z"/></g>
<g><path style="opacity:1" fill="#ee2c39" d="M 418.5,577.5 C 422.167,577.5 425.833,577.5 429.5,577.5C 431.086,579.67 432.42,582.004 433.5,584.5C 430.038,585.482 426.371,585.815 422.5,585.5C 421.153,582.807 419.82,580.14 418.5,577.5 Z"/></g>
<g><path style="opacity:1" fill="#ee213c" d="M 329.5,579.5 C 329.5,581.833 329.5,584.167 329.5,586.5C 326.021,587.99 322.688,587.657 319.5,585.5C 319.5,584.167 319.5,582.833 319.5,581.5C 320.404,580.791 320.737,579.791 320.5,578.5C 323.713,578.19 326.713,578.523 329.5,579.5 Z"/></g>
<g><path style="opacity:1" fill="#27689b" d="M 2982.5,585.5 C 2976.22,590.539 2973.55,597.205 2974.5,605.5C 2974.07,613.22 2976.41,619.887 2981.5,625.5C 2980.51,625.328 2979.84,625.662 2979.5,626.5C 2978.83,626.5 2978.17,626.5 2977.5,626.5C 2972.05,626.892 2968.22,624.558 2966,619.5C 2962.38,609.33 2962.72,599.33 2967,589.5C 2968.17,588.333 2969.33,587.167 2970.5,586C 2974.49,585.501 2978.49,585.334 2982.5,585.5 Z"/></g>
<g><path style="opacity:1" fill="#57aced" d="M 2982.5,585.5 C 3014.17,585.333 3045.84,585.5 3077.5,586C 3079.02,588.552 3078.69,590.718 3076.5,592.5C 3046.83,592.333 3017.16,592.5 2987.5,593C 2985.68,594.8 2984.52,596.966 2984,599.5C 2983.19,603.689 2983.35,607.689 2984.5,611.5C 2984.55,614.099 2985.55,616.266 2987.5,618C 3017.16,618.5 3046.83,618.667 3076.5,618.5C 3078.52,620.419 3078.86,622.586 3077.5,625C 3045.5,625.5 3013.5,625.667 2981.5,625.5C 2976.41,619.887 2974.07,613.22 2974.5,605.5C 2973.55,597.205 2976.22,590.539 2982.5,585.5 Z"/></g>
<g><path style="opacity:1" fill="#f31258" d="M 319.5,585.5 C 322.688,587.657 326.021,587.99 329.5,586.5C 330.537,587.93 331.204,589.597 331.5,591.5C 328.375,592.479 325.042,592.813 321.5,592.5C 320.434,590.299 319.767,587.965 319.5,585.5 Z"/></g>
<g><path style="opacity:1" fill="#f21056" d="M 433.5,584.5 C 435.071,586.635 436.404,588.968 437.5,591.5C 434.038,592.482 430.371,592.815 426.5,592.5C 425.42,590.004 424.086,587.67 422.5,585.5C 426.371,585.815 430.038,585.482 433.5,584.5 Z"/></g>
<g><path style="opacity:1" fill="#9bacb7" d="M 3076.5,592.5 C 3077.77,594.993 3078.44,597.659 3078.5,600.5C 3048.16,600.333 3017.83,600.5 2987.5,601C 2984.9,603.984 2983.9,607.484 2984.5,611.5C 2983.35,607.689 2983.19,603.689 2984,599.5C 2984.52,596.966 2985.68,594.8 2987.5,593C 3017.16,592.5 3046.83,592.333 3076.5,592.5 Z"/></g>
<g><path style="opacity:1" fill="#05ebec" d="M 892.5,741.5 C 849.53,744.93 806.53,747.93 763.5,750.5C 765.537,707.926 782.871,673.092 815.5,646C 872.997,601.543 937.331,586.876 1008.5,602C 1013.45,603.72 1017.61,606.554 1021,610.5C 1021.67,613.833 1021.67,617.167 1021,620.5C 1017.28,640.896 1013.28,661.229 1009,681.5C 1006.8,688.37 1002.13,692.37 995,693.5C 971.785,685.347 948.619,685.513 925.5,694C 904.478,702.879 893.478,718.712 892.5,741.5 Z"/></g>
<g><path style="opacity:1" fill="#9ea6ed" d="M 1704.5,584.5 C 1710.19,589.017 1716.53,592.517 1723.5,595C 1733.89,597.513 1744.22,600.18 1754.5,603C 1745.63,614.53 1736.79,626.03 1728,637.5C 1722.16,622.542 1716.16,607.542 1710,592.5C 1707.9,589.949 1706.07,587.283 1704.5,584.5 Z"/></g>
<g><path style="opacity:1" fill="#a0a7ed" d="M 2808.5,595.5 C 2839.37,603.153 2870.37,603.487 2901.5,596.5C 2901.17,604.601 2901.84,612.601 2903.5,620.5C 2889.54,617.562 2875.54,614.729 2861.5,612C 2844.86,610.814 2828.19,610.147 2811.5,610C 2809.95,605.302 2808.95,600.469 2808.5,595.5 Z"/></g>
<g><path style="opacity:1" fill="#ef1471" d="M 437.5,591.5 C 438.931,592.78 439.598,594.447 439.5,596.5C 439.5,598.167 439.5,599.833 439.5,601.5C 436.5,601.5 433.5,601.5 430.5,601.5C 429.977,598.122 428.644,595.122 426.5,592.5C 430.371,592.815 434.038,592.482 437.5,591.5 Z"/></g>
<g><path style="opacity:1" fill="#cbd5dd" d="M 3078.5,600.5 C 3078.9,606.671 3078.23,612.671 3076.5,618.5C 3046.83,618.667 3017.16,618.5 2987.5,618C 2985.55,616.266 2984.55,614.099 2984.5,611.5C 2983.9,607.484 2984.9,603.984 2987.5,601C 3017.83,600.5 3048.16,600.333 3078.5,600.5 Z"/></g>
<g><path style="opacity:1" fill="#eb1d7f" d="M 331.5,591.5 C 334.89,596.233 337.89,601.233 340.5,606.5C 337.663,608.402 334.329,609.069 330.5,608.5C 326.981,603.463 323.981,598.13 321.5,592.5C 325.042,592.813 328.375,592.479 331.5,591.5 Z"/></g>
<g><path style="opacity:1" fill="#e4238a" d="M 439.5,596.5 C 440.744,601.035 440.744,605.702 439.5,610.5C 435.671,611.069 432.337,610.402 429.5,608.5C 429.993,606.194 430.326,603.861 430.5,601.5C 433.5,601.5 436.5,601.5 439.5,601.5C 439.5,599.833 439.5,598.167 439.5,596.5 Z"/></g>
<g><path style="opacity:1" fill="#07ebec" d="M 1697.5,725.5 C 1652.25,727.38 1606.92,726.38 1561.5,722.5C 1550.41,696.64 1539.57,670.64 1529,644.5C 1526.73,634.09 1530.89,627.924 1541.5,626C 1572.46,619.307 1603.46,612.807 1634.5,606.5C 1642.47,607.231 1648.64,610.897 1653,617.5C 1668.13,653.418 1682.96,689.418 1697.5,725.5 Z"/></g>
<g><path style="opacity:0.97" fill="#9ca6ed" d="M 3145.5,595.5 C 3151.83,595.5 3158.17,595.5 3164.5,595.5C 3166.88,604.19 3169.22,613.023 3171.5,622C 3172.71,624.262 3174.05,626.429 3175.5,628.5C 3168.83,628.5 3162.17,628.5 3155.5,628.5C 3153.55,617.029 3150.22,606.029 3145.5,595.5 Z"/></g>
<g><path style="opacity:1" fill="#ac3491" d="M 340.5,606.5 C 342.863,609.549 344.863,612.882 346.5,616.5C 342.833,616.5 339.167,616.5 335.5,616.5C 333.347,614.206 331.68,611.54 330.5,608.5C 334.329,609.069 337.663,608.402 340.5,606.5 Z"/></g>
<g><path style="opacity:1" fill="#a33691" d="M 429.5,608.5 C 432.337,610.402 435.671,611.069 439.5,610.5C 438.42,612.996 437.086,615.33 435.5,617.5C 430.637,617.819 425.97,617.486 421.5,616.5C 424.5,614.167 427.167,611.5 429.5,608.5 Z"/></g>
<g><path style="opacity:1" fill="#04ebec" d="M 738.5,752.5 C 684.177,754.574 629.844,756.241 575.5,757.5C 575.5,753.833 575.5,750.167 575.5,746.5C 576.353,743.482 578.353,741.649 581.5,741C 593.163,741.4 604.83,741.733 616.5,742C 620.512,741.151 622.512,738.651 622.5,734.5C 617.286,718.027 605.953,708.86 588.5,707C 565.243,706.592 549.076,717.092 540,738.5C 537.568,744.29 536.068,750.29 535.5,756.5C 517.514,756.757 499.847,754.59 482.5,750C 477.009,749.401 471.509,748.901 466,748.5C 451.514,749.382 437.014,749.716 422.5,749.5C 425.79,700.733 448.123,663.567 489.5,638C 524.824,619.572 562.157,613.906 601.5,621C 635.541,625.535 666.541,637.535 694.5,657C 724.961,681.429 739.628,713.262 738.5,752.5 Z"/></g>
<g><path style="opacity:1" fill="#78358f" d="M 335.5,616.5 C 339.167,616.5 342.833,616.5 346.5,616.5C 347.752,618.001 348.752,619.668 349.5,621.5C 345.833,621.5 342.167,621.5 338.5,621.5C 337.11,620.101 336.11,618.434 335.5,616.5 Z"/></g>
<g><path style="opacity:1" fill="#66378f" d="M 421.5,616.5 C 425.97,617.486 430.637,617.819 435.5,617.5C 432.571,620.636 429.238,623.303 425.5,625.5C 419.69,624.51 413.69,624.177 407.5,624.5C 411.833,621.331 416.5,618.664 421.5,616.5 Z"/></g>
<g><path style="opacity:1" fill="#4b328e" d="M 338.5,621.5 C 342.167,621.5 345.833,621.5 349.5,621.5C 350.167,622.833 350.833,624.167 351.5,625.5C 348.663,627.402 345.329,628.069 341.5,627.5C 339.975,625.784 338.975,623.784 338.5,621.5 Z"/></g>
<g><path style="opacity:1" fill="#f4900e" d="M 2977.5,626.5 C 2978.17,626.5 2978.83,626.5 2979.5,626.5C 2990.17,626.5 3000.83,626.5 3011.5,626.5C 3006.63,630.408 3004.3,635.575 3004.5,642C 3003.89,649.142 3006.23,654.975 3011.5,659.5C 3001.17,659.5 2990.83,659.5 2980.5,659.5C 2979.83,659.5 2979.17,659.5 2978.5,659.5C 2971.57,653.482 2969.07,645.815 2971,636.5C 2972.43,632.626 2974.6,629.293 2977.5,626.5 Z"/></g>
<g><path style="opacity:1" fill="#feac33" d="M 3011.5,626.5 C 3038.5,626.333 3065.5,626.5 3092.5,627C 3093.86,629.414 3093.52,631.581 3091.5,633.5C 3066.5,633.333 3041.5,633.5 3016.5,634C 3013.85,637.327 3012.85,641.161 3013.5,645.5C 3014,648.155 3015.33,650.322 3017.5,652C 3042.16,652.5 3066.83,652.667 3091.5,652.5C 3094.7,657.016 3093.37,659.349 3087.5,659.5C 3062.17,659.5 3036.83,659.5 3011.5,659.5C 3006.23,654.975 3003.89,649.142 3004.5,642C 3004.3,635.575 3006.63,630.408 3011.5,626.5 Z"/></g>
<g><path style="opacity:0.981" fill="#98abed" d="M 3155.5,628.5 C 3162.17,628.5 3168.83,628.5 3175.5,628.5C 3177.75,630.649 3179.25,633.316 3180,636.5C 3182.15,645.113 3183.99,653.78 3185.5,662.5C 3175.17,662.5 3164.83,662.5 3154.5,662.5C 3155.19,651.202 3155.53,639.869 3155.5,628.5 Z"/></g>
<g><path style="opacity:1" fill="#343c95" d="M 407.5,624.5 C 413.69,624.177 419.69,624.51 425.5,625.5C 418.833,629.167 412.167,632.833 405.5,636.5C 399.31,636.823 393.31,636.49 387.5,635.5C 394.167,631.833 400.833,628.167 407.5,624.5 Z"/></g>
<g><path style="opacity:1" fill="#04ebec" d="M 2580.5,758.5 C 2563.94,763.202 2547.27,767.369 2530.5,771C 2504.57,773.299 2478.57,774.133 2452.5,773.5C 2452.5,770.5 2452.5,767.5 2452.5,764.5C 2453.11,755.815 2453.61,747.149 2454,738.5C 2447,729.577 2437.84,724.077 2426.5,722C 2392.41,720.055 2372.08,735.889 2365.5,769.5C 2337.3,768.208 2309.3,765.375 2281.5,761C 2268.85,759.775 2256.19,758.941 2243.5,758.5C 2243.5,756.5 2243.5,754.5 2243.5,752.5C 2255.96,688.205 2293.96,648.038 2357.5,632C 2397.28,625.511 2435.61,630.344 2472.5,646.5C 2478.35,642.978 2484.69,641.811 2491.5,643C 2522.83,647.333 2554.16,651.666 2585.5,656C 2596.55,658.056 2600.72,664.556 2598,675.5C 2591.95,703.173 2586.11,730.84 2580.5,758.5 Z"/></g>
<g><path style="opacity:1" fill="#06ebec" d="M 1895.5,730.5 C 1842.33,729.946 1789.67,727.946 1737.5,724.5C 1761.37,693.939 1785.37,663.439 1809.5,633C 1814.63,630.027 1819.97,629.694 1825.5,632C 1852.83,646.667 1880.17,661.333 1907.5,676C 1912.95,678.444 1916.61,682.444 1918.5,688C 1912.5,703.174 1904.83,717.341 1895.5,730.5 Z"/></g>
<g><path style="opacity:1" fill="#05ebec" d="M 2222.5,747.5 C 2222.5,751.167 2222.5,754.833 2222.5,758.5C 2195.16,758.667 2167.83,758.5 2140.5,758C 2123.52,755.802 2106.52,753.802 2089.5,752C 2087.68,751.8 2086.35,750.966 2085.5,749.5C 2090.23,748.651 2094.89,747.485 2099.5,746C 2103.44,741.173 2103.28,736.34 2099,731.5C 2085.28,718.356 2069.44,715.189 2051.5,722C 2042.07,726.93 2034.41,733.764 2028.5,742.5C 2010.33,740.988 1992.33,738.488 1974.5,735C 1956.43,734.879 1938.43,733.712 1920.5,731.5C 1918.67,731.415 1917.33,730.748 1916.5,729.5C 1927.47,697.025 1947.81,672.192 1977.5,655C 2022.47,632.167 2069.8,625.5 2119.5,635C 2181.54,647.209 2215.88,684.709 2222.5,747.5 Z"/></g>
<g><path style="opacity:1" fill="#29459c" d="M 351.5,625.5 C 353.818,629.465 356.152,633.465 358.5,637.5C 355.038,638.482 351.371,638.815 347.5,638.5C 345.5,634.833 343.5,631.167 341.5,627.5C 345.329,628.069 348.663,627.402 351.5,625.5 Z"/></g>
<g><path style="opacity:1" fill="#9cacb6" d="M 3091.5,633.5 C 3093.05,635.913 3093.72,638.579 3093.5,641.5C 3067.83,641.333 3042.16,641.5 3016.5,642C 3015.36,643.145 3014.36,644.312 3013.5,645.5C 3012.85,641.161 3013.85,637.327 3016.5,634C 3041.5,633.5 3066.5,633.333 3091.5,633.5 Z"/></g>
<g><path style="opacity:1" fill="#1869b5" d="M 387.5,635.5 C 393.31,636.49 399.31,636.823 405.5,636.5C 402.322,639.258 398.655,641.258 394.5,642.5C 388.642,642.822 382.975,642.489 377.5,641.5C 380.833,639.5 384.167,637.5 387.5,635.5 Z"/></g>
<g><path style="opacity:1" fill="#cdd5d9" d="M 3093.5,641.5 C 3093.76,645.372 3093.09,649.039 3091.5,652.5C 3066.83,652.667 3042.16,652.5 3017.5,652C 3015.33,650.322 3014,648.155 3013.5,645.5C 3014.36,644.312 3015.36,643.145 3016.5,642C 3042.16,641.5 3067.83,641.333 3093.5,641.5 Z"/></g>
<g><path style="opacity:1" fill="#147bc1" d="M 358.5,637.5 C 363.857,643.626 370.19,644.959 377.5,641.5C 382.975,642.489 388.642,642.822 394.5,642.5C 394.027,643.906 393.027,644.573 391.5,644.5C 378.167,644.5 364.833,644.5 351.5,644.5C 350.167,642.5 348.833,640.5 347.5,638.5C 351.371,638.815 355.038,638.482 358.5,637.5 Z"/></g>
<g><path style="opacity:1" fill="#1496d3" d="M 351.5,644.5 C 364.833,644.5 378.167,644.5 391.5,644.5C 382.853,652.328 372.853,654.828 361.5,652C 357.561,650.209 354.228,647.709 351.5,644.5 Z"/></g>
<g><path style="opacity:1" fill="#563889" d="M 2978.5,659.5 C 2979.17,659.5 2979.83,659.5 2980.5,659.5C 2984.31,660.324 2988.31,660.824 2992.5,661C 2987.31,667.906 2984.98,675.739 2985.5,684.5C 2985.36,690.636 2986.19,696.636 2988,702.5C 2988.84,706.157 2990.67,709.157 2993.5,711.5C 2987.49,711.666 2981.49,711.499 2975.5,711C 2972.62,709.749 2970.79,707.583 2970,704.5C 2967.53,693.983 2966.86,683.317 2968,672.5C 2968.84,665.84 2972.34,661.507 2978.5,659.5 Z"/></g>
<g><path style="opacity:1" fill="#9367c9" d="M 2980.5,659.5 C 2990.83,659.5 3001.17,659.5 3011.5,659.5C 3036.83,659.5 3062.17,659.5 3087.5,659.5C 3090.05,661.962 3090.05,664.295 3087.5,666.5C 3058.16,666.333 3028.83,666.5 2999.5,667C 2996.65,669.866 2995.15,673.366 2995,677.5C 2994.06,684.75 2994.56,691.75 2996.5,698.5C 2996.39,700.903 2997.39,702.736 2999.5,704C 3028.83,704.5 3058.16,704.667 3087.5,704.5C 3089.69,706.282 3090.02,708.448 3088.5,711C 3056.84,711.5 3025.17,711.667 2993.5,711.5C 2990.67,709.157 2988.84,706.157 2988,702.5C 2986.19,696.636 2985.36,690.636 2985.5,684.5C 2984.98,675.739 2987.31,667.906 2992.5,661C 2988.31,660.824 2984.31,660.324 2980.5,659.5 Z"/></g>
<g><path style="opacity:1" fill="#9ab5ee" d="M 1468.5,654.5 C 1473.44,671.095 1479.61,687.428 1487,703.5C 1487.67,704.5 1487.67,705.5 1487,706.5C 1477.83,692.833 1468.67,679.167 1459.5,665.5C 1462.87,662.129 1465.87,658.463 1468.5,654.5 Z"/></g>
<g><path style="opacity:0.986" fill="#92b2ed" d="M 3154.5,662.5 C 3164.83,662.5 3175.17,662.5 3185.5,662.5C 3185.83,662.5 3186.17,662.5 3186.5,662.5C 3186.5,662.833 3186.5,663.167 3186.5,663.5C 3185.17,667.167 3185.17,670.833 3186.5,674.5C 3186.5,675.5 3186.5,676.5 3186.5,677.5C 3184.56,681.331 3184.56,684.997 3186.5,688.5C 3186.5,688.833 3186.5,689.167 3186.5,689.5C 3185.21,692.642 3184.21,695.975 3183.5,699.5C 3172.45,700.143 3161.78,699.476 3151.5,697.5C 3151.33,688.494 3151.5,679.494 3152,670.5C 3152.84,667.798 3153.67,665.132 3154.5,662.5 Z"/></g>
<g><path style="opacity:1" fill="#9aa8b7" d="M 3087.5,666.5 C 3087.83,667.833 3088.17,669.167 3088.5,670.5C 3088.5,671.833 3088.5,673.167 3088.5,674.5C 3059.16,674.167 3029.83,674.5 3000.5,675.5C 2998.65,678.202 2997.49,681.202 2997,684.5C 2996.5,689.155 2996.33,693.821 2996.5,698.5C 2994.56,691.75 2994.06,684.75 2995,677.5C 2995.15,673.366 2996.65,669.866 2999.5,667C 3028.83,666.5 3058.16,666.333 3087.5,666.5 Z"/></g>
<g><path style="opacity:1" fill="#4dfdfd" d="M 1113.5,667.5 C 1120.11,670.137 1126.44,673.303 1132.5,677C 1140.87,679.506 1149.2,681.839 1157.5,684C 1182.04,688.615 1206.37,693.948 1230.5,700C 1234.85,700.415 1239.18,700.249 1243.5,699.5C 1243.5,695.167 1243.5,690.833 1243.5,686.5C 1245.1,708.337 1246.6,730.337 1248,752.5C 1264.8,740.525 1281.96,729.192 1299.5,718.5C 1300.21,719.404 1301.21,719.737 1302.5,719.5C 1302.33,720.822 1302.66,721.989 1303.5,723C 1309.96,726.46 1316.63,729.46 1323.5,732C 1330.47,732.915 1337.47,733.415 1344.5,733.5C 1364.1,731.35 1383.77,729.85 1403.5,729C 1409.58,728.084 1415.58,726.751 1421.5,725C 1422.76,724.583 1423.42,723.75 1423.5,722.5C 1430.81,732.425 1437.64,742.758 1444,753.5C 1445.87,760.011 1444.04,765.178 1438.5,769C 1412.22,781.473 1386.22,794.473 1360.5,808C 1394.96,821.22 1426.29,839.554 1454.5,863C 1462.12,869.614 1468.62,877.114 1474,885.5C 1475.31,891.204 1473.98,896.204 1470,900.5C 1456.09,918.655 1442.42,936.988 1429,955.5C 1422.44,964.805 1414.27,966.638 1404.5,961C 1365.49,937.828 1326.16,915.161 1286.5,893C 1280.65,890.483 1276.98,886.149 1275.5,880C 1275.91,877.679 1276.74,875.513 1278,873.5C 1291.39,859.324 1303.89,844.99 1315.5,830.5C 1295.78,841.027 1275.78,851.027 1255.5,860.5C 1255.17,863.167 1254.83,865.833 1254.5,868.5C 1256.48,895.478 1257.65,922.478 1258,949.5C 1256.95,951.09 1255.79,952.59 1254.5,954C 1250.28,955.204 1245.95,955.87 1241.5,956C 1206.82,957.867 1172.16,959.534 1137.5,961C 1134.06,959.895 1131.56,957.728 1130,954.5C 1124.5,858.824 1119,763.157 1113.5,667.5 Z"/></g>
<g><path style="opacity:1" fill="#0aebec" d="M 1423.5,722.5 C 1423.42,723.75 1422.76,724.583 1421.5,725C 1415.58,726.751 1409.58,728.084 1403.5,729C 1383.77,729.85 1364.1,731.35 1344.5,733.5C 1337.47,733.415 1330.47,732.915 1323.5,732C 1316.63,729.46 1309.96,726.46 1303.5,723C 1302.66,721.989 1302.33,720.822 1302.5,719.5C 1301.21,719.737 1300.21,719.404 1299.5,718.5C 1320.29,703.927 1342.29,691.094 1365.5,680C 1372.46,676.451 1379.8,674.784 1387.5,675C 1390.25,676.123 1392.75,677.623 1395,679.5C 1404.72,693.715 1414.22,708.049 1423.5,722.5 Z"/></g>
<g><path style="opacity:1" fill="#cbd5dc" d="M 3088.5,670.5 C 3089.17,675.155 3089.5,679.988 3089.5,685C 3089.72,691.638 3089.05,698.138 3087.5,704.5C 3058.16,704.667 3028.83,704.5 2999.5,704C 2997.39,702.736 2996.39,700.903 2996.5,698.5C 2996.33,693.821 2996.5,689.155 2997,684.5C 2997.49,681.202 2998.65,678.202 3000.5,675.5C 3029.83,674.5 3059.16,674.167 3088.5,674.5C 3088.5,673.167 3088.5,671.833 3088.5,670.5 Z"/></g>
<g><path style="opacity:1" fill="#4efdfd" d="M 64.5,508.5 C 64.5,565.833 64.5,623.167 64.5,680.5C 77.8495,685.336 91.1828,690.169 104.5,695C 125.296,698.691 145.629,704.024 165.5,711C 177.955,713.206 190.288,715.873 202.5,719C 249.694,726.517 296.694,734.85 343.5,744C 357.852,745.253 372.185,746.42 386.5,747.5C 389.285,755.922 391.118,764.589 392,773.5C 391.086,794.435 394.086,814.769 401,834.5C 408.476,848.645 418.809,860.312 432,869.5C 437.198,876.148 436.365,881.981 429.5,887C 412.987,899.09 396.654,911.424 380.5,924C 375.734,927.549 370.4,929.716 364.5,930.5C 293.007,913.485 258.84,868.152 262,794.5C 256.451,754.119 233.285,733.786 192.5,733.5C 192.992,794.917 192.492,856.25 191,917.5C 189.421,919.041 187.587,920.208 185.5,921C 147.167,921.667 108.833,921.667 70.5,921C 67.2716,919.437 65.1049,916.937 64,913.5C 63.1673,778.333 63.334,643.333 64.5,508.5 Z"/></g>
<g><path style="opacity:0.982" fill="#8db8ed" d="M 3151.5,697.5 C 3161.78,699.476 3172.45,700.143 3183.5,699.5C 3181.38,705.877 3181.04,712.377 3182.5,719C 3182.51,724.63 3181.85,730.13 3180.5,735.5C 3169.17,735.5 3157.83,735.5 3146.5,735.5C 3146.5,734.5 3146.5,733.5 3146.5,732.5C 3147.37,725.703 3148.87,719.036 3151,712.5C 3151.01,707.316 3151.18,702.316 3151.5,697.5 Z"/></g>
<g><path style="opacity:1" fill="#4dfdfd" d="M 2968.5,738.5 C 2975.19,747.214 2980.36,756.881 2984,767.5C 2987.78,778.285 2990.78,789.285 2993,800.5C 3000.19,829.016 3017.35,848.849 3044.5,860C 3050.08,864.739 3050.92,870.239 3047,876.5C 3031.54,894.299 3015.7,911.799 2999.5,929C 2992.08,933.237 2984.08,934.57 2975.5,933C 2935.97,929.669 2905.14,911.835 2883,879.5C 2880.33,874.167 2877.67,868.833 2875,863.5C 2870.12,847.541 2865.45,831.541 2861,815.5C 2846.6,780.713 2820.77,767.046 2783.5,774.5C 2794.45,829.532 2805.62,884.532 2817,939.5C 2822.58,952.846 2818.41,960.679 2804.5,963C 2775.16,969 2745.83,975 2716.5,981C 2711.19,982.199 2705.85,982.866 2700.5,983C 2697.09,981.923 2694.59,979.756 2693,976.5C 2676.4,897.578 2660.24,818.578 2644.5,739.5C 2656.77,736.535 2668.77,732.702 2680.5,728C 2698.94,715.807 2719.27,710.641 2741.5,712.5C 2760.19,713.224 2778.85,714.724 2797.5,717C 2813.3,720.377 2829.3,722.877 2845.5,724.5C 2863.08,728.877 2880.75,733.044 2898.5,737C 2921.81,738.318 2945.15,738.818 2968.5,738.5 Z"/></g>
<g><path style="opacity:1" fill="#fefefe" d="M 2452.5,764.5 C 2450.37,782.489 2450.04,800.656 2451.5,819C 2450.85,821.504 2449.18,822.837 2446.5,823C 2423.59,830.209 2402.25,827.209 2382.5,814C 2369.46,802.051 2363.79,787.218 2365.5,769.5C 2372.08,735.889 2392.41,720.055 2426.5,722C 2437.84,724.077 2447,729.577 2454,738.5C 2453.61,747.149 2453.11,755.815 2452.5,764.5 Z"/></g>
<g><path style="opacity:1" fill="#4dfdfd" d="M 1561.5,722.5 C 1606.92,726.38 1652.25,727.38 1697.5,725.5C 1702.15,735.766 1706.82,746.099 1711.5,756.5C 1720.57,746.104 1729.24,735.438 1737.5,724.5C 1789.67,727.946 1842.33,729.946 1895.5,730.5C 1868.52,771.325 1839.02,810.325 1807,847.5C 1753.03,909.474 1696.87,969.641 1638.5,1028C 1631.37,1032.68 1623.7,1033.68 1615.5,1031C 1588.08,1019.53 1560.75,1007.86 1533.5,996C 1525.82,989.48 1525.65,982.647 1533,975.5C 1562.71,939.241 1592.55,903.075 1622.5,867C 1601.49,819.141 1581.16,770.974 1561.5,722.5 Z"/></g>
<g><path style="opacity:1" fill="#4efdfd" d="M 1916.5,729.5 C 1917.33,730.748 1918.67,731.415 1920.5,731.5C 1938.43,733.712 1956.43,734.879 1974.5,735C 1992.33,738.488 2010.33,740.988 2028.5,742.5C 2015.28,783.904 2027.95,814.738 2066.5,835C 2087.38,843.153 2109.05,847.153 2131.5,847C 2138.42,849.551 2141.58,854.384 2141,861.5C 2133.41,880.019 2124.74,898.019 2115,915.5C 2111.1,920.868 2105.93,924.368 2099.5,926C 2059.12,927.738 2021.12,919.071 1985.5,900C 1926.39,864.267 1901.89,812.101 1912,743.5C 1912.9,738.524 1914.4,733.858 1916.5,729.5 Z"/></g>
<g><path style="opacity:0.989" fill="#86beed" d="M 3146.5,732.5 C 3146.5,733.5 3146.5,734.5 3146.5,735.5C 3157.83,735.5 3169.17,735.5 3180.5,735.5C 3181.38,737.137 3182.05,738.97 3182.5,741C 3180.26,749.792 3178.26,758.625 3176.5,767.5C 3156.33,767.83 3136.33,767.497 3116.5,766.5C 3121.84,762.399 3127.34,758.399 3133,754.5C 3138.31,747.528 3142.81,740.194 3146.5,732.5 Z"/></g>
<g><path style="opacity:1" fill="#4dfdfd" d="M 892.5,741.5 C 895.439,780.611 916.439,799.444 955.5,798C 974.969,795.595 992.303,788.262 1007.5,776C 1018.2,766.965 1027.87,756.965 1036.5,746C 1044.26,741.861 1051.1,743.028 1057,749.5C 1066.96,761.133 1077.3,772.466 1088,783.5C 1093.52,790.027 1094.86,797.361 1092,805.5C 1062.62,848.514 1022.79,877.347 972.5,892C 918.959,907.017 868.626,900.017 821.5,871C 781.459,841.077 762.125,800.91 763.5,750.5C 806.53,747.93 849.53,744.93 892.5,741.5 Z"/></g>
<g><path style="opacity:1" fill="#4dfdfd" d="M 535.5,756.5 C 534.247,781.821 543.247,802.654 562.5,819C 579.816,831.988 599.149,840.655 620.5,845C 629.345,848.194 632.845,854.361 631,863.5C 619.006,880.836 605.506,897.002 590.5,912C 582.631,916.684 574.298,917.684 565.5,915C 523.191,904.442 487.358,883.276 458,851.5C 433.161,822.154 421.328,788.154 422.5,749.5C 437.014,749.716 451.514,749.382 466,748.5C 471.509,748.901 477.009,749.401 482.5,750C 499.847,754.59 517.514,756.757 535.5,756.5 Z"/></g>
<g><path style="opacity:1" fill="#4dfdfd" d="M 2222.5,747.5 C 2225.72,764.566 2222.22,780.233 2212,794.5C 2200.05,805.724 2185.88,812.557 2169.5,815C 2140.03,819.986 2110.36,821.986 2080.5,821C 2078.38,819.878 2076.54,818.378 2075,816.5C 2067.93,797.291 2062.93,777.625 2060,757.5C 2061.17,756.333 2062.33,755.167 2063.5,754C 2070.68,751.851 2078.01,750.351 2085.5,749.5C 2086.35,750.966 2087.68,751.8 2089.5,752C 2106.52,753.802 2123.52,755.802 2140.5,758C 2167.83,758.5 2195.16,758.667 2222.5,758.5C 2222.5,754.833 2222.5,751.167 2222.5,747.5 Z"/></g>
<g><path style="opacity:1" fill="#4efdfd" d="M 575.5,746.5 C 575.5,750.167 575.5,753.833 575.5,757.5C 629.844,756.241 684.177,754.574 738.5,752.5C 738.307,764.327 736.807,775.994 734,787.5C 728.185,807.649 715.018,819.816 694.5,824C 656.444,826.127 619.11,821.794 582.5,811C 578.044,807.646 575.877,803.146 576,797.5C 574.554,780.345 574.387,763.345 575.5,746.5 Z"/></g>
<g><path style="opacity:1" fill="#4dfdfd" d="M 2243.5,752.5 C 2243.5,754.5 2243.5,756.5 2243.5,758.5C 2256.19,758.941 2268.85,759.775 2281.5,761C 2309.3,765.375 2337.3,768.208 2365.5,769.5C 2363.79,787.218 2369.46,802.051 2382.5,814C 2402.25,827.209 2423.59,830.209 2446.5,823C 2449.18,822.837 2450.85,821.504 2451.5,819C 2450.04,800.656 2450.37,782.489 2452.5,764.5C 2452.5,767.5 2452.5,770.5 2452.5,773.5C 2478.57,774.133 2504.57,773.299 2530.5,771C 2547.27,767.369 2563.94,763.202 2580.5,758.5C 2577.74,777.737 2576.91,797.07 2578,816.5C 2579.31,834.663 2588.15,847.497 2604.5,855C 2606.3,856.594 2607.3,858.594 2607.5,861C 2594.85,883.655 2581.35,905.822 2567,927.5C 2563.24,932.132 2558.4,934.798 2552.5,935.5C 2526.39,930.028 2503.55,918.362 2484,900.5C 2425.33,923.87 2368.49,920.036 2313.5,889C 2277.54,866.909 2254.37,835.409 2244,794.5C 2240.96,780.383 2240.79,766.383 2243.5,752.5 Z"/></g>
<g><path style="opacity:1" fill="#82c4ed" d="M 1527.5,802.5 C 1515.5,803.833 1503.5,803.833 1491.5,802.5C 1494.94,797.882 1497.77,792.882 1500,787.5C 1504.18,775.094 1506.18,762.427 1506,749.5C 1513.66,766.99 1520.83,784.657 1527.5,802.5 Z"/></g>
<g><path style="opacity:0.991" fill="#80c3ed" d="M 3116.5,766.5 C 3136.33,767.497 3156.33,767.83 3176.5,767.5C 3172.94,773.608 3169.11,779.608 3165,785.5C 3158.92,790.454 3152.76,795.287 3146.5,800C 3124.68,806.647 3102.35,809.481 3079.5,808.5C 3079.86,809.183 3080.2,809.85 3080.5,810.5C 3072.94,805.134 3065.11,800.134 3057,795.5C 3053.61,788.717 3050.77,781.717 3048.5,774.5C 3071.67,775.416 3094.33,772.749 3116.5,766.5 Z"/></g>
<g><path style="opacity:0.979" fill="#7ac8ed" d="M 1491.5,802.5 C 1503.5,803.833 1515.5,803.833 1527.5,802.5C 1529.96,806.444 1531.63,810.777 1532.5,815.5C 1531.35,818.725 1530.18,822.058 1529,825.5C 1525.28,830.38 1521.78,835.38 1518.5,840.5C 1509.49,828.99 1498.99,818.99 1487,810.5C 1487.38,807.27 1488.88,804.603 1491.5,802.5 Z"/></g>
<g><path style="opacity:0.976" fill="#75d0ed" d="M 1525.5,850.5 C 1531.49,855.163 1537.16,860.163 1542.5,865.5C 1540.3,869.88 1537.47,873.88 1534,877.5C 1532.85,867.886 1530.02,858.886 1525.5,850.5 Z"/></g>
<g><path style="opacity:1" fill="#69d3ed" d="M 765.5,905.5 C 735.833,905.5 706.167,905.5 676.5,905.5C 680.671,899.829 684.337,893.829 687.5,887.5C 704.105,883.557 720.605,879.224 737,874.5C 738.711,874.439 740.044,875.106 741,876.5C 747.934,887.263 756.101,896.929 765.5,905.5 Z"/></g>
<g><path style="opacity:1" fill="#6ad3ed" d="M 1896.5,905.5 C 1877.17,905.5 1857.83,905.5 1838.5,905.5C 1849.17,893.161 1859.84,880.828 1870.5,868.5C 1878.43,881.35 1887.09,893.684 1896.5,905.5 Z"/></g>
<g><path style="opacity:0.997" fill="#6bd3ed" d="M 2232.5,902.5 C 2231.09,902.973 2230.43,903.973 2230.5,905.5C 2216.83,905.5 2203.17,905.5 2189.5,905.5C 2194.5,893.652 2198.5,881.486 2201.5,869C 2203.22,868.654 2204.88,868.154 2206.5,867.5C 2215.16,879.161 2223.83,890.828 2232.5,902.5 Z"/></g>
<g><path style="opacity:0.985" fill="#6ad2ed" d="M 3105.5,839.5 C 3111.75,843.573 3117.58,848.24 3123,853.5C 3126.75,859.342 3130.75,865.009 3135,870.5C 3137.42,881.021 3139.92,891.521 3142.5,902C 3141.64,905.137 3140.97,908.303 3140.5,911.5C 3126.17,911.5 3111.83,911.5 3097.5,911.5C 3101.36,906.445 3104.19,900.778 3106,894.5C 3107.76,885.972 3109.59,877.472 3111.5,869C 3109.44,859.167 3107.44,849.334 3105.5,839.5 Z"/></g>
<g><path style="opacity:0.981" fill="#62d6ed" d="M 676.5,905.5 C 706.167,905.5 735.833,905.5 765.5,905.5C 766.5,905.833 767.167,906.5 767.5,907.5C 751.877,912.906 735.877,917.073 719.5,920C 716.382,924.396 713.382,928.896 710.5,933.5C 692.167,933.5 673.833,933.5 655.5,933.5C 662.503,924.158 669.503,914.825 676.5,905.5 Z"/></g>
<g><path style="opacity:0.991" fill="#61d6ed" d="M 1838.5,905.5 C 1857.83,905.5 1877.17,905.5 1896.5,905.5C 1896.5,905.833 1896.5,906.167 1896.5,906.5C 1888.5,915.5 1880.5,924.5 1872.5,933.5C 1853.17,933.5 1833.83,933.5 1814.5,933.5C 1822.15,923.847 1830.15,914.514 1838.5,905.5 Z"/></g>
<g><path style="opacity:0.988" fill="#5ed8ed" d="M 2189.5,905.5 C 2203.17,905.5 2216.83,905.5 2230.5,905.5C 2227.37,922.089 2221.7,937.756 2213.5,952.5C 2196.83,952.5 2180.17,952.5 2163.5,952.5C 2173.47,937.571 2182.13,921.904 2189.5,905.5 Z"/></g>
<g><path style="opacity:0.989" fill="#5dd8ed" d="M 3097.5,911.5 C 3111.83,911.5 3126.17,911.5 3140.5,911.5C 3138.48,918.748 3136.65,926.081 3135,933.5C 3130.64,940.014 3126.14,946.347 3121.5,952.5C 3101.83,952.5 3082.17,952.5 3062.5,952.5C 3074.57,939.102 3086.24,925.436 3097.5,911.5 Z"/></g>
<g><path style="opacity:0.991" fill="#57dbed" d="M 655.5,933.5 C 673.833,933.5 692.167,933.5 710.5,933.5C 700.608,948.059 689.608,961.725 677.5,974.5C 650.5,974.5 623.5,974.5 596.5,974.5C 601.692,972.952 607.025,971.452 612.5,970C 620.679,965.747 628.346,960.747 635.5,955C 642.033,947.636 648.7,940.47 655.5,933.5 Z"/></g>
<g><path style="opacity:0.992" fill="#59dbed" d="M 771.5,910.5 C 783.013,918.504 794.679,926.337 806.5,934C 829.3,945.368 853.3,953.034 878.5,957C 901.052,960.877 923.719,961.544 946.5,959C 965.676,955.432 984.676,951.098 1003.5,946C 1025.53,939.235 1046.03,929.401 1065,916.5C 1065.9,932.965 1067.73,949.298 1070.5,965.5C 1063.06,969.091 1055.39,972.091 1047.5,974.5C 982.5,974.5 917.5,974.5 852.5,974.5C 825.892,962.74 802.392,946.407 782,925.5C 777.988,920.792 774.488,915.792 771.5,910.5 Z"/></g>
<g><path style="opacity:0.992" fill="#57dbed" d="M 1814.5,933.5 C 1833.83,933.5 1853.17,933.5 1872.5,933.5C 1861.22,947.785 1849.22,961.452 1836.5,974.5C 1816.5,974.5 1796.5,974.5 1776.5,974.5C 1789.19,960.807 1801.86,947.141 1814.5,933.5 Z"/></g>
<g><path style="opacity:0.988" fill="#51deed" d="M 596.5,974.5 C 623.5,974.5 650.5,974.5 677.5,974.5C 674.404,978.773 671.07,982.94 667.5,987C 659.686,993.409 651.353,999.075 642.5,1004C 632.5,1006.33 622.5,1008.67 612.5,1011C 569.902,1007.52 530.568,994.356 494.5,971.5C 482.639,979.594 470.972,987.927 459.5,996.5C 410.5,996.5 361.5,996.5 312.5,996.5C 300.991,988.904 289.991,980.571 279.5,971.5C 278.611,974.279 277.444,976.945 276,979.5C 271.636,985.354 267.136,991.021 262.5,996.5C 193.167,996.5 123.833,996.5 54.5,996.5C 47.5749,989.914 42.2415,982.247 38.5,973.5C 39.6828,974.504 41.0161,975.338 42.5,976C 51.8333,978.333 61.1667,980.667 70.5,983C 108.5,983.667 146.5,983.667 184.5,983C 194.5,980.667 204.5,978.333 214.5,976C 221.952,970.883 229.118,965.383 236,959.5C 239.333,954.833 242.667,950.167 246,945.5C 247.152,942.56 248.152,939.56 249,936.5C 259.68,946.749 271.18,955.915 283.5,964C 307.022,977.953 332.356,986.953 359.5,991C 375.361,990.202 390.694,986.869 405.5,981C 425.344,966.486 445.177,951.986 465,937.5C 498.693,959.346 535.526,973.012 575.5,978.5C 582.476,977.172 589.476,975.838 596.5,974.5 Z"/></g>
<g><path style="opacity:0.959" fill="#4edded" d="M 852.5,974.5 C 917.5,974.5 982.5,974.5 1047.5,974.5C 1041.85,977.329 1035.85,979.496 1029.5,981C 1008.42,986.605 987.082,990.938 965.5,994C 945.629,995.504 925.962,994.171 906.5,990C 891.749,986.646 877.082,982.979 862.5,979C 858.939,977.768 855.606,976.268 852.5,974.5 Z"/></g>
<g><path style="opacity:0.99" fill="#51dded" d="M 1918.5,928.5 C 1929.94,936.088 1941.27,943.921 1952.5,952C 1975.17,965.335 1999.5,974.335 2025.5,979C 2049.08,985.448 2073.08,988.448 2097.5,988C 2109.21,985.156 2120.88,982.156 2132.5,979C 2139.67,974.581 2146.67,969.915 2153.5,965C 2157.2,961.077 2160.54,956.91 2163.5,952.5C 2180.17,952.5 2196.83,952.5 2213.5,952.5C 2206.3,968.917 2196.64,983.584 2184.5,996.5C 2124.5,996.5 2064.5,996.5 2004.5,996.5C 1997.46,994.147 1990.79,990.981 1984.5,987C 1964.27,974.449 1945.77,959.615 1929,942.5C 1925.67,937.673 1922.17,933.007 1918.5,928.5 Z"/></g>
<g><path style="opacity:0.993" fill="#51deed" d="M 2249.5,918.5 C 2263.43,928.808 2277.76,938.641 2292.5,948C 2303.85,953.844 2315.52,958.844 2327.5,963C 2341.13,966.491 2354.8,969.825 2368.5,973C 2402.7,980.062 2436.53,978.562 2470,968.5C 2482.67,975.584 2495.84,981.75 2509.5,987C 2521.99,990.039 2534.33,993.206 2546.5,996.5C 2484.17,996.5 2421.83,996.5 2359.5,996.5C 2338.73,990.863 2319.73,981.696 2302.5,969C 2281.7,955.363 2264.03,938.529 2249.5,918.5 Z"/></g>
<g><path style="opacity:0.995" fill="#51deed" d="M 3062.5,952.5 C 3082.17,952.5 3101.83,952.5 3121.5,952.5C 3108.47,967.192 3095.47,981.859 3082.5,996.5C 3025.5,996.5 2968.5,996.5 2911.5,996.5C 2910.2,995.884 2909.2,995.884 2908.5,996.5C 2893.83,996.5 2879.17,996.5 2864.5,996.5C 2867.81,991.669 2870.98,986.669 2874,981.5C 2875.05,974.616 2876.72,967.949 2879,961.5C 2887.96,968.732 2897.79,974.565 2908.5,979C 2933.5,986.806 2959,992.306 2985,995.5C 2998.35,993.204 3011.52,990.037 3024.5,986C 3031.17,981.333 3037.83,976.667 3044.5,972C 3050.37,965.304 3056.37,958.804 3062.5,952.5 Z"/></g>
<g><path style="opacity:0.986" fill="#47e0ec" d="M 2004.5,996.5 C 2064.5,996.5 2124.5,996.5 2184.5,996.5C 2177.77,1002.71 2170.44,1008.21 2162.5,1013C 2147.65,1017.67 2132.48,1020.51 2117,1021.5C 2103.04,1021.22 2089.2,1019.72 2075.5,1017C 2060.09,1013.65 2044.76,1009.98 2029.5,1006C 2020.79,1003.49 2012.46,1000.33 2004.5,996.5 Z"/></g>
<g><path style="opacity:0.986" fill="#4bdfec" d="M 2638.5,1006.5 C 2595.5,1006.5 2552.5,1006.5 2509.5,1006.5C 2506.45,1005.22 2503.61,1003.56 2501,1001.5C 2470.02,1011.14 2438.52,1013.31 2406.5,1008C 2390.6,1004.61 2374.93,1000.77 2359.5,996.5C 2421.83,996.5 2484.17,996.5 2546.5,996.5C 2549.14,997.263 2551.81,997.43 2554.5,997C 2564.17,994.667 2573.83,992.333 2583.5,990C 2592.56,985.384 2601.06,979.884 2609,973.5C 2614.33,966.167 2619.67,958.833 2625,951.5C 2629.64,969.739 2634.14,988.072 2638.5,1006.5 Z"/></g>
<g><path style="opacity:0.979" fill="#46e0ec" d="M 54.5,996.5 C 123.833,996.5 193.167,996.5 262.5,996.5C 256.585,1001.47 250.252,1005.97 243.5,1010C 233.833,1012.33 224.167,1014.67 214.5,1017C 196,1017.17 177.5,1017.33 159,1017.5C 138.792,1017.64 118.626,1017.14 98.5,1016C 90.1963,1013.87 81.8629,1011.87 73.5,1010C 66.7482,1005.97 60.4149,1001.47 54.5,996.5 Z"/></g>
<g><path style="opacity:0.977" fill="#46e0ec" d="M 312.5,996.5 C 361.5,996.5 410.5,996.5 459.5,996.5C 450.767,1004.05 441.433,1010.88 431.5,1017C 419.273,1020.31 406.94,1023.14 394.5,1025.5C 372.052,1021.97 350.386,1015.81 329.5,1007C 323.434,1003.98 317.768,1000.48 312.5,996.5 Z"/></g>
<g><path style="opacity:0.994" fill="#4adfec" d="M 1776.5,974.5 C 1796.5,974.5 1816.5,974.5 1836.5,974.5C 1824.87,988.132 1812.87,1001.47 1800.5,1014.5C 1780.17,1014.5 1759.83,1014.5 1739.5,1014.5C 1751.83,1001.17 1764.17,987.833 1776.5,974.5 Z"/></g>
<g><path style="opacity:0.987" fill="#47e2ec" d="M 1481.5,1030.5 C 1445.83,1030.5 1410.17,1030.5 1374.5,1030.5C 1363.97,1024.65 1353.47,1018.65 1343,1012.5C 1338.3,1018.69 1333.47,1024.69 1328.5,1030.5C 1257.5,1030.5 1186.5,1030.5 1115.5,1030.5C 1110.51,1025.2 1106.51,1019.2 1103.5,1012.5C 1106.22,1014.47 1109.22,1015.97 1112.5,1017C 1120.13,1018.82 1127.79,1020.49 1135.5,1022C 1172.53,1021.7 1209.53,1020.37 1246.5,1018C 1258.68,1015.62 1270.68,1012.62 1282.5,1009C 1287.17,1005.67 1291.83,1002.33 1296.5,999C 1301.91,992.309 1307.41,985.809 1313,979.5C 1335.57,992.2 1358.07,1005.03 1380.5,1018C 1393.23,1022.18 1406.23,1024.51 1419.5,1025C 1429.21,1022.82 1438.87,1020.49 1448.5,1018C 1455.33,1013.17 1462.17,1008.33 1469,1003.5C 1471.04,1008.66 1472.7,1013.99 1474,1019.5C 1477,1022.85 1479.5,1026.52 1481.5,1030.5 Z"/></g>
<g><path style="opacity:0.948" fill="#43e1ec" d="M 2509.5,1006.5 C 2552.5,1006.5 2595.5,1006.5 2638.5,1006.5C 2638.5,1006.83 2638.5,1007.17 2638.5,1007.5C 2631.37,1012.9 2624.04,1018.07 2616.5,1023C 2605.28,1026.08 2593.95,1028.58 2582.5,1030.5C 2563.71,1027.39 2545.38,1022.55 2527.5,1016C 2521.11,1013.41 2515.11,1010.24 2509.5,1006.5 Z"/></g>
<g><path style="opacity:0.944" fill="#45e1ec" d="M 2911.5,996.5 C 2968.5,996.5 3025.5,996.5 3082.5,996.5C 3073.77,1006.55 3063.44,1014.72 3051.5,1021C 3038.91,1024.86 3026.08,1027.36 3013,1028.5C 2992.49,1026.6 2972.32,1022.76 2952.5,1017C 2937.11,1013.28 2923.44,1006.45 2911.5,996.5 Z"/></g>
<g><path style="opacity:0.99" fill="#3ae3ec" d="M 1115.5,1030.5 C 1186.5,1030.5 1257.5,1030.5 1328.5,1030.5C 1322.59,1035.47 1316.25,1039.97 1309.5,1044C 1299.87,1046.49 1290.21,1048.82 1280.5,1051C 1242.52,1053.53 1204.52,1055.2 1166.5,1056C 1156.8,1053.82 1147.13,1051.49 1137.5,1049C 1132.01,1044.75 1126.34,1040.75 1120.5,1037C 1118.21,1035.22 1116.54,1033.06 1115.5,1030.5 Z"/></g>
<g><path style="opacity:0.987" fill="#3ae4ec" d="M 1374.5,1030.5 C 1410.17,1030.5 1445.83,1030.5 1481.5,1030.5C 1484.71,1034.92 1488.38,1038.92 1492.5,1042.5C 1487.56,1045.65 1482.56,1048.81 1477.5,1052C 1466.61,1054.97 1455.61,1057.47 1444.5,1059.5C 1432.35,1057.3 1420.35,1054.46 1408.5,1051C 1397,1044.3 1385.66,1037.47 1374.5,1030.5 Z"/></g>
<g><path style="opacity:0.99" fill="#3fe3ec" d="M 1739.5,1014.5 C 1759.83,1014.5 1780.17,1014.5 1800.5,1014.5C 1790.16,1025.21 1779.82,1035.88 1769.5,1046.5C 1748.83,1046.5 1728.17,1046.5 1707.5,1046.5C 1717.83,1035.5 1728.5,1024.83 1739.5,1014.5 Z"/></g>
<g><path style="opacity:0.992" fill="#40e3ec" d="M 2864.5,996.5 C 2879.17,996.5 2893.83,996.5 2908.5,996.5C 2907.35,1005.76 2904.52,1014.43 2900,1022.5C 2896.29,1027.42 2892.45,1032.26 2888.5,1037C 2883.95,1040.39 2879.29,1043.55 2874.5,1046.5C 2807.5,1046.5 2740.5,1046.5 2673.5,1046.5C 2670.42,1043.35 2668.09,1039.68 2666.5,1035.5C 2668.26,1036.07 2669.92,1036.91 2671.5,1038C 2679.91,1039.68 2688.24,1041.68 2696.5,1044C 2700.5,1044.67 2704.5,1044.67 2708.5,1044C 2752.61,1035.18 2796.61,1025.84 2840.5,1016C 2849.53,1010.67 2857.53,1004.17 2864.5,996.5 Z"/></g>
<g><path style="opacity:0.984" fill="#33e5ec" d="M 2673.5,1046.5 C 2740.5,1046.5 2807.5,1046.5 2874.5,1046.5C 2873.25,1048.14 2871.58,1049.3 2869.5,1050C 2824.37,1060.45 2779.03,1069.95 2733.5,1078.5C 2721.63,1076.45 2709.96,1073.62 2698.5,1070C 2688.05,1064.39 2679.72,1056.55 2673.5,1046.5 Z"/></g>
<g><path style="opacity:0.988" fill="#2ce7ec" d="M 1707.5,1046.5 C 1728.17,1046.5 1748.83,1046.5 1769.5,1046.5C 1753.86,1063.8 1737.53,1080.47 1720.5,1096.5C 1668.17,1096.5 1615.83,1096.5 1563.5,1096.5C 1542.49,1090.92 1524.99,1079.92 1511,1063.5C 1507.52,1059.19 1504.68,1054.53 1502.5,1049.5C 1531.57,1062.47 1560.9,1074.97 1590.5,1087C 1601.84,1090.21 1613.34,1092.71 1625,1094.5C 1638.11,1092.35 1650.94,1089.18 1663.5,1085C 1680.19,1074.48 1694.85,1061.65 1707.5,1046.5 Z"/></g>
<g><path style="opacity:0.972" fill="#14e9ec" d="M 1563.5,1096.5 C 1615.83,1096.5 1668.17,1096.5 1720.5,1096.5C 1712.57,1105.27 1703.57,1112.77 1693.5,1119C 1682.14,1122.5 1670.81,1125.66 1659.5,1128.5C 1656.83,1128.5 1654.17,1128.5 1651.5,1128.5C 1640.66,1125.54 1629.66,1122.71 1618.5,1120C 1599.94,1112.43 1581.61,1104.6 1563.5,1096.5 Z"/></g>
</svg>
